<svg xmlns="http://www.w3.org/2000/svg" width="141" height="51" viewBox="0 0 141 51" fill="none"><g clip-path="url(#clip0_2013_94)"><mask id="mask0_2013_94" style="mask-type:luminance" maskUnits="userSpaceOnUse" x="0" y="0" width="141" height="51"><path d="M141 0H0V51H141V0Z" fill="white"></path></mask><g mask="url(#mask0_2013_94)"><path d="M0.397461 10.312C0.397461 4.78916 4.87461 0.312012 10.3975 0.312012H130.397C135.92 0.312012 140.397 4.78916 140.397 10.312V40.312C140.397 45.8348 135.92 50.312 130.397 50.312H10.3975C4.87461 50.312 0.397461 45.8348 0.397461 40.312V10.312Z" fill="url(#paint0_linear_2013_94)"></path></g><path d="M31.7147 32.5V22.1891H28.9063V19.6473C29.4803 19.6473 29.9928 19.5995 30.4437 19.5038C30.9084 19.4081 31.3183 19.2373 31.6737 18.9913C32.029 18.7454 32.3433 18.4105 32.6166 17.9869H35.0354V32.5H31.7147ZM40.8246 23.5011C40.073 23.5011 39.4717 23.3439 39.0207 23.0296C38.5834 22.7153 38.2691 22.3053 38.0777 21.7997C37.9001 21.294 37.8113 20.7542 37.8113 20.1803C37.8113 19.579 37.9069 19.0255 38.0982 18.5199C38.2896 18.0006 38.6107 17.5838 39.0617 17.2694C39.5127 16.9551 40.1071 16.798 40.8451 16.798C41.5967 16.798 42.1912 16.9551 42.6285 17.2694C43.0658 17.5838 43.3732 17.9937 43.5509 18.4994C43.7422 19.005 43.8379 19.5516 43.8379 20.1393C43.8379 20.7269 43.7422 21.2804 43.5509 21.7997C43.3596 22.3053 43.0384 22.7153 42.5875 23.0296C42.1502 23.3439 41.5625 23.5011 40.8246 23.5011ZM40.8246 21.7792C41.1526 21.7792 41.3917 21.6903 41.542 21.5127C41.706 21.335 41.8153 21.1164 41.87 20.8567C41.9247 20.5971 41.952 20.3579 41.952 20.1393C41.952 19.9206 41.9247 19.6883 41.87 19.4423C41.829 19.1827 41.7265 18.964 41.5625 18.7864C41.4122 18.6087 41.1731 18.5199 40.8451 18.5199C40.5308 18.5199 40.2916 18.6087 40.1276 18.7864C39.9636 18.964 39.8475 19.1827 39.7791 19.4423C39.7245 19.6883 39.6971 19.9479 39.6971 20.2213C39.6971 20.4263 39.7176 20.6517 39.7586 20.8977C39.8133 21.13 39.9158 21.335 40.0661 21.5127C40.2301 21.6903 40.4829 21.7792 40.8246 21.7792ZM52.0572 32.5V17.9869H57.9404C59.061 17.9869 60.0381 18.1509 60.8717 18.4789C61.719 18.8069 62.3749 19.3398 62.8396 20.0778C63.3179 20.8157 63.557 21.8133 63.557 23.0706C63.557 24.2322 63.3042 25.2025 62.7986 25.9814C62.2929 26.7604 61.6028 27.3412 60.7282 27.7238C59.8536 28.0928 58.856 28.2773 57.7354 28.2773H55.378V32.5H52.0572ZM55.378 25.3254H57.7354C58.5143 25.3254 59.1293 25.1341 59.5803 24.7515C60.0449 24.3688 60.2772 23.8085 60.2772 23.0706C60.2772 22.4146 60.0791 21.9158 59.6828 21.5742C59.3001 21.2325 58.6647 21.0617 57.7764 21.0617H55.378V25.3254ZM65.6096 32.5V17.9869H68.9304V32.5H65.6096ZM71.8353 32.5V17.9869H75.1561V29.4457H82.3101V32.5H71.8353ZM83.0305 32.5L88.7701 17.9869H92.2959L97.9741 32.5H94.3868L93.5873 30.2451H87.4172L86.5973 32.5H83.0305ZM88.4627 27.2318H92.5419L90.533 21.6152L88.4627 27.2318ZM99.3805 32.5V17.9869H105.366C106.049 17.9869 106.726 18.0552 107.395 18.1919C108.079 18.3149 108.701 18.5472 109.261 18.8888C109.821 19.2305 110.265 19.7156 110.593 20.3443C110.935 20.9592 111.106 21.7518 111.106 22.7221C111.106 23.3781 110.996 23.9862 110.778 24.5465C110.559 25.1068 110.231 25.5919 109.794 26.0019C109.37 26.4119 108.83 26.733 108.174 26.9653L111.475 32.5H107.703L104.895 27.4983H102.701V32.5H99.3805ZM102.701 24.567H105.264C105.66 24.567 106.008 24.5328 106.309 24.4645C106.623 24.3825 106.89 24.2732 107.108 24.1365C107.327 23.9862 107.491 23.7949 107.6 23.5626C107.723 23.3302 107.792 23.0501 107.805 22.7221C107.805 22.2711 107.696 21.9295 107.477 21.6972C107.272 21.4649 106.992 21.3009 106.637 21.2052C106.282 21.1095 105.872 21.0617 105.407 21.0617H102.701V24.567Z" fill="white"></path></g><defs><linearGradient id="paint0_linear_2013_94" x1="0.397461" y1="28.3003" x2="140.388" y2="24.939" gradientUnits="userSpaceOnUse"><stop stop-color="#27BC70"></stop><stop offset="1" stop-color="#3CB960"></stop></linearGradient><clipPath id="clip0_2013_94"><rect width="141" height="51" fill="white"></rect></clipPath></defs></svg>