<svg xmlns="http://www.w3.org/2000/svg" width="141" height="51" viewBox="0 0 141 51" fill="none"><g clip-path="url(#clip0_2013_115)"><mask id="mask0_2013_115" style="mask-type:luminance" maskUnits="userSpaceOnUse" x="0" y="0" width="141" height="51"><path d="M141 0H0V51H141V0Z" fill="white"></path></mask><g mask="url(#mask0_2013_115)"><path d="M0.397461 10.312C0.397461 4.78916 4.87461 0.312012 10.3975 0.312012H130.397C135.92 0.312012 140.397 4.78916 140.397 10.312V40.312C140.397 45.8348 135.92 50.312 130.397 50.312H10.3975C4.87461 50.312 0.397461 45.8348 0.397461 40.312V10.312Z" fill="url(#paint0_linear_2013_115)"></path></g><path d="M32.7419 32.6435C32.0176 32.6435 31.3207 32.5547 30.651 32.377C29.9814 32.1994 29.3733 31.9192 28.8267 31.5366C28.2937 31.1403 27.8495 30.6483 27.4942 30.0607C27.1389 29.4594 26.9203 28.7419 26.8383 27.9083H30.0976C30.1659 28.2773 30.3231 28.5847 30.569 28.8307C30.8287 29.0767 31.1498 29.2612 31.5325 29.3842C31.9151 29.4935 32.3251 29.5482 32.7624 29.5482C33.0767 29.5482 33.3637 29.5209 33.6234 29.4662C33.883 29.4115 34.1153 29.3227 34.3203 29.1997C34.5253 29.0767 34.6825 28.9196 34.7918 28.7282C34.9011 28.5369 34.9558 28.2909 34.9558 27.9903C34.9558 27.7443 34.9079 27.5325 34.8123 27.3548C34.7303 27.1635 34.6073 27.0132 34.4433 26.9038C34.2793 26.7809 34.0812 26.692 33.8488 26.6374C33.6165 26.569 33.3637 26.5349 33.0904 26.5349H31.2865V23.7265H32.5369C32.8512 23.7265 33.1246 23.6924 33.3569 23.6241C33.5892 23.5557 33.7873 23.4601 33.9513 23.3371C34.1153 23.2004 34.2315 23.0433 34.2998 22.8656C34.3818 22.6879 34.4228 22.4966 34.4228 22.2916C34.4228 21.9637 34.3476 21.6972 34.1973 21.4922C34.0607 21.2872 33.8557 21.1369 33.5824 21.0412C33.309 20.9319 32.9879 20.8772 32.6189 20.8772C32.2363 20.8772 31.8878 20.9387 31.5735 21.0617C31.2592 21.171 31.0064 21.3282 30.815 21.5332C30.6237 21.7382 30.5075 21.9842 30.4666 22.2711H27.2483C27.3302 21.4922 27.5284 20.8226 27.8427 20.2623C28.1707 19.702 28.5875 19.2442 29.0931 18.8888C29.5988 18.5199 30.1659 18.2466 30.7945 18.0689C31.4368 17.8912 32.0996 17.8024 32.7829 17.8024C33.4115 17.8024 34.0197 17.8776 34.6073 18.0279C35.1949 18.1646 35.7211 18.39 36.1857 18.7044C36.664 19.0187 37.0398 19.4355 37.3131 19.9548C37.6001 20.4604 37.7436 21.0754 37.7436 21.7997C37.7436 22.2096 37.6753 22.5991 37.5386 22.9681C37.402 23.3371 37.2106 23.665 36.9646 23.952C36.7323 24.239 36.459 24.4713 36.1447 24.649C36.6367 24.8266 37.0398 25.0931 37.3541 25.4484C37.6684 25.7901 37.9008 26.1932 38.0511 26.6579C38.2151 27.1088 38.2971 27.594 38.2971 28.1133C38.2971 28.9606 38.1399 29.678 37.8256 30.2656C37.5113 30.8533 37.0876 31.3247 36.5547 31.6801C36.0217 32.0217 35.4272 32.2677 34.7713 32.418C34.1153 32.5683 33.4389 32.6435 32.7419 32.6435ZM43.0566 23.5011C42.305 23.5011 41.7037 23.3439 41.2527 23.0296C40.8154 22.7153 40.5011 22.3053 40.3098 21.7997C40.1321 21.294 40.0433 20.7542 40.0433 20.1803C40.0433 19.579 40.139 19.0255 40.3303 18.5199C40.5216 18.0006 40.8428 17.5838 41.2937 17.2694C41.7447 16.9551 42.3392 16.798 43.0771 16.798C43.8287 16.798 44.4232 16.9551 44.8605 17.2694C45.2978 17.5838 45.6053 17.9937 45.7829 18.4994C45.9743 19.005 46.0699 19.5516 46.0699 20.1393C46.0699 20.7269 45.9743 21.2804 45.7829 21.7997C45.5916 22.3053 45.2705 22.7153 44.8195 23.0296C44.3822 23.3439 43.7946 23.5011 43.0566 23.5011ZM43.0566 21.7792C43.3846 21.7792 43.6237 21.6903 43.7741 21.5127C43.9381 21.335 44.0474 21.1164 44.102 20.8567C44.1567 20.5971 44.184 20.3579 44.184 20.1393C44.184 19.9206 44.1567 19.6883 44.102 19.4423C44.0611 19.1827 43.9586 18.964 43.7946 18.7864C43.6442 18.6087 43.4051 18.5199 43.0771 18.5199C42.7628 18.5199 42.5236 18.6087 42.3597 18.7864C42.1957 18.964 42.0795 19.1827 42.0112 19.4423C41.9565 19.6883 41.9292 19.9479 41.9292 20.2213C41.9292 20.4263 41.9497 20.6517 41.9907 20.8977C42.0453 21.13 42.1478 21.335 42.2982 21.5127C42.4622 21.6903 42.715 21.7792 43.0566 21.7792ZM54.2893 32.5V17.9869H60.1724C61.293 17.9869 62.2701 18.1509 63.1037 18.4789C63.951 18.8069 64.607 19.3398 65.0716 20.0778C65.5499 20.8157 65.7891 21.8133 65.7891 23.0706C65.7891 24.2322 65.5362 25.2025 65.0306 25.9814C64.525 26.7604 63.8348 27.3412 62.9602 27.7238C62.0856 28.0928 61.088 28.2773 59.9674 28.2773H57.6101V32.5H54.2893ZM57.6101 25.3254H59.9674C60.7464 25.3254 61.3613 25.1341 61.8123 24.7515C62.2769 24.3688 62.5093 23.8085 62.5093 23.0706C62.5093 22.4146 62.3111 21.9158 61.9148 21.5742C61.5322 21.2325 60.8967 21.0617 60.0084 21.0617H57.6101V25.3254ZM67.8417 32.5V17.9869H71.1624V32.5H67.8417ZM74.0673 32.5V17.9869H77.3881V29.4457H84.5422V32.5H74.0673ZM85.2625 32.5L91.0022 17.9869H94.5279L100.206 32.5H96.6188L95.8194 30.2451H89.6492L88.8293 32.5H85.2625ZM90.6947 27.2318H94.7739L92.7651 21.6152L90.6947 27.2318ZM101.612 32.5V17.9869H107.598C108.281 17.9869 108.958 18.0552 109.627 18.1919C110.311 18.3149 110.933 18.5472 111.493 18.8888C112.053 19.2305 112.497 19.7156 112.825 20.3443C113.167 20.9592 113.338 21.7518 113.338 22.7221C113.338 23.3781 113.228 23.9862 113.01 24.5465C112.791 25.1068 112.463 25.5919 112.026 26.0019C111.602 26.4119 111.062 26.733 110.406 26.9653L113.707 32.5H109.935L107.127 27.4983H104.933V32.5H101.612ZM104.933 24.567H107.496C107.892 24.567 108.24 24.5328 108.541 24.4645C108.855 24.3825 109.122 24.2732 109.341 24.1365C109.559 23.9862 109.723 23.7949 109.832 23.5626C109.955 23.3302 110.024 23.0501 110.037 22.7221C110.037 22.2711 109.928 21.9295 109.709 21.6972C109.505 21.4649 109.224 21.3009 108.869 21.2052C108.514 21.1095 108.104 21.0617 107.639 21.0617H104.933V24.567Z" fill="white"></path></g><defs><linearGradient id="paint0_linear_2013_115" x1="0.397461" y1="28.3003" x2="140.388" y2="24.939" gradientUnits="userSpaceOnUse"><stop stop-color="#27BC70"></stop><stop offset="1" stop-color="#3CB960"></stop></linearGradient><clipPath id="clip0_2013_115"><rect width="141" height="51" fill="white"></rect></clipPath></defs></svg>