<svg xmlns="http://www.w3.org/2000/svg" width="141" height="51" viewBox="0 0 141 51" fill="none"><g clip-path="url(#clip0_2013_122)"><mask id="mask0_2013_122" style="mask-type:luminance" maskUnits="userSpaceOnUse" x="0" y="0" width="141" height="51"><path d="M141 0H0V51H141V0Z" fill="white"></path></mask><g mask="url(#mask0_2013_122)"><path d="M0.397461 10.312C0.397461 4.78916 4.87461 0.312012 10.3975 0.312012H130.397C135.92 0.312012 140.397 4.78916 140.397 10.312V40.312C140.397 45.8348 135.92 50.312 130.397 50.312H10.3975C4.87461 50.312 0.397461 45.8348 0.397461 40.312V10.312Z" fill="url(#paint0_linear_2013_122)"></path></g><path d="M34.0076 32.5V29.8967H26.8126V27.3753L33.4337 17.9869H37.3079V26.8833H38.9273V29.8967H37.3079V32.5H34.0076ZM30.5638 26.8833H34.0076V21.7587L30.5638 26.8833ZM43.2668 23.5011C42.5152 23.5011 41.9139 23.3439 41.4629 23.0296C41.0256 22.7153 40.7113 22.3053 40.52 21.7997C40.3423 21.294 40.2535 20.7542 40.2535 20.1803C40.2535 19.579 40.3492 19.0255 40.5405 18.5199C40.7318 18.0006 41.0529 17.5838 41.5039 17.2694C41.9549 16.9551 42.5494 16.798 43.2873 16.798C44.0389 16.798 44.6334 16.9551 45.0707 17.2694C45.508 17.5838 45.8155 17.9937 45.9931 18.4994C46.1845 19.005 46.2801 19.5516 46.2801 20.1393C46.2801 20.7269 46.1845 21.2804 45.9931 21.7997C45.8018 22.3053 45.4807 22.7153 45.0297 23.0296C44.5924 23.3439 44.0048 23.5011 43.2668 23.5011ZM43.2668 21.7792C43.5948 21.7792 43.8339 21.6903 43.9843 21.5127C44.1483 21.335 44.2576 21.1164 44.3122 20.8567C44.3669 20.5971 44.3942 20.3579 44.3942 20.1393C44.3942 19.9206 44.3669 19.6883 44.3122 19.4423C44.2712 19.1827 44.1688 18.964 44.0048 18.7864C43.8544 18.6087 43.6153 18.5199 43.2873 18.5199C42.973 18.5199 42.7338 18.6087 42.5699 18.7864C42.4059 18.964 42.2897 19.1827 42.2214 19.4423C42.1667 19.6883 42.1394 19.9479 42.1394 20.2213C42.1394 20.4263 42.1599 20.6517 42.2009 20.8977C42.2555 21.13 42.358 21.335 42.5084 21.5127C42.6723 21.6903 42.9252 21.7792 43.2668 21.7792ZM54.4995 32.5V17.9869H60.3826C61.5032 17.9869 62.4803 18.1509 63.3139 18.4789C64.1612 18.8069 64.8172 19.3398 65.2818 20.0778C65.7601 20.8157 65.9993 21.8133 65.9993 23.0706C65.9993 24.2322 65.7464 25.2025 65.2408 25.9814C64.7352 26.7604 64.045 27.3412 63.1704 27.7238C62.2958 28.0928 61.2982 28.2773 60.1776 28.2773H57.8203V32.5H54.4995ZM57.8203 25.3254H60.1776C60.9566 25.3254 61.5715 25.1341 62.0225 24.7515C62.4871 24.3688 62.7195 23.8085 62.7195 23.0706C62.7195 22.4146 62.5213 21.9158 62.125 21.5742C61.7423 21.2325 61.1069 21.0617 60.2186 21.0617H57.8203V25.3254ZM68.0518 32.5V17.9869H71.3726V32.5H68.0518ZM74.2775 32.5V17.9869H77.5983V29.4457H84.7524V32.5H74.2775ZM85.4727 32.5L91.2124 17.9869H94.7381L100.416 32.5H96.829L96.0296 30.2451H89.8594L89.0395 32.5H85.4727ZM90.9049 27.2318H94.9841L92.9753 21.6152L90.9049 27.2318ZM101.823 32.5V17.9869H107.808C108.492 17.9869 109.168 18.0552 109.838 18.1919C110.521 18.3149 111.143 18.5472 111.703 18.8888C112.263 19.2305 112.708 19.7156 113.035 20.3443C113.377 20.9592 113.548 21.7518 113.548 22.7221C113.548 23.3781 113.439 23.9862 113.22 24.5465C113.001 25.1068 112.673 25.5919 112.236 26.0019C111.812 26.4119 111.273 26.733 110.617 26.9653L113.917 32.5H110.145L107.337 27.4983H105.143V32.5H101.823ZM105.143 24.567H107.706C108.102 24.567 108.451 24.5328 108.751 24.4645C109.066 24.3825 109.332 24.2732 109.551 24.1365C109.769 23.9862 109.933 23.7949 110.043 23.5626C110.166 23.3302 110.234 23.0501 110.248 22.7221C110.248 22.2711 110.138 21.9295 109.92 21.6972C109.715 21.4649 109.435 21.3009 109.079 21.2052C108.724 21.1095 108.314 21.0617 107.849 21.0617H105.143V24.567Z" fill="white"></path></g><defs><linearGradient id="paint0_linear_2013_122" x1="0.397461" y1="28.3003" x2="140.388" y2="24.939" gradientUnits="userSpaceOnUse"><stop stop-color="#27BC70"></stop><stop offset="1" stop-color="#3CB960"></stop></linearGradient><clipPath id="clip0_2013_122"><rect width="141" height="51" fill="white"></rect></clipPath></defs></svg>