<svg xmlns="http://www.w3.org/2000/svg" width="141" height="51" viewBox="0 0 141 51" fill="none"><g clip-path="url(#clip0_2013_129)"><mask id="mask0_2013_129" style="mask-type:luminance" maskUnits="userSpaceOnUse" x="0" y="0" width="141" height="51"><path d="M141 0H0V51H141V0Z" fill="white"></path></mask><g mask="url(#mask0_2013_129)"><path d="M0.397461 10.312C0.397461 4.78916 4.87461 0.312012 10.3975 0.312012H130.397C135.92 0.312012 140.397 4.78916 140.397 10.312V40.312C140.397 45.8348 135.92 50.312 130.397 50.312H10.3975C4.87461 50.312 0.397461 45.8348 0.397461 40.312V10.312Z" fill="url(#paint0_linear_2013_129)"></path></g><path d="M32.7719 32.6435C32.075 32.6435 31.4259 32.5547 30.8246 32.377C30.2233 32.1994 29.6903 31.926 29.2257 31.5571C28.761 31.1744 28.3715 30.6893 28.0572 30.1016C27.7566 29.514 27.5584 28.8239 27.4628 28.0313H30.7016C30.7699 28.2499 30.8929 28.4822 31.0705 28.7282C31.2482 28.9742 31.4874 29.1724 31.788 29.3227C32.1023 29.473 32.4781 29.5482 32.9154 29.5482C33.3937 29.5482 33.7764 29.4662 34.0634 29.3022C34.364 29.1245 34.5895 28.8922 34.7398 28.6052C34.8901 28.3046 34.9653 27.9834 34.9653 27.6418C34.9653 27.0542 34.7808 26.5759 34.4118 26.2069C34.0429 25.8242 33.4962 25.6329 32.7719 25.6329C32.362 25.6329 31.9793 25.7081 31.624 25.8584C31.2687 25.9951 30.9202 26.1864 30.5786 26.4324H27.8522L27.9957 17.9869H37.8146V21.0207H31.132L31.05 23.4191C31.4874 23.1457 31.9725 22.9613 32.5055 22.8656C33.0384 22.7699 33.5372 22.7289 34.0019 22.7426C34.9448 22.7836 35.7374 23.0023 36.3797 23.3986C37.022 23.7812 37.5071 24.3142 37.8351 24.9975C38.1631 25.6671 38.3271 26.4597 38.3271 27.3753C38.3271 28.5096 38.0811 29.473 37.5891 30.2656C37.1108 31.0583 36.448 31.6527 35.6008 32.049C34.7671 32.4453 33.8242 32.6435 32.7719 32.6435ZM43.0266 23.5011C42.275 23.5011 41.6737 23.3439 41.2227 23.0296C40.7854 22.7153 40.4711 22.3053 40.2798 21.7997C40.1021 21.294 40.0133 20.7542 40.0133 20.1803C40.0133 19.579 40.1089 19.0255 40.3003 18.5199C40.4916 18.0006 40.8127 17.5838 41.2637 17.2694C41.7147 16.9551 42.3091 16.798 43.0471 16.798C43.7987 16.798 44.3932 16.9551 44.8305 17.2694C45.2678 17.5838 45.5753 17.9937 45.7529 18.4994C45.9442 19.005 46.0399 19.5516 46.0399 20.1393C46.0399 20.7269 45.9442 21.2804 45.7529 21.7997C45.5616 22.3053 45.2404 22.7153 44.7895 23.0296C44.3522 23.3439 43.7645 23.5011 43.0266 23.5011ZM43.0266 21.7792C43.3546 21.7792 43.5937 21.6903 43.744 21.5127C43.908 21.335 44.0174 21.1164 44.072 20.8567C44.1267 20.5971 44.154 20.3579 44.154 20.1393C44.154 19.9206 44.1267 19.6883 44.072 19.4423C44.031 19.1827 43.9285 18.964 43.7645 18.7864C43.6142 18.6087 43.3751 18.5199 43.0471 18.5199C42.7328 18.5199 42.4936 18.6087 42.3296 18.7864C42.1656 18.964 42.0495 19.1827 41.9811 19.4423C41.9265 19.6883 41.8992 19.9479 41.8992 20.2213C41.8992 20.4263 41.9197 20.6517 41.9607 20.8977C42.0153 21.13 42.1178 21.335 42.2681 21.5127C42.4321 21.6903 42.6849 21.7792 43.0266 21.7792ZM54.2592 32.5V17.9869H60.1424C61.263 17.9869 62.2401 18.1509 63.0737 18.4789C63.921 18.8069 64.5769 19.3398 65.0416 20.0778C65.5199 20.8157 65.759 21.8133 65.759 23.0706C65.759 24.2322 65.5062 25.2025 65.0006 25.9814C64.4949 26.7604 63.8048 27.3412 62.9302 27.7238C62.0556 28.0928 61.058 28.2773 59.9374 28.2773H57.58V32.5H54.2592ZM57.58 25.3254H59.9374C60.7163 25.3254 61.3313 25.1341 61.7823 24.7515C62.2469 24.3688 62.4792 23.8085 62.4792 23.0706C62.4792 22.4146 62.2811 21.9158 61.8848 21.5742C61.5021 21.2325 60.8667 21.0617 59.9784 21.0617H57.58V25.3254ZM67.8116 32.5V17.9869H71.1324V32.5H67.8116ZM74.0373 32.5V17.9869H77.3581V29.4457H84.5122V32.5H74.0373ZM85.2325 32.5L90.9721 17.9869H94.4979L100.176 32.5H96.5888L95.7893 30.2451H89.6192L88.7993 32.5H85.2325ZM90.6647 27.2318H94.7439L92.735 21.6152L90.6647 27.2318ZM101.582 32.5V17.9869H107.568C108.251 17.9869 108.928 18.0552 109.597 18.1919C110.281 18.3149 110.903 18.5472 111.463 18.8888C112.023 19.2305 112.467 19.7156 112.795 20.3443C113.137 20.9592 113.308 21.7518 113.308 22.7221C113.308 23.3781 113.198 23.9862 112.98 24.5465C112.761 25.1068 112.433 25.5919 111.996 26.0019C111.572 26.4119 111.032 26.733 110.376 26.9653L113.677 32.5H109.905L107.097 27.4983H104.903V32.5H101.582ZM104.903 24.567H107.466C107.862 24.567 108.21 24.5328 108.511 24.4645C108.825 24.3825 109.092 24.2732 109.31 24.1365C109.529 23.9862 109.693 23.7949 109.802 23.5626C109.925 23.3302 109.994 23.0501 110.007 22.7221C110.007 22.2711 109.898 21.9295 109.679 21.6972C109.474 21.4649 109.194 21.3009 108.839 21.2052C108.484 21.1095 108.074 21.0617 107.609 21.0617H104.903V24.567Z" fill="white"></path></g><defs><linearGradient id="paint0_linear_2013_129" x1="0.397461" y1="28.3003" x2="140.388" y2="24.939" gradientUnits="userSpaceOnUse"><stop stop-color="#27BC70"></stop><stop offset="1" stop-color="#3CB960"></stop></linearGradient><clipPath id="clip0_2013_129"><rect width="141" height="51" fill="white"></rect></clipPath></defs></svg>