<svg xmlns="http://www.w3.org/2000/svg" width="141" height="51" viewBox="0 0 141 51" fill="none"><g clip-path="url(#clip0_2013_108)"><mask id="mask0_2013_108" style="mask-type:luminance" maskUnits="userSpaceOnUse" x="0" y="0" width="141" height="51"><path d="M141 0H0V51H141V0Z" fill="white"></path></mask><g mask="url(#mask0_2013_108)"><path d="M0.397461 10.312C0.397461 4.78916 4.87461 0.312012 10.3975 0.312012H130.397C135.92 0.312012 140.397 4.78916 140.397 10.312V40.312C140.397 45.8348 135.92 50.312 130.397 50.312H10.3975C4.87461 50.312 0.397461 45.8348 0.397461 40.312V10.312Z" fill="url(#paint0_linear_2013_108)"></path></g><path d="M27.4593 32.5V29.7737L31.4361 26.5144C31.7094 26.2821 32.0237 26.0292 32.379 25.7559C32.7343 25.4689 33.0691 25.1615 33.3835 24.8335C33.7114 24.4918 33.9848 24.1434 34.2034 23.788C34.4221 23.4327 34.5314 23.0638 34.5314 22.6811C34.5314 22.1755 34.3742 21.7587 34.0599 21.4307C33.7593 21.1027 33.281 20.9387 32.625 20.9387C31.9827 20.9387 31.4976 21.089 31.1696 21.3897C30.8416 21.6767 30.6503 22.032 30.5956 22.4556H27.4593C27.514 21.4034 27.7941 20.5356 28.2998 19.8523C28.8054 19.169 29.4545 18.6565 30.2472 18.3149C31.0398 17.9732 31.8734 17.8024 32.748 17.8024C33.6773 17.8024 34.5246 17.9801 35.2898 18.3354C36.0551 18.677 36.6633 19.1827 37.1142 19.8523C37.5789 20.5082 37.8112 21.3214 37.8112 22.2916C37.8112 23.0843 37.6609 23.8154 37.3602 24.485C37.0596 25.141 36.6428 25.7559 36.1098 26.3299C35.5768 26.9038 34.9687 27.4573 34.2854 27.9903L32.4405 29.4457H37.7292V32.5H27.4593ZM42.4561 23.5011C41.7044 23.5011 41.1031 23.3439 40.6522 23.0296C40.2149 22.7153 39.9006 22.3053 39.7092 21.7997C39.5316 21.294 39.4427 20.7542 39.4427 20.1803C39.4427 19.579 39.5384 19.0255 39.7297 18.5199C39.9211 18.0006 40.2422 17.5838 40.6932 17.2694C41.1441 16.9551 41.7386 16.798 42.4766 16.798C43.2282 16.798 43.8226 16.9551 44.26 17.2694C44.6973 17.5838 45.0047 17.9937 45.1824 18.4994C45.3737 19.005 45.4694 19.5516 45.4694 20.1393C45.4694 20.7269 45.3737 21.2804 45.1824 21.7997C44.9911 22.3053 44.6699 22.7153 44.219 23.0296C43.7816 23.3439 43.194 23.5011 42.4561 23.5011ZM42.4561 21.7792C42.784 21.7792 43.0232 21.6903 43.1735 21.5127C43.3375 21.335 43.4468 21.1164 43.5015 20.8567C43.5562 20.5971 43.5835 20.3579 43.5835 20.1393C43.5835 19.9206 43.5562 19.6883 43.5015 19.4423C43.4605 19.1827 43.358 18.964 43.194 18.7864C43.0437 18.6087 42.8045 18.5199 42.4766 18.5199C42.1622 18.5199 41.9231 18.6087 41.7591 18.7864C41.5951 18.964 41.479 19.1827 41.4106 19.4423C41.356 19.6883 41.3286 19.9479 41.3286 20.2213C41.3286 20.4263 41.3491 20.6517 41.3901 20.8977C41.4448 21.13 41.5473 21.335 41.6976 21.5127C41.8616 21.6903 42.1144 21.7792 42.4561 21.7792ZM53.6887 32.5V17.9869H59.5719C60.6925 17.9869 61.6696 18.1509 62.5032 18.4789C63.3505 18.8069 64.0064 19.3398 64.4711 20.0778C64.9494 20.8157 65.1885 21.8133 65.1885 23.0706C65.1885 24.2322 64.9357 25.2025 64.4301 25.9814C63.9244 26.7604 63.2343 27.3412 62.3597 27.7238C61.4851 28.0928 60.4875 28.2773 59.3669 28.2773H57.0095V32.5H53.6887ZM57.0095 25.3254H59.3669C60.1458 25.3254 60.7608 25.1341 61.2118 24.7515C61.6764 24.3688 61.9087 23.8085 61.9087 23.0706C61.9087 22.4146 61.7106 21.9158 61.3142 21.5742C60.9316 21.2325 60.2961 21.0617 59.4079 21.0617H57.0095V25.3254ZM67.2411 32.5V17.9869H70.5619V32.5H67.2411ZM73.4668 32.5V17.9869H76.7876V29.4457H83.9416V32.5H73.4668ZM84.662 32.5L90.4016 17.9869H93.9274L99.6055 32.5H96.0183L95.2188 30.2451H89.0487L88.2288 32.5H84.662ZM90.0941 27.2318H94.1734L92.1645 21.6152L90.0941 27.2318ZM101.012 32.5V17.9869H106.998C107.681 17.9869 108.357 18.0552 109.027 18.1919C109.71 18.3149 110.332 18.5472 110.892 18.8888C111.453 19.2305 111.897 19.7156 112.225 20.3443C112.566 20.9592 112.737 21.7518 112.737 22.7221C112.737 23.3781 112.628 23.9862 112.409 24.5465C112.191 25.1068 111.863 25.5919 111.425 26.0019C111.002 26.4119 110.462 26.733 109.806 26.9653L113.106 32.5H109.334L106.526 27.4983H104.333V32.5H101.012ZM104.333 24.567H106.895C107.291 24.567 107.64 24.5328 107.941 24.4645C108.255 24.3825 108.521 24.2732 108.74 24.1365C108.959 23.9862 109.123 23.7949 109.232 23.5626C109.355 23.3302 109.423 23.0501 109.437 22.7221C109.437 22.2711 109.328 21.9295 109.109 21.6972C108.904 21.4649 108.624 21.3009 108.268 21.2052C107.913 21.1095 107.503 21.0617 107.039 21.0617H104.333V24.567Z" fill="white"></path></g><defs><linearGradient id="paint0_linear_2013_108" x1="0.397461" y1="28.3003" x2="140.388" y2="24.939" gradientUnits="userSpaceOnUse"><stop stop-color="#27BC70"></stop><stop offset="1" stop-color="#3CB960"></stop></linearGradient><clipPath id="clip0_2013_108"><rect width="141" height="51" fill="white"></rect></clipPath></defs></svg>