<svg xmlns="http://www.w3.org/2000/svg" width="136" height="25" viewBox="0 0 136 25" fill="none"><path d="M23.716 22.0942C24.2284 19.9083 22.6193 16.2424 19.6947 12.3845C19.6811 12.364 19.6639 12.3469 19.6503 12.3263C19.5444 12.1859 19.435 12.0453 19.3223 11.9049C19.2984 11.8741 19.2745 11.8432 19.2472 11.809C19.1446 11.6822 19.0421 11.5519 18.9397 11.4252C18.8748 11.3464 18.8132 11.2676 18.7483 11.1923C18.6834 11.1168 18.6219 11.0381 18.557 10.9627C18.4546 10.8393 18.3486 10.716 18.2427 10.5927C18.1812 10.5241 18.1197 10.4522 18.0582 10.3837C17.9933 10.3117 17.9318 10.2398 17.8669 10.1678C17.2963 9.5237 16.6916 8.88301 16.0527 8.25261C15.3762 7.58108 14.8091 7.03632 14.2556 6.53953C16.9615 4.53524 19.5546 3.25043 21.5806 2.89412C21.403 3.79861 21.051 4.79905 20.542 5.86801L19.7699 4.93268V9.47231L21.7378 9.21877C21.7378 9.21535 21.748 9.21193 21.748 9.2085L23.2752 9.01663L22.3767 7.99907C23.3367 5.98793 23.8185 4.21318 23.6203 2.89754C23.6374 2.90097 23.6032 2.89412 23.6203 2.89754C23.5212 2.28769 23.2889 1.77719 22.9028 1.39689C22.8174 1.31124 22.7218 1.23586 22.6193 1.16391C22.5646 1.1228 22.5065 1.08854 22.4485 1.05085C22.4381 1.044 22.4279 1.03715 22.4142 1.03029C22.1922 0.896674 21.9461 0.79389 21.6729 0.725367C21.6729 0.735645 21.6729 0.715088 21.6729 0.725367C19.4829 0.218297 15.8102 1.76691 11.9597 4.70997C11.9461 4.72024 11.929 4.73396 11.9153 4.74423C11.7855 4.84359 11.6557 4.94638 11.5259 5.04916C11.478 5.08685 11.4336 5.12111 11.3857 5.1588C11.2628 5.25816 11.1398 5.35751 11.0167 5.45687C10.9416 5.51854 10.8665 5.58022 10.7913 5.64189C10.7092 5.7104 10.6273 5.77893 10.5453 5.85087C10.4291 5.94681 10.3164 6.04617 10.2002 6.14552C10.1285 6.20719 10.0567 6.27229 9.98498 6.33396C9.9064 6.40591 9.82441 6.47444 9.74582 6.54296C9.11719 7.10828 8.48855 7.70443 7.87016 8.33483C7.20053 9.01321 6.6573 9.58537 6.1619 10.1404C4.17008 7.44404 2.88889 4.85387 2.52674 2.82559C3.40819 3.01746 4.38191 3.31896 5.41369 3.81575L4.48098 4.5695H9.01128L8.75504 2.59604C8.76529 2.58576 8.77896 2.63716 8.7892 2.62687C8.77553 2.62003 8.76187 2.62345 8.7482 2.61659L8.55688 1.09539L7.5456 1.9999C5.57427 1.05085 3.83526 0.578043 2.53015 0.752776C2.20559 0.804168 1.91176 0.9001 1.64869 1.03372C1.37195 1.15706 1.12938 1.31809 0.920975 1.52708C0.613488 1.84229 0.408498 2.23972 0.292336 2.70225C-0.220141 4.89499 1.39929 8.57809 4.34091 12.4497C4.35115 12.4633 4.36482 12.4804 4.37507 12.4942C4.47073 12.6209 4.57323 12.7477 4.67231 12.8745C4.70989 12.9225 4.74747 12.9738 4.78847 13.0218C4.88413 13.1417 4.98321 13.265 5.08229 13.3849C5.14378 13.4604 5.20528 13.5391 5.2702 13.6145C5.33852 13.6967 5.40685 13.7789 5.47519 13.8612C5.57084 13.9777 5.66992 14.0907 5.769 14.2073C5.8305 14.2792 5.89542 14.3512 5.95691 14.4231C6.02525 14.5019 6.09699 14.5841 6.16532 14.6629C6.72904 15.2933 7.32352 15.9237 7.95216 16.5473C8.64229 17.2291 9.22651 17.7876 9.80049 18.298C7.08437 20.3195 4.47756 21.6145 2.44132 21.9778C2.62923 21.0733 2.98796 20.0728 3.49703 19.0073L4.30332 19.9426V15.403L2.28075 15.6565C2.2705 15.6462 2.29099 15.6325 2.28075 15.6222C2.27391 15.6359 2.26367 15.6497 2.25683 15.6634L0.733066 15.8553L1.63161 16.8693C0.671569 18.8839 0.189841 20.6587 0.387999 21.9743C0.487078 22.5841 0.7194 23.0947 1.10547 23.4749C1.19088 23.5606 1.28654 23.6359 1.38562 23.7079C1.44029 23.7491 1.50178 23.7867 1.56328 23.8244C1.57353 23.8313 1.58378 23.8382 1.59061 23.8415C1.81268 23.9752 2.05867 24.078 2.33199 24.1465C4.52882 24.657 8.2289 23.0947 12.0998 20.1208C12.1101 20.1139 12.1203 20.1037 12.134 20.0968C12.1955 20.0488 12.2569 20.0009 12.3185 19.9529C12.4381 19.857 12.561 19.7644 12.6806 19.6685C12.7763 19.5931 12.8719 19.5143 12.9676 19.4355C13.0599 19.3602 13.1521 19.2882 13.2409 19.2094C13.3366 19.1306 13.4289 19.0484 13.5245 18.9696C13.6168 18.8907 13.7124 18.8119 13.8046 18.7297C13.9037 18.6441 14.0028 18.555 14.1019 18.4659C14.1702 18.4043 14.2386 18.346 14.3068 18.2878C14.9219 17.7361 15.5334 17.1538 16.1381 16.5371C16.8146 15.8484 17.3681 15.2659 17.8738 14.6972C19.8313 17.3628 21.0955 19.9187 21.4679 21.9263C20.5898 21.7071 19.6195 21.2959 18.5878 20.8026L19.5205 19.8672H14.997L15.2533 22.0257C15.243 22.036 15.2294 22.1284 15.219 22.1388C15.2327 22.1457 15.2464 22.1628 15.2601 22.1695L15.4514 23.7011L16.4593 22.8C18.4306 23.7456 20.1696 24.2219 21.4747 24.0471C21.7993 23.9957 22.0965 23.8998 22.3596 23.7662C22.633 23.6428 22.8789 23.4818 23.0838 23.2728C23.3914 22.9576 23.5997 22.5602 23.716 22.0942ZM14.2488 14.3991C13.5177 15.1426 12.7763 15.8415 12.0314 16.4925C11.4233 15.958 10.8084 15.3721 10.0806 14.6526C9.32559 13.9057 8.61496 13.1451 7.95558 12.3845C8.47489 11.7952 9.04886 11.1923 9.75608 10.4727C10.5009 9.71556 11.2594 9.00293 12.0178 8.34169C12.6054 8.86246 13.2068 9.43805 13.9242 10.1473C14.6929 10.9079 15.4104 11.6787 16.08 12.4497C15.5471 13.056 14.9629 13.6727 14.2488 14.3991Z" fill="url(#paint0_linear_18_28)"></path><path d="M135.169 16.6303H133.729V15.4183L133.657 15.2263V12.9583C133.657 12.5343 133.521 12.2063 133.249 11.9743C132.977 11.7423 132.605 11.6263 132.133 11.6263C131.789 11.6263 131.465 11.6943 131.161 11.8303C130.865 11.9583 130.605 12.1423 130.381 12.3823L129.553 11.4223C129.873 11.1023 130.261 10.8543 130.717 10.6783C131.173 10.4943 131.669 10.4023 132.205 10.4023C132.789 10.4023 133.305 10.5023 133.753 10.7023C134.201 10.9023 134.549 11.1903 134.797 11.5663C135.045 11.9343 135.169 12.3863 135.169 12.9223V16.6303ZM131.677 16.8223C131.213 16.8223 130.805 16.7383 130.453 16.5703C130.101 16.4023 129.825 16.1703 129.625 15.8743C129.433 15.5783 129.337 15.2343 129.337 14.8423C129.337 14.4263 129.457 14.0743 129.697 13.7863C129.937 13.4903 130.277 13.2623 130.717 13.1023C131.165 12.9423 131.681 12.8623 132.265 12.8623H133.813V13.8943H132.385C131.953 13.8943 131.605 13.9703 131.341 14.1223C131.077 14.2743 130.945 14.4943 130.945 14.7823C130.945 15.0463 131.045 15.2543 131.245 15.4063C131.453 15.5583 131.721 15.6343 132.049 15.6343C132.361 15.6343 132.645 15.5703 132.901 15.4423C133.157 15.3063 133.365 15.1223 133.525 14.8903C133.685 14.6583 133.777 14.3943 133.801 14.0983L134.257 14.3143C134.257 14.8103 134.149 15.2463 133.933 15.6223C133.717 15.9983 133.413 16.2943 133.021 16.5103C132.637 16.7183 132.189 16.8223 131.677 16.8223Z" fill="black"></path><path d="M128.738 16.6303H127.154V13.1023C127.154 12.6383 127.058 12.2943 126.866 12.0703C126.674 11.8383 126.414 11.7223 126.086 11.7223C125.846 11.7223 125.618 11.7903 125.402 11.9263C125.194 12.0543 125.022 12.2623 124.886 12.5503C124.758 12.8303 124.694 13.1983 124.694 13.6543V16.6303H123.11V13.1023C123.11 12.6383 123.014 12.2943 122.822 12.0703C122.63 11.8383 122.366 11.7223 122.03 11.7223C121.79 11.7223 121.562 11.7903 121.346 11.9263C121.138 12.0543 120.966 12.2623 120.83 12.5503C120.702 12.8303 120.638 13.1983 120.638 13.6543V16.6303H119.054V10.5943H120.626V11.9143L120.542 11.9023C120.654 11.5103 120.814 11.2103 121.022 11.0023C121.238 10.7863 121.474 10.6343 121.73 10.5463C121.994 10.4503 122.254 10.4023 122.51 10.4023C123.014 10.4023 123.434 10.5383 123.77 10.8103C124.114 11.0823 124.342 11.4863 124.454 12.0223L124.298 12.0343C124.418 11.6183 124.594 11.2943 124.826 11.0623C125.066 10.8223 125.334 10.6543 125.63 10.5583C125.926 10.4543 126.218 10.4023 126.506 10.4023C127.21 10.4023 127.758 10.6223 128.15 11.0623C128.542 11.5023 128.738 12.1423 128.738 12.9823V16.6303Z" fill="black"></path><path d="M117.418 14.7463L118.258 15.7183C117.954 16.0623 117.562 16.3343 117.082 16.5343C116.61 16.7263 116.086 16.8223 115.51 16.8223C114.814 16.8223 114.202 16.6863 113.674 16.4143C113.146 16.1423 112.734 15.7663 112.438 15.2863C112.142 14.8063 111.994 14.2503 111.994 13.6183C111.994 12.9863 112.134 12.4303 112.414 11.9503C112.702 11.4623 113.09 11.0823 113.578 10.8103C114.074 10.5383 114.63 10.4023 115.246 10.4023C115.846 10.4023 116.378 10.5383 116.842 10.8103C117.314 11.0743 117.682 11.4423 117.946 11.9143C118.21 12.3863 118.342 12.9343 118.342 13.5583V13.6303H116.794V13.4623C116.794 13.0943 116.726 12.7743 116.59 12.5023C116.462 12.2303 116.282 12.0183 116.05 11.8663C115.826 11.7143 115.558 11.6383 115.246 11.6383C114.918 11.6383 114.63 11.7183 114.382 11.8783C114.134 12.0303 113.938 12.2543 113.794 12.5503C113.658 12.8383 113.59 13.1823 113.59 13.5823C113.59 14.0063 113.674 14.3703 113.842 14.6743C114.018 14.9703 114.254 15.1983 114.55 15.3583C114.854 15.5103 115.202 15.5863 115.594 15.5863C116.314 15.5863 116.922 15.3063 117.418 14.7463ZM118.342 14.0983H113.014V13.0903H118.15L118.342 13.5583V14.0983Z" fill="black"></path><path d="M111.899 10.4863V11.9263H111.575C111.199 11.9263 110.875 12.0023 110.603 12.1543C110.331 12.2983 110.115 12.5263 109.955 12.8383C109.803 13.1503 109.727 13.5543 109.727 14.0503V16.6303H108.143V10.5943H109.715V12.5503H109.523C109.595 12.0143 109.743 11.5983 109.967 11.3023C110.199 11.0063 110.467 10.7983 110.771 10.6783C111.083 10.5503 111.387 10.4863 111.683 10.4863H111.899Z" fill="black"></path><path d="M107.496 16.6303H105.984C105.44 16.6303 105.028 16.4943 104.748 16.2223C104.476 15.9423 104.34 15.5303 104.34 14.9863V8.99829H105.924V14.7103C105.924 14.9263 105.972 15.0863 106.068 15.1903C106.164 15.2863 106.316 15.3343 106.524 15.3343H107.496V16.6303ZM107.424 11.8663H103.284V10.5943H107.424V11.8663Z" fill="black"></path><path d="M98.5494 16.6303H96.7614L99.0654 13.4983L96.9534 10.5943H98.7294L100.061 12.5743L101.405 10.5943H103.193L101.069 13.4983L103.373 16.6303H101.573L100.061 14.4463L98.5494 16.6303Z" fill="black"></path><path d="M96.5677 16.6303H90.5317V8.05029H96.5677V9.41829H92.1517V15.2623H96.5677V16.6303ZM96.3397 12.9703H92.0317V11.6023H96.3397V12.9703Z" fill="black"></path><path d="M84.6089 16.8223C84.0089 16.8223 83.4729 16.6863 83.0009 16.4143C82.5289 16.1423 82.1569 15.7703 81.8849 15.2983C81.6209 14.8263 81.4889 14.2863 81.4889 13.6783C81.4889 13.0703 81.6209 12.5303 81.8849 12.0583C82.1569 11.5863 82.5289 11.2143 83.0009 10.9423C83.4729 10.6703 84.0089 10.5343 84.6089 10.5343C85.2169 10.5343 85.7529 10.6703 86.2169 10.9423C86.6889 11.2143 87.0569 11.5863 87.3209 12.0583C87.5929 12.5303 87.7289 13.0703 87.7289 13.6783C87.7289 14.2863 87.5929 14.8263 87.3209 15.2983C87.0569 15.7703 86.6889 16.1423 86.2169 16.4143C85.7529 16.6863 85.2169 16.8223 84.6089 16.8223ZM84.6089 16.0423C85.0409 16.0423 85.4209 15.9423 85.7489 15.7423C86.0769 15.5423 86.3329 15.2663 86.5169 14.9143C86.7009 14.5543 86.7929 14.1423 86.7929 13.6783C86.7929 13.2143 86.7009 12.8063 86.5169 12.4543C86.3329 12.0943 86.0769 11.8143 85.7489 11.6143C85.4209 11.4143 85.0409 11.3143 84.6089 11.3143C84.1769 11.3143 83.7969 11.4143 83.4689 11.6143C83.1409 11.8143 82.8849 12.0943 82.7009 12.4543C82.5169 12.8063 82.4249 13.2143 82.4249 13.6783C82.4249 14.1423 82.5169 14.5543 82.7009 14.9143C82.8849 15.2663 83.1409 15.5423 83.4689 15.7423C83.7969 15.9423 84.1769 16.0423 84.6089 16.0423Z" fill="black"></path><path d="M80.6512 16.6303H79.7992V15.4783L79.7872 15.1423V12.9343C79.7872 12.4383 79.6272 12.0423 79.3072 11.7463C78.9872 11.4503 78.5552 11.3023 78.0112 11.3023C77.6192 11.3023 77.2632 11.3863 76.9432 11.5543C76.6312 11.7223 76.3552 11.9503 76.1152 12.2383L75.4912 11.6383C75.8192 11.2863 76.1872 11.0143 76.5952 10.8223C77.0112 10.6303 77.4832 10.5343 78.0112 10.5343C78.5392 10.5343 78.9992 10.6343 79.3912 10.8343C79.7912 11.0263 80.0992 11.2983 80.3152 11.6503C80.5392 12.0023 80.6512 12.4183 80.6512 12.8983V16.6303ZM77.5432 16.8223C77.0952 16.8223 76.6992 16.7423 76.3552 16.5823C76.0192 16.4143 75.7552 16.1903 75.5632 15.9103C75.3792 15.6303 75.2872 15.3103 75.2872 14.9503C75.2872 14.5343 75.4032 14.1823 75.6352 13.8943C75.8672 13.5983 76.1832 13.3743 76.5832 13.2223C76.9912 13.0703 77.4512 12.9943 77.9632 12.9943H79.9072V13.7143H78.0832C77.5472 13.7143 77.0992 13.8143 76.7392 14.0143C76.3872 14.2063 76.2112 14.5103 76.2112 14.9263C76.2112 15.2783 76.3432 15.5583 76.6072 15.7663C76.8712 15.9743 77.2192 16.0783 77.6512 16.0783C78.0672 16.0783 78.4432 15.9983 78.7792 15.8383C79.1152 15.6703 79.3832 15.4383 79.5832 15.1423C79.7912 14.8463 79.9072 14.5063 79.9312 14.1223L80.2912 14.3263C80.2912 14.8063 80.1712 15.2343 79.9312 15.6103C79.6992 15.9863 79.3752 16.2823 78.9592 16.4983C78.5432 16.7143 78.0712 16.8223 77.5432 16.8223ZM79.3072 7.99026L79.9672 8.29026C79.8872 8.73026 79.7432 9.03826 79.5352 9.21426C79.3352 9.38227 79.1152 9.46627 78.8752 9.46627C78.6992 9.46627 78.5272 9.43026 78.3592 9.35826C78.1912 9.28626 78.0232 9.18626 77.8552 9.05826C77.6952 8.93026 77.5672 8.84227 77.4712 8.79426C77.3832 8.73827 77.2952 8.71027 77.2072 8.71027C77.0872 8.71027 76.9792 8.77426 76.8832 8.90226C76.7952 9.02226 76.7352 9.21027 76.7032 9.46627L76.0432 9.16626C76.1232 8.72626 76.2632 8.42226 76.4632 8.25427C76.6712 8.07826 76.8952 7.99026 77.1352 7.99026C77.3192 7.99026 77.4912 8.02626 77.6512 8.09826C77.8192 8.17026 77.9872 8.27026 78.1552 8.39826C78.3152 8.52626 78.4432 8.61827 78.5392 8.67426C78.6352 8.72227 78.7232 8.74627 78.8032 8.74627C78.9232 8.74627 79.0272 8.68626 79.1152 8.56626C79.2112 8.43826 79.2752 8.24626 79.3072 7.99026Z" fill="black"></path><path d="M69.4592 15.7183L70.0832 15.1183C70.3632 15.4143 70.6792 15.6463 71.0312 15.8143C71.3832 15.9823 71.7792 16.0663 72.2192 16.0663C72.6992 16.0663 73.0912 15.9663 73.3952 15.7663C73.7072 15.5583 73.8632 15.2943 73.8632 14.9743C73.8632 14.6943 73.7312 14.4783 73.4672 14.3263C73.2112 14.1663 72.7752 14.0423 72.1592 13.9543C71.2632 13.8263 70.6312 13.6343 70.2632 13.3783C69.9032 13.1143 69.7232 12.7623 69.7232 12.3223C69.7232 11.9623 69.8272 11.6503 70.0352 11.3863C70.2432 11.1143 70.5312 10.9063 70.8992 10.7623C71.2672 10.6103 71.6872 10.5343 72.1592 10.5343C72.6872 10.5343 73.1592 10.6303 73.5752 10.8223C73.9912 11.0143 74.3592 11.2863 74.6792 11.6383L74.0552 12.2383C73.8152 11.9423 73.5392 11.7103 73.2272 11.5423C72.9152 11.3743 72.5592 11.2903 72.1592 11.2903C71.7192 11.2903 71.3552 11.3823 71.0672 11.5663C70.7792 11.7503 70.6352 11.9943 70.6352 12.2983C70.6352 12.5223 70.7552 12.7023 70.9952 12.8383C71.2432 12.9663 71.6592 13.0703 72.2432 13.1503C73.1712 13.2783 73.8232 13.4863 74.1992 13.7743C74.5832 14.0543 74.7752 14.4463 74.7752 14.9503C74.7752 15.3183 74.6632 15.6463 74.4392 15.9343C74.2232 16.2143 73.9232 16.4343 73.5392 16.5943C73.1552 16.7463 72.7152 16.8223 72.2192 16.8223C71.6432 16.8223 71.1272 16.7263 70.6712 16.5343C70.2232 16.3343 69.8192 16.0623 69.4592 15.7183Z" fill="black"></path><path d="M69.2401 10.6303V11.4943H69.0001C68.6481 11.4943 68.3161 11.5863 68.0041 11.7703C67.6921 11.9543 67.4401 12.2423 67.2481 12.6343C67.0561 13.0263 66.9601 13.5343 66.9601 14.1583V16.6303H66.0721V10.7263H66.9481V12.5983H66.7921C66.8881 12.1183 67.0561 11.7343 67.2961 11.4463C67.5361 11.1583 67.8121 10.9503 68.1241 10.8223C68.4441 10.6943 68.7721 10.6303 69.1081 10.6303H69.2401Z" fill="black"></path><path d="M64.337 14.9503L64.961 15.5383C64.649 15.9383 64.273 16.2543 63.833 16.4863C63.393 16.7103 62.889 16.8223 62.321 16.8223C61.697 16.8223 61.137 16.6863 60.641 16.4143C60.153 16.1423 59.769 15.7703 59.489 15.2983C59.209 14.8263 59.069 14.2863 59.069 13.6783C59.069 13.0703 59.201 12.5303 59.465 12.0583C59.737 11.5863 60.109 11.2143 60.581 10.9423C61.053 10.6703 61.589 10.5343 62.189 10.5343C62.765 10.5343 63.273 10.6703 63.713 10.9423C64.161 11.2063 64.513 11.5703 64.769 12.0343C65.025 12.4983 65.153 13.0343 65.153 13.6423V13.7143H64.241V13.6423C64.241 13.1783 64.149 12.7743 63.965 12.4303C63.789 12.0783 63.545 11.8063 63.233 11.6143C62.929 11.4143 62.581 11.3143 62.189 11.3143C61.757 11.3143 61.377 11.4143 61.049 11.6143C60.721 11.8143 60.465 12.0903 60.281 12.4423C60.097 12.7943 60.005 13.2023 60.005 13.6663C60.005 14.1303 60.105 14.5423 60.305 14.9023C60.505 15.2623 60.777 15.5423 61.121 15.7423C61.473 15.9423 61.877 16.0423 62.333 16.0423C63.165 16.0423 63.833 15.6783 64.337 14.9503ZM65.153 13.9903H59.813V13.2583H64.961L65.153 13.6423V13.9903Z" fill="black"></path><path d="M56.4341 16.6303H55.5581L53.0141 10.7263H53.9741L56.2061 16.1623H55.8221L58.0661 10.7263H58.9781L56.4341 16.6303Z" fill="black"></path><path d="M52.7327 16.6303H51.8447V13.2223C51.8447 12.5903 51.7007 12.1143 51.4127 11.7943C51.1247 11.4743 50.7367 11.3143 50.2487 11.3143C49.8967 11.3143 49.5647 11.4063 49.2527 11.5903C48.9407 11.7743 48.6887 12.0623 48.4967 12.4543C48.3047 12.8463 48.2087 13.3543 48.2087 13.9783V16.6303H47.3207V10.7263H48.1967V12.5143H48.0407C48.1367 12.0263 48.3007 11.6383 48.5327 11.3503C48.7727 11.0623 49.0527 10.8543 49.3727 10.7263C49.7007 10.5983 50.0447 10.5343 50.4047 10.5343C51.1247 10.5343 51.6927 10.7583 52.1087 11.2063C52.5247 11.6463 52.7327 12.2863 52.7327 13.1263V16.6303Z" fill="black"></path><path d="M43.2736 16.8223C42.6736 16.8223 42.1376 16.6863 41.6656 16.4143C41.1936 16.1423 40.8216 15.7703 40.5496 15.2983C40.2856 14.8263 40.1536 14.2863 40.1536 13.6783C40.1536 13.0703 40.2856 12.5303 40.5496 12.0583C40.8216 11.5863 41.1936 11.2143 41.6656 10.9423C42.1376 10.6703 42.6736 10.5343 43.2736 10.5343C43.8816 10.5343 44.4176 10.6703 44.8816 10.9423C45.3536 11.2143 45.7216 11.5863 45.9856 12.0583C46.2576 12.5303 46.3936 13.0703 46.3936 13.6783C46.3936 14.2863 46.2576 14.8263 45.9856 15.2983C45.7216 15.7703 45.3536 16.1423 44.8816 16.4143C44.4176 16.6863 43.8816 16.8223 43.2736 16.8223ZM43.2736 16.0423C43.7056 16.0423 44.0856 15.9423 44.4136 15.7423C44.7416 15.5423 44.9976 15.2663 45.1816 14.9143C45.3656 14.5543 45.4576 14.1423 45.4576 13.6783C45.4576 13.2143 45.3656 12.8063 45.1816 12.4543C44.9976 12.0943 44.7416 11.8143 44.4136 11.6143C44.0856 11.4143 43.7056 11.3143 43.2736 11.3143C42.8416 11.3143 42.4616 11.4143 42.1336 11.6143C41.8056 11.8143 41.5496 12.0943 41.3656 12.4543C41.1816 12.8063 41.0896 13.2143 41.0896 13.6783C41.0896 14.1423 41.1816 14.5543 41.3656 14.9143C41.5496 15.2663 41.8056 15.5423 42.1336 15.7423C42.4616 15.9423 42.8416 16.0423 43.2736 16.0423Z" fill="black"></path><path d="M38.9025 14.5543L39.5745 15.1903C39.2065 15.6943 38.7225 16.0943 38.1225 16.3903C37.5305 16.6783 36.8785 16.8223 36.1665 16.8223C35.5505 16.8223 34.9785 16.7103 34.4505 16.4863C33.9305 16.2623 33.4745 15.9503 33.0825 15.5503C32.6985 15.1423 32.3985 14.6663 32.1825 14.1223C31.9665 13.5783 31.8585 12.9863 31.8585 12.3463C31.8585 11.7063 31.9665 11.1143 32.1825 10.5703C32.4065 10.0183 32.7145 9.54228 33.1065 9.14228C33.4985 8.73428 33.9545 8.41828 34.4745 8.19428C35.0025 7.97028 35.5745 7.85828 36.1905 7.85828C36.9025 7.85828 37.5505 8.00628 38.1345 8.30228C38.7265 8.59028 39.2065 8.98628 39.5745 9.49028L38.9025 10.1263C38.6065 9.68628 38.2305 9.33828 37.7745 9.08228C37.3185 8.82628 36.7905 8.69828 36.1905 8.69828C35.5505 8.69828 34.9745 8.85828 34.4625 9.17828C33.9585 9.49028 33.5585 9.92228 33.2625 10.4743C32.9665 11.0183 32.8185 11.6423 32.8185 12.3463C32.8185 13.0423 32.9665 13.6663 33.2625 14.2183C33.5585 14.7623 33.9585 15.1943 34.4625 15.5143C34.9745 15.8263 35.5505 15.9823 36.1905 15.9823C36.7905 15.9823 37.3185 15.8543 37.7745 15.5983C38.2305 15.3423 38.6065 14.9943 38.9025 14.5543Z" fill="black"></path><defs><linearGradient id="paint0_linear_18_28" x1="2.06523" y1="12.4362" x2="24.2391" y2="12.4362" gradientUnits="userSpaceOnUse"><stop stop-color="#27BC70"></stop><stop offset="1" stop-color="#3EB95F"></stop></linearGradient></defs></svg>