<svg xmlns="http://www.w3.org/2000/svg" width="311" height="65" viewBox="0 0 311 65" fill="none"><path fill-rule="evenodd" clip-rule="evenodd" d="M49.3136 34.5117C56.7165 44.2694 60.7983 53.5429 59.4962 59.0748C59.2036 60.2486 58.6916 61.2464 57.9454 62.0828C57.4334 62.611 56.8189 63.0219 56.1167 63.33C55.4437 63.6675 54.6975 63.9023 53.8783 64.0343C50.5865 64.4745 46.1828 63.2713 41.1939 60.8796L38.6336 63.1539L38.1509 59.2802C38.1362 59.2729 38.1179 59.2582 38.0996 59.2435C38.0814 59.2288 38.0631 59.2142 38.0484 59.2068C38.0631 59.1922 38.0777 59.1261 38.0923 59.0601C38.107 58.9941 38.1216 58.928 38.1362 58.9134L37.4925 53.4549H48.9479L46.5924 55.832C49.1966 57.0939 51.6545 58.121 53.8783 58.6786C52.9273 53.587 49.7379 47.1161 44.7783 40.381C43.5055 41.819 42.101 43.301 40.3893 45.0324C38.8531 46.5878 37.3023 48.0698 35.7515 49.4638C35.5906 49.6252 35.4151 49.7719 35.2395 49.9186C34.9761 50.1387 34.7274 50.3588 34.4787 50.5789C34.4411 50.61 34.4039 50.6407 34.3669 50.6711C34.1592 50.8423 33.9605 51.0062 33.7618 51.1805C33.5277 51.3713 33.279 51.5767 33.0449 51.7822L32.3427 52.3544C32.2183 52.4498 32.0976 52.5488 31.9769 52.6479C31.8562 52.7469 31.7355 52.846 31.6112 52.9413C31.304 53.1907 30.9968 53.4255 30.6897 53.6602C30.6092 53.7189 30.5322 53.7814 30.4554 53.8437C30.3786 53.9061 30.3018 53.9685 30.2213 54.0272C30.2067 54.0345 30.1921 54.0455 30.1774 54.0565C30.1628 54.0675 30.1482 54.0785 30.1335 54.0859C20.3313 61.6132 10.9827 65.5604 5.42321 64.2691C4.73559 64.093 4.12113 63.8289 3.55055 63.4914C3.53592 63.4841 3.52495 63.4767 3.51398 63.4694C3.50301 63.4621 3.49203 63.4547 3.4774 63.4474C3.31647 63.3594 3.17017 63.2566 3.02387 63.1539C2.76052 62.9779 2.52644 62.7871 2.30699 62.567C1.32677 61.5986 0.741569 60.3073 0.492856 58.7666C-0.00456861 55.4358 1.20973 50.9458 3.63833 45.8542L1.35603 43.2717L5.21839 42.7874C5.2257 42.7728 5.23668 42.7544 5.24765 42.7361C5.25862 42.7177 5.26959 42.6994 5.27691 42.6847C5.29154 42.6994 5.28422 42.7141 5.27691 42.7287C5.26959 42.7434 5.26228 42.7581 5.27691 42.7728L10.3975 42.1271V53.6163L8.34924 51.2686C7.06178 53.9685 6.16935 56.4923 5.68655 58.7813C10.8364 57.8569 17.4346 54.5701 24.3107 49.4638C22.8477 48.1725 21.3701 46.7639 19.6291 45.0324C18.0344 43.4477 16.5275 41.863 15.1084 40.2636C14.9328 40.0729 14.7573 39.8675 14.5817 39.662C14.5012 39.574 14.4208 39.4823 14.3403 39.3906C14.2598 39.2989 14.1794 39.2072 14.0989 39.1191L13.3528 38.2387L12.8261 37.6225C12.7974 37.5858 12.7691 37.5496 12.7412 37.5138C12.6125 37.349 12.4901 37.1922 12.3579 37.0355L11.6118 36.1111C11.5606 36.0524 11.513 35.9901 11.4655 35.9277C11.4179 35.8653 11.3704 35.803 11.3192 35.7443L10.573 34.7758C10.5584 34.7538 10.5438 34.7355 10.5291 34.7171C10.5145 34.6988 10.4999 34.6805 10.4853 34.6584C3.0385 24.8714 -1.05794 15.5539 0.244144 10.0074C0.536747 8.83347 1.06343 7.82102 1.83883 7.02866C2.36551 6.50042 2.97998 6.08957 3.68222 5.78143C4.34058 5.44395 5.08672 5.20918 5.906 5.07712C9.21242 4.63692 13.6161 5.82545 18.605 8.2172L21.1653 5.92817L21.6481 9.78724C21.6546 9.79049 21.6618 9.79303 21.6694 9.79516L22.3064 14.7321H10.851L13.2065 12.8246C10.6023 11.5627 8.12979 10.7997 5.906 10.3155C6.8277 15.4511 10.061 21.9954 15.0938 28.8478C16.3373 27.4392 17.7272 26.0012 19.4096 24.2844C20.9897 22.6851 22.5698 21.1737 24.1644 19.7504C24.3546 19.5743 24.5594 19.3982 24.7643 19.2222C24.8521 19.1415 24.9435 19.0607 25.035 18.98C25.1264 18.8993 25.2178 18.8186 25.3056 18.738L26.1834 17.9896C26.4028 17.8135 26.6076 17.6375 26.8124 17.4614C26.9075 17.3807 27.0027 17.3036 27.0978 17.2266C27.1929 17.1496 27.288 17.0725 27.3831 16.9918C27.7049 16.7277 28.0122 16.4783 28.3194 16.2288C28.4364 16.1261 28.5535 16.0381 28.6705 15.95C28.9924 15.6859 29.3289 15.4218 29.6507 15.1723C29.6727 15.1577 29.691 15.143 29.7093 15.1283C29.7275 15.1137 29.7458 15.099 29.7678 15.0843C39.5115 7.63027 48.8016 3.72718 54.3025 5.0331C54.9901 5.1945 55.6192 5.45862 56.1752 5.79611C56.1898 5.80344 56.2044 5.81445 56.2191 5.82546C56.2337 5.83646 56.2483 5.84746 56.263 5.8548C56.2941 5.87353 56.3259 5.89225 56.3579 5.91112C56.4764 5.98096 56.5982 6.05273 56.7019 6.13359C56.9506 6.30967 57.1993 6.50042 57.4187 6.72052C58.399 7.68896 58.9842 8.98021 59.2329 10.5209C59.7449 13.8517 58.516 18.3418 56.0874 23.4334L58.3551 26.0012L54.4927 26.4854C54.4927 26.4928 54.4854 26.4964 54.4781 26.5001C54.4708 26.5038 54.4635 26.5074 54.4635 26.5148L49.4892 27.1604V15.6712L51.4496 18.0336C52.7371 15.3338 53.6295 12.7953 54.0831 10.5062C48.9479 11.416 42.3936 14.6588 35.5467 19.7357C36.9512 20.983 38.3849 22.3769 40.0967 24.0643C41.7206 25.6637 43.2421 27.2778 44.6905 28.9065C44.771 28.9946 44.8515 29.0863 44.932 29.178C45.0124 29.2697 45.0929 29.3614 45.1733 29.4494C45.3343 29.6255 45.4952 29.8016 45.6415 29.9777C45.7732 30.1318 45.9049 30.2896 46.0366 30.4473C46.1682 30.605 46.2999 30.7627 46.4315 30.9168C46.5924 31.1222 46.7534 31.3129 46.9143 31.5037C46.9948 31.5991 47.0753 31.6981 47.1557 31.7972C47.2362 31.8962 47.3166 31.9953 47.3971 32.0906C47.6604 32.4133 47.9238 32.7363 48.1725 33.0591C48.2237 33.1104 48.2677 33.1689 48.3095 33.2245C48.3275 33.2484 48.3451 33.2718 48.3627 33.2938C48.6553 33.6607 48.9333 34.0128 49.1966 34.365C49.2185 34.387 49.2368 34.4127 49.2551 34.4384C49.2734 34.464 49.2917 34.4897 49.3136 34.5117ZM21.7234 9.80714C21.7156 9.80518 21.7074 9.80355 21.6993 9.80191C21.6891 9.79987 21.6789 9.79783 21.6694 9.79516L21.6627 9.74322C21.6773 9.72854 21.6919 9.75422 21.7066 9.7799C21.7122 9.78974 21.7178 9.79957 21.7234 9.80714ZM21.7505 9.81658C21.7424 9.81252 21.7331 9.80958 21.7234 9.80714C21.7324 9.81933 21.7414 9.82564 21.7505 9.81658ZM33.1859 30.4058L30.0048 23.7842L26.8238 30.4058L19.5432 31.385L24.8577 36.4566L23.5392 43.6833L30.0048 40.1962L36.4705 43.6833L35.152 36.4566L40.4665 31.385L33.1859 30.4058Z" fill="url(#paint0_linear_432_6)"></path><path d="M99.2845 39.7433V11.6651H102.309V39.7433H99.2845ZM82.8695 39.7433H79.8457V11.6651H82.8695V39.7433ZM82.4768 26.5092V23.7996H99.6772V26.5092H82.4768ZM124.778 39.7433H121.99V35.9734L121.951 34.8737V27.648C121.951 26.0249 121.427 24.7291 120.38 23.7604C119.333 22.7917 117.919 22.3073 116.139 22.3073C114.856 22.3073 113.691 22.5823 112.644 23.1321C111.623 23.6818 110.72 24.428 109.934 25.3705L107.892 23.407C108.966 22.255 110.17 21.3649 111.505 20.7366C112.867 20.1083 114.411 19.794 116.139 19.794C117.867 19.794 119.372 20.1213 120.655 20.7758C121.964 21.4041 122.972 22.2943 123.679 23.4462C124.412 24.5982 124.778 25.9595 124.778 27.5303V39.7433ZM114.607 40.3717C113.141 40.3717 111.845 40.1099 110.72 39.5863C109.62 39.0365 108.756 38.3034 108.128 37.3871C107.526 36.4708 107.225 35.4235 107.225 34.2454C107.225 32.8841 107.604 31.7321 108.364 30.7897C109.123 29.821 110.157 29.0879 111.466 28.5905C112.801 28.0931 114.306 27.8445 115.982 27.8445H122.344V30.2006H116.375C114.621 30.2006 113.154 30.5278 111.976 31.1824C110.824 31.8107 110.249 32.8056 110.249 34.167C110.249 35.3189 110.68 36.2351 111.544 36.9158C112.408 37.5965 113.547 37.9368 114.961 37.9368C116.322 37.9368 117.553 37.675 118.652 37.1514C119.752 36.6016 120.629 35.8424 121.283 34.8737C121.964 33.9051 122.344 32.7925 122.422 31.5359L123.6 32.2034C123.6 33.7742 123.208 35.1748 122.422 36.4053C121.663 37.6358 120.603 38.6044 119.241 39.3113C117.88 40.0181 116.335 40.3717 114.607 40.3717ZM132.9 39.7433H129.994V11.4688H132.9V39.7433ZM141.298 39.7433H138.392V11.4688H141.298V39.7433ZM173.821 39.7433H170.954V34.481L170.915 34.4418V30.6718C170.915 29.0225 170.614 27.5827 170.012 26.3522C169.41 25.0956 168.559 24.1138 167.459 23.407C166.386 22.7001 165.142 22.3467 163.729 22.3467C162.341 22.3467 161.111 22.687 160.037 23.3677C158.964 24.0222 158.126 24.9384 157.524 26.1165C156.922 27.2684 156.621 28.5906 156.621 30.0829C156.621 31.5752 156.922 32.9102 157.524 34.0883C158.152 35.2403 159.003 36.1566 160.077 36.8373C161.176 37.4918 162.433 37.819 163.846 37.819C165.182 37.819 166.386 37.5442 167.459 36.9944C168.559 36.4447 169.449 35.6853 170.13 34.7167C170.81 33.7218 171.203 32.6092 171.308 31.3787L171.858 32.1642C172.067 33.7088 171.831 35.1095 171.151 36.3661C170.47 37.5966 169.462 38.5782 168.127 39.3113C166.818 40.0181 165.286 40.3717 163.532 40.3717C161.595 40.3717 159.867 39.9265 158.349 39.0364C156.856 38.1463 155.678 36.9289 154.814 35.3843C153.977 33.8396 153.558 32.0726 153.558 30.0829C153.558 28.1194 153.977 26.3652 154.814 24.8206C155.678 23.276 156.843 22.0586 158.309 21.1685C159.802 20.2522 161.49 19.794 163.375 19.794C164.789 19.794 166.072 20.069 167.224 20.6188C168.402 21.1424 169.384 21.8885 170.169 22.8572C170.954 23.8258 171.452 24.9647 171.661 26.2737H170.915V11.4688H173.821V39.7433ZM195.687 39.7433H192.899V35.9734L192.86 34.8737V27.648C192.86 26.0249 192.336 24.7291 191.289 23.7604C190.242 22.7917 188.828 22.3073 187.048 22.3073C185.765 22.3073 184.6 22.5823 183.553 23.1321C182.532 23.6818 181.628 24.428 180.843 25.3705L178.801 23.407C179.874 22.255 181.079 21.3649 182.414 20.7366C183.775 20.1083 185.32 19.794 187.048 19.794C188.776 19.794 190.281 20.1213 191.564 20.7758C192.873 21.4041 193.881 22.2943 194.588 23.4462C195.321 24.5982 195.687 25.9595 195.687 27.5303V39.7433ZM185.516 40.3717C184.05 40.3717 182.754 40.1099 181.628 39.5863C180.529 39.0365 179.665 38.3034 179.037 37.3871C178.435 36.4708 178.133 35.4235 178.133 34.2454C178.133 32.8841 178.513 31.7321 179.272 30.7897C180.032 29.821 181.066 29.0879 182.375 28.5905C183.71 28.0931 185.215 27.8445 186.891 27.8445H193.252V30.2006H187.283C185.529 30.2006 184.063 30.5278 182.885 31.1824C181.733 31.8107 181.157 32.8056 181.157 34.167C181.157 35.3189 181.589 36.2351 182.453 36.9158C183.317 37.5965 184.456 37.9368 185.87 37.9368C187.231 37.9368 188.462 37.675 189.561 37.1514C190.661 36.6016 191.538 35.8424 192.192 34.8737C192.873 33.9051 193.252 32.7925 193.331 31.5359L194.509 32.2034C194.509 33.7742 194.116 35.1748 193.331 36.4053C192.572 37.6358 191.511 38.6044 190.15 39.3113C188.789 40.0181 187.244 40.3717 185.516 40.3717ZM213.913 39.7433H208.612V11.6651H227.579V16.1419H213.913V39.7433ZM226.833 27.7659H213.52V23.2891H226.833V27.7659ZM249.142 39.7433H244.429V35.7771L244.194 35.1486V27.7267C244.194 26.3391 243.749 25.2656 242.858 24.5064C241.968 23.7472 240.751 23.3677 239.206 23.3677C238.081 23.3677 237.02 23.5902 236.025 24.0353C235.057 24.4542 234.206 25.0562 233.473 25.8416L230.763 22.7C231.81 21.6528 233.08 20.8413 234.572 20.2653C236.065 19.6632 237.688 19.3621 239.442 19.3621C241.353 19.3621 243.042 19.6894 244.508 20.3439C245.974 20.9984 247.113 21.9409 247.924 23.1713C248.736 24.3756 249.142 25.8547 249.142 27.6088V39.7433ZM237.714 40.3717C236.196 40.3717 234.86 40.0967 233.708 39.5469C232.557 38.9971 231.653 38.2379 230.999 37.2692C230.37 36.3006 230.056 35.1748 230.056 33.892C230.056 32.5306 230.449 31.3787 231.234 30.4362C232.02 29.4676 233.132 28.7214 234.572 28.1978C236.038 27.6742 237.727 27.4124 239.638 27.4124H244.704V30.7897H240.031C238.617 30.7897 237.478 31.0385 236.614 31.5359C235.75 32.0333 235.319 32.7532 235.319 33.6956C235.319 34.5596 235.646 35.2403 236.3 35.7377C236.981 36.2351 237.858 36.4838 238.931 36.4838C239.952 36.4838 240.882 36.2744 241.72 35.8555C242.557 35.4104 243.238 34.8083 243.762 34.0491C244.285 33.2899 244.586 32.4259 244.665 31.4572L246.157 32.1642C246.157 33.7874 245.804 35.2141 245.097 36.4446C244.39 37.675 243.395 38.6438 242.112 39.3507C240.856 40.0313 239.39 40.3717 237.714 40.3717ZM285.122 39.7433H279.938V28.1978C279.938 26.6794 279.624 25.5536 278.996 24.8206C278.367 24.0614 277.516 23.6818 276.443 23.6818C275.658 23.6818 274.911 23.9044 274.205 24.3494C273.524 24.7683 272.961 25.4489 272.516 26.3914C272.097 27.3077 271.888 28.512 271.888 30.0042V39.7433H266.704V28.1978C266.704 26.6794 266.39 25.5536 265.761 24.8206C265.133 24.0614 264.269 23.6818 263.17 23.6818C262.384 23.6818 261.638 23.9044 260.931 24.3494C260.251 24.7683 259.688 25.4489 259.243 26.3914C258.824 27.3077 258.614 28.512 258.614 30.0042V39.7433H253.431V19.9905H258.575V24.3101L258.3 24.2709C258.667 22.9881 259.19 22.0062 259.871 21.3255C260.578 20.6187 261.35 20.1214 262.188 19.8334C263.052 19.5192 263.903 19.3621 264.74 19.3621C266.39 19.3621 267.764 19.8071 268.864 20.6972C269.99 21.5873 270.736 22.9095 271.102 24.6636L270.592 24.7028C270.984 23.3414 271.56 22.2812 272.32 21.522C273.105 20.7366 273.982 20.1868 274.951 19.8726C275.919 19.5323 276.875 19.3621 277.817 19.3621C280.121 19.3621 281.915 20.0821 283.197 21.522C284.48 22.9619 285.122 25.0562 285.122 27.8051V39.7433ZM307.74 39.7433H303.028V35.7771L302.792 35.1486V27.7267C302.792 26.3391 302.347 25.2656 301.457 24.5064C300.567 23.7472 299.349 23.3677 297.805 23.3677C296.679 23.3677 295.619 23.5902 294.624 24.0353C293.655 24.4542 292.804 25.0562 292.071 25.8416L289.362 22.7C290.409 21.6528 291.679 20.8413 293.171 20.2653C294.663 19.6632 296.286 19.3621 298.04 19.3621C299.951 19.3621 301.64 19.6894 303.106 20.3439C304.572 20.9984 305.711 21.9409 306.523 23.1713C307.334 24.3756 307.74 25.8547 307.74 27.6088V39.7433ZM296.312 40.3717C294.794 40.3717 293.459 40.0967 292.307 39.5469C291.155 38.9971 290.252 38.2379 289.597 37.2692C288.969 36.3006 288.655 35.1748 288.655 33.892C288.655 32.5306 289.047 31.3787 289.833 30.4362C290.618 29.4676 291.731 28.7214 293.171 28.1978C294.637 27.6742 296.326 27.4124 298.237 27.4124H303.303V30.7897H298.629C297.216 30.7897 296.077 31.0385 295.213 31.5359C294.349 32.0333 293.917 32.7532 293.917 33.6956C293.917 34.5596 294.244 35.2403 294.899 35.7377C295.579 36.2351 296.456 36.4838 297.53 36.4838C298.551 36.4838 299.48 36.2744 300.318 35.8555C301.156 35.4104 301.836 34.8083 302.36 34.0491C302.884 33.2899 303.185 32.4259 303.263 31.4572L304.756 32.1642C304.756 33.7874 304.402 35.2141 303.695 36.4446C302.988 37.675 301.994 38.6438 300.711 39.3507C299.454 40.0313 297.988 40.3717 296.312 40.3717Z" fill="#000813"></path><path d="M81.4637 57.8706H80.1465V50.8946H82.976C83.4768 50.8946 83.9126 50.9857 84.2834 51.1678C84.6606 51.3434 84.9533 51.5906 85.1615 51.9093C85.3761 52.228 85.4834 52.5988 85.4834 53.0215C85.4834 53.4443 85.3761 53.8183 85.1615 54.1436C84.9533 54.4623 84.6606 54.7127 84.2834 54.8948C83.9126 55.0704 83.4768 55.1583 82.976 55.1583H81.3661V54.046H82.976C83.3402 54.046 83.6264 53.9549 83.8345 53.7728C84.0427 53.5907 84.1468 53.3403 84.1468 53.0215C84.1468 52.7093 84.0427 52.4622 83.8345 52.28C83.6264 52.0979 83.3402 52.0069 82.976 52.0069H81.4637V57.8706ZM86.1957 57.8706H84.5858L82.1174 54.6216H83.6297L86.1957 57.8706ZM93.6206 57.8706H88.713V50.8946H93.6206V52.0069H90.0301V56.7583H93.6206V57.8706ZM93.4352 54.8948H89.9325V53.7826H93.4352V54.8948ZM96.0221 56.7291L96.9099 55.8412C97.079 56.0559 97.2839 56.2412 97.5246 56.3973C97.7653 56.5535 98.0254 56.6738 98.3051 56.7583C98.5848 56.8429 98.871 56.8852 99.1637 56.8852C99.4824 56.8852 99.7556 56.8462 99.9833 56.7681C100.218 56.69 100.397 56.5795 100.52 56.4364C100.65 56.2868 100.715 56.1144 100.715 55.9193C100.715 55.6591 100.588 55.451 100.335 55.2948C100.088 55.1322 99.6418 55.0021 98.9978 54.9046C98.3669 54.8135 97.8531 54.6802 97.4563 54.5046C97.066 54.3289 96.7766 54.1078 96.588 53.8411C96.4058 53.5744 96.3148 53.259 96.3148 52.8947C96.3148 52.4719 96.4318 52.0979 96.666 51.7727C96.9067 51.4475 97.2351 51.1938 97.6514 51.0117C98.0677 50.8295 98.5425 50.7385 99.0759 50.7385C99.7003 50.7385 100.257 50.8556 100.745 51.0897C101.232 51.3239 101.645 51.6393 101.984 52.0361L101.106 52.9142C100.858 52.5955 100.562 52.3418 100.218 52.1532C99.8792 51.9646 99.5019 51.8703 99.0857 51.8703C98.6629 51.8703 98.3181 51.9581 98.0515 52.1337C97.7848 52.3028 97.6514 52.5305 97.6514 52.8167C97.6514 52.9663 97.7035 53.0963 97.8075 53.2069C97.9116 53.3175 98.084 53.4118 98.3246 53.4899C98.5718 53.5614 98.9035 53.6297 99.3198 53.6948C99.9507 53.7923 100.465 53.9354 100.862 54.124C101.265 54.3062 101.564 54.5403 101.759 54.8265C101.954 55.1127 102.052 55.4542 102.052 55.851C102.052 56.2933 101.928 56.677 101.681 57.0023C101.434 57.3275 101.093 57.5812 100.657 57.7633C100.221 57.9389 99.7166 58.0267 99.1442 58.0267C98.4742 58.0267 97.8758 57.9096 97.349 57.6755C96.8221 57.4348 96.3798 57.1193 96.0221 56.7291ZM110.796 50.8946V55.1192C110.796 56.0364 110.529 56.7518 109.996 57.2657C109.469 57.773 108.741 58.0267 107.811 58.0267C106.887 58.0267 106.158 57.773 105.625 57.2657C105.098 56.7518 104.835 56.0364 104.835 55.1192V50.8946H106.152V55.1192C106.152 55.6526 106.298 56.0786 106.591 56.3973C106.884 56.7096 107.29 56.8657 107.811 56.8657C108.337 56.8657 108.747 56.7096 109.04 56.3973C109.339 56.0786 109.489 55.6526 109.489 55.1192V50.8946H110.796ZM118.389 57.8706H113.774V50.8946H115.091V56.7291H118.389V57.8706ZM122.843 57.8706H121.525V51.919H122.843V57.8706ZM125.028 52.0166H119.34V50.8946H125.028V52.0166ZM131.656 56.3388H127.519V55.2265H131.656V56.3388ZM133.08 57.8706H131.666L129.383 51.8215H129.773L127.49 57.8706H126.124L128.875 50.8946H130.329L133.08 57.8706ZM135.719 57.8706V50.8946H138.159C138.907 50.8946 139.56 51.0442 140.12 51.3434C140.686 51.6361 141.125 52.0459 141.437 52.5727C141.756 53.0931 141.915 53.6948 141.915 54.3777C141.915 55.0607 141.756 55.6656 141.437 56.1925C141.125 56.7128 140.686 57.1226 140.12 57.4218C139.56 57.721 138.907 57.8706 138.159 57.8706H135.719ZM137.037 56.7486H138.159C138.646 56.7486 139.066 56.651 139.417 56.4559C139.775 56.2608 140.048 55.9876 140.237 55.6363C140.432 55.2786 140.529 54.859 140.529 54.3777C140.529 53.8964 140.432 53.4801 140.237 53.1289C140.048 52.7711 139.775 52.4979 139.417 52.3093C139.066 52.1142 138.646 52.0166 138.159 52.0166H137.037V56.7486ZM148.265 58.0267C147.725 58.0267 147.228 57.9356 146.773 57.7535C146.324 57.5714 145.93 57.3177 145.592 56.9925C145.254 56.6673 144.994 56.2835 144.811 55.8412C144.629 55.3924 144.538 54.9046 144.538 54.3777C144.538 53.8509 144.629 53.3663 144.811 52.924C144.994 52.4817 145.254 52.0979 145.592 51.7727C145.93 51.4475 146.324 51.1938 146.773 51.0117C147.228 50.8295 147.725 50.7385 148.265 50.7385C148.805 50.7385 149.3 50.8295 149.748 51.0117C150.204 51.1938 150.6 51.4475 150.939 51.7727C151.277 52.0979 151.537 52.4817 151.719 52.924C151.901 53.3663 151.992 53.8509 151.992 54.3777C151.992 54.9046 151.901 55.3924 151.719 55.8412C151.537 56.2835 151.277 56.6673 150.939 56.9925C150.6 57.3177 150.204 57.5714 149.748 57.7535C149.3 57.9356 148.805 58.0267 148.265 58.0267ZM148.265 56.8657C148.727 56.8657 149.134 56.7583 149.485 56.5437C149.836 56.3291 150.109 56.0364 150.304 55.6656C150.506 55.2883 150.607 54.859 150.607 54.3777C150.607 53.8964 150.506 53.4703 150.304 53.0996C150.109 52.7288 149.836 52.4361 149.485 52.2215C149.134 52.0068 148.727 51.8995 148.265 51.8995C147.81 51.8995 147.404 52.0068 147.046 52.2215C146.695 52.4361 146.418 52.7288 146.216 53.0996C146.021 53.4703 145.924 53.8964 145.924 54.3777C145.924 54.859 146.021 55.2883 146.216 55.6656C146.418 56.0364 146.695 56.3291 147.046 56.5437C147.404 56.7583 147.81 56.8657 148.265 56.8657ZM154.206 56.7291L155.093 55.8412C155.263 56.0559 155.467 56.2412 155.708 56.3973C155.949 56.5535 156.209 56.6738 156.489 56.7583C156.768 56.8429 157.055 56.8852 157.347 56.8852C157.666 56.8852 157.939 56.8462 158.167 56.7681C158.401 56.69 158.58 56.5795 158.703 56.4364C158.834 56.2868 158.899 56.1144 158.899 55.9193C158.899 55.6591 158.772 55.451 158.518 55.2948C158.271 55.1322 157.825 55.0021 157.181 54.9046C156.55 54.8135 156.037 54.6802 155.64 54.5046C155.25 54.3289 154.96 54.1078 154.772 53.8411C154.589 53.5744 154.498 53.259 154.498 52.8947C154.498 52.4719 154.615 52.0979 154.85 51.7727C155.09 51.4475 155.419 51.1938 155.835 51.0117C156.251 50.8295 156.726 50.7385 157.259 50.7385C157.884 50.7385 158.44 50.8556 158.928 51.0897C159.416 51.3239 159.829 51.6393 160.167 52.0361L159.289 52.9142C159.042 52.5955 158.746 52.3418 158.401 52.1532C158.063 51.9646 157.686 51.8703 157.269 51.8703C156.846 51.8703 156.502 51.9581 156.235 52.1337C155.968 52.3028 155.835 52.5305 155.835 52.8167C155.835 52.9663 155.887 53.0963 155.991 53.2069C156.095 53.3175 156.268 53.4118 156.508 53.4899C156.755 53.5614 157.087 53.6297 157.503 53.6948C158.134 53.7923 158.648 53.9354 159.045 54.124C159.448 54.3062 159.747 54.5403 159.943 54.8265C160.138 55.1127 160.235 55.4542 160.235 55.851C160.235 56.2933 160.112 56.677 159.864 57.0023C159.617 57.3275 159.276 57.5812 158.84 57.7633C158.404 57.9389 157.9 58.0267 157.328 58.0267C156.658 58.0267 156.059 57.9096 155.533 57.6755C155.006 57.4348 154.563 57.1193 154.206 56.7291ZM172.085 55.8412L172.953 56.7193C172.648 57.1096 172.244 57.4251 171.744 57.6657C171.249 57.9064 170.706 58.0267 170.114 58.0267C169.574 58.0267 169.08 57.9389 168.631 57.7633C168.182 57.5812 167.792 57.3275 167.46 57.0023C167.135 56.6705 166.881 56.2835 166.699 55.8412C166.524 55.3989 166.436 54.9111 166.436 54.3777C166.436 53.8574 166.527 53.376 166.709 52.9337C166.898 52.4849 167.158 52.0979 167.49 51.7727C167.821 51.441 168.212 51.1873 168.66 51.0117C169.116 50.8295 169.61 50.7385 170.143 50.7385C170.735 50.7385 171.275 50.8588 171.763 51.0995C172.251 51.3401 172.648 51.6556 172.953 52.0459L172.085 52.924C171.87 52.6118 171.594 52.3646 171.256 52.1825C170.924 51.9938 170.553 51.8995 170.143 51.8995C169.701 51.8995 169.304 52.0068 168.953 52.2215C168.608 52.4361 168.335 52.7288 168.134 53.0996C167.932 53.4703 167.831 53.8964 167.831 54.3777C167.831 54.859 167.932 55.2883 168.134 55.6656C168.335 56.0364 168.608 56.3291 168.953 56.5437C169.304 56.7583 169.701 56.8657 170.143 56.8657C170.553 56.8657 170.924 56.7746 171.256 56.5925C171.594 56.4039 171.87 56.1534 172.085 55.8412ZM178.844 58.0267C178.304 58.0267 177.806 57.9356 177.351 57.7535C176.902 57.5714 176.509 57.3177 176.17 56.9925C175.832 56.6673 175.572 56.2835 175.39 55.8412C175.208 55.3924 175.117 54.9046 175.117 54.3777C175.117 53.8509 175.208 53.3663 175.39 52.924C175.572 52.4817 175.832 52.0979 176.17 51.7727C176.509 51.4475 176.902 51.1938 177.351 51.0117C177.806 50.8295 178.304 50.7385 178.844 50.7385C179.384 50.7385 179.878 50.8295 180.327 51.0117C180.782 51.1938 181.179 51.4475 181.517 51.7727C181.855 52.0979 182.115 52.4817 182.298 52.924C182.48 53.3663 182.571 53.8509 182.571 54.3777C182.571 54.9046 182.48 55.3924 182.298 55.8412C182.115 56.2835 181.855 56.6673 181.517 56.9925C181.179 57.3177 180.782 57.5714 180.327 57.7535C179.878 57.9356 179.384 58.0267 178.844 58.0267ZM178.844 56.8657C179.306 56.8657 179.712 56.7583 180.063 56.5437C180.415 56.3291 180.688 56.0364 180.883 55.6656C181.084 55.2883 181.185 54.859 181.185 54.3777C181.185 53.8964 181.084 53.4703 180.883 53.0996C180.688 52.7288 180.415 52.4361 180.063 52.2215C179.712 52.0068 179.306 51.8995 178.844 51.8995C178.388 51.8995 177.982 52.0068 177.624 52.2215C177.273 52.4361 176.996 52.7288 176.795 53.0996C176.6 53.4703 176.502 53.8964 176.502 54.3777C176.502 54.859 176.6 55.2883 176.795 55.6656C176.996 56.0364 177.273 56.3291 177.624 56.5437C177.982 56.7583 178.388 56.8657 178.844 56.8657ZM186.691 57.8706H185.403V50.8946H186.788L190.642 56.612H190.135V50.8946H191.423V57.8706H190.037L186.193 52.1532H186.691V57.8706ZM198.143 57.8706H196.806L194.055 50.8946H195.489L197.675 56.8462H197.314L199.499 50.8946H200.885L198.143 57.8706ZM208.434 57.8706H203.527V50.8946H208.434V52.0069H204.844V56.7583H208.434V57.8706ZM208.249 54.8948H204.746V53.7826H208.249V54.8948ZM212.543 57.8706H211.226V50.8946H214.056C214.556 50.8946 214.992 50.9857 215.363 51.1678C215.74 51.3434 216.033 51.5906 216.241 51.9093C216.456 52.228 216.563 52.5988 216.563 53.0215C216.563 53.4443 216.456 53.8183 216.241 54.1436C216.033 54.4623 215.74 54.7127 215.363 54.8948C214.992 55.0704 214.556 55.1583 214.056 55.1583H212.446V54.046H214.056C214.42 54.046 214.706 53.9549 214.914 53.7728C215.122 53.5907 215.226 53.3403 215.226 53.0215C215.226 52.7093 215.122 52.4622 214.914 52.28C214.706 52.0979 214.42 52.0069 214.056 52.0069H212.543V57.8706ZM217.275 57.8706H215.665L213.197 54.6216H214.709L217.275 57.8706ZM219.164 56.7291L220.052 55.8412C220.221 56.0559 220.426 56.2412 220.667 56.3973C220.907 56.5535 221.167 56.6738 221.447 56.7583C221.727 56.8429 222.013 56.8852 222.306 56.8852C222.624 56.8852 222.898 56.8462 223.125 56.7681C223.359 56.69 223.538 56.5795 223.662 56.4364C223.792 56.2868 223.857 56.1144 223.857 55.9193C223.857 55.6591 223.73 55.451 223.476 55.2948C223.229 55.1322 222.784 55.0021 222.14 54.9046C221.509 54.8135 220.995 54.6802 220.598 54.5046C220.208 54.3289 219.919 54.1078 219.73 53.8411C219.548 53.5744 219.457 53.259 219.457 52.8947C219.457 52.4719 219.574 52.0979 219.808 51.7727C220.049 51.4475 220.377 51.1938 220.793 51.0117C221.21 50.8295 221.685 50.7385 222.218 50.7385C222.842 50.7385 223.398 50.8556 223.886 51.0897C224.374 51.3239 224.787 51.6393 225.125 52.0361L224.247 52.9142C224 52.5955 223.704 52.3418 223.359 52.1532C223.021 51.9646 222.644 51.8703 222.228 51.8703C221.805 51.8703 221.46 51.9581 221.193 52.1337C220.927 52.3028 220.793 52.5305 220.793 52.8167C220.793 52.9663 220.845 53.0963 220.95 53.2069C221.054 53.3175 221.226 53.4118 221.467 53.4899C221.714 53.5614 222.046 53.6297 222.462 53.6948C223.093 53.7923 223.607 53.9354 224.003 54.124C224.407 54.3062 224.706 54.5403 224.901 54.8265C225.096 55.1127 225.194 55.4542 225.194 55.851C225.194 56.2933 225.07 56.677 224.823 57.0023C224.576 57.3275 224.234 57.5812 223.798 57.7633C223.363 57.9389 222.859 58.0267 222.286 58.0267C221.616 58.0267 221.018 57.9096 220.491 57.6755C219.964 57.4348 219.522 57.1193 219.164 56.7291ZM232.843 56.3388H228.706V55.2265H232.843V56.3388ZM234.267 57.8706H232.853L230.57 51.8215H230.96L228.677 57.8706H227.311L230.062 50.8946H231.516L234.267 57.8706ZM231.887 48.8067L232.716 49.1189C232.651 49.5156 232.501 49.8051 232.267 49.9872C232.04 50.1693 231.779 50.2604 231.487 50.2604C231.298 50.2604 231.119 50.2181 230.95 50.1336C230.787 50.049 230.641 49.9645 230.511 49.8799C230.413 49.8083 230.329 49.7531 230.257 49.714C230.192 49.675 230.127 49.6555 230.062 49.6555C229.978 49.6555 229.9 49.6978 229.828 49.7823C229.756 49.8669 229.704 50.023 229.672 50.2507L228.852 49.9384C228.917 49.5417 229.064 49.2522 229.291 49.0701C229.519 48.888 229.782 48.7969 230.082 48.7969C230.27 48.7969 230.446 48.8392 230.609 48.9237C230.771 49.0018 230.918 49.0864 231.048 49.1774C231.152 49.249 231.236 49.3043 231.301 49.3433C231.373 49.3823 231.441 49.4018 231.506 49.4018C231.591 49.4018 231.669 49.3595 231.74 49.275C231.812 49.1839 231.861 49.0278 231.887 48.8067ZM239.923 58.0267C239.384 58.0267 238.886 57.9356 238.431 57.7535C237.982 57.5714 237.588 57.3177 237.25 56.9925C236.912 56.6673 236.652 56.2835 236.47 55.8412C236.287 55.3924 236.196 54.9046 236.196 54.3777C236.196 53.8509 236.287 53.3663 236.47 52.924C236.652 52.4817 236.912 52.0979 237.25 51.7727C237.588 51.4475 237.982 51.1938 238.431 51.0117C238.886 50.8295 239.384 50.7385 239.923 50.7385C240.463 50.7385 240.958 50.8295 241.406 51.0117C241.862 51.1938 242.259 51.4475 242.597 51.7727C242.935 52.0979 243.195 52.4817 243.377 52.924C243.559 53.3663 243.651 53.8509 243.651 54.3777C243.651 54.9046 243.559 55.3924 243.377 55.8412C243.195 56.2835 242.935 56.6673 242.597 56.9925C242.259 57.3177 241.862 57.5714 241.406 57.7535C240.958 57.9356 240.463 58.0267 239.923 58.0267ZM239.923 56.8657C240.385 56.8657 240.792 56.7583 241.143 56.5437C241.494 56.3291 241.767 56.0364 241.963 55.6656C242.164 55.2883 242.265 54.859 242.265 54.3777C242.265 53.8964 242.164 53.4703 241.963 53.0996C241.767 52.7288 241.494 52.4361 241.143 52.2215C240.792 52.0068 240.385 51.8995 239.923 51.8995C239.468 51.8995 239.062 52.0068 238.704 52.2215C238.353 52.4361 238.076 52.7288 237.875 53.0996C237.679 53.4703 237.582 53.8964 237.582 54.3777C237.582 54.859 237.679 55.2883 237.875 55.6656C238.076 56.0364 238.353 56.3291 238.704 56.5437C239.062 56.7583 239.468 56.8657 239.923 56.8657ZM254.964 57.8706H250.056V50.8946H254.964V52.0069H251.374V56.7583H254.964V57.8706ZM254.779 54.8948H251.276V53.7826H254.779V54.8948ZM258.751 57.8706H257.2L259.893 54.0557V54.4558L257.434 50.8946H258.985L260.722 53.5484H260.458L262.195 50.8946H263.727L261.288 54.4558L261.298 54.0557L263.981 57.8706H262.42L260.449 54.9534H260.722L258.751 57.8706ZM269.473 57.8706H268.156V51.919H269.473V57.8706ZM271.658 52.0166H265.97V50.8946H271.658V52.0166ZM275.653 57.8706H274.336V50.8946H277.166C277.666 50.8946 278.102 50.9857 278.473 51.1678C278.85 51.3434 279.143 51.5906 279.351 51.9093C279.566 52.228 279.673 52.5988 279.673 53.0215C279.673 53.4443 279.566 53.8183 279.351 54.1436C279.143 54.4623 278.85 54.7127 278.473 54.8948C278.102 55.0704 277.666 55.1583 277.166 55.1583H275.556V54.046H277.166C277.53 54.046 277.816 53.9549 278.024 53.7728C278.232 53.5907 278.336 53.3403 278.336 53.0215C278.336 52.7093 278.232 52.4622 278.024 52.28C277.816 52.0979 277.53 52.0069 277.166 52.0069H275.653V57.8706ZM280.385 57.8706H278.775L276.307 54.6216H277.819L280.385 57.8706ZM287.81 57.8706H282.903V50.8946H287.81V52.0069H284.22V56.7583H287.81V57.8706ZM287.625 54.8948H284.122V53.7826H287.625V54.8948ZM294.875 57.1193H293.9L291.178 51.4312L291.86 51.4215V57.8706H290.592V50.8946H292.114L294.661 56.2412H294.124L296.671 50.8946H298.173V57.8706H296.885V51.4215L297.597 51.4312L294.875 57.1193ZM306.33 56.3388H302.193V55.2265H306.33V56.3388ZM307.754 57.8706H306.339L304.056 51.8215H304.447L302.163 57.8706H300.798L303.549 50.8946H305.003L307.754 57.8706Z" fill="#000813"></path><defs><linearGradient id="paint0_linear_432_6" x1="29.8705" y1="4.78418" x2="29.8705" y2="64.511" gradientUnits="userSpaceOnUse"><stop stop-color="#242D3A"></stop><stop offset="1" stop-color="#000813"></stop></linearGradient></defs></svg>