<svg xmlns="http://www.w3.org/2000/svg" width="468" height="36" viewBox="0 0 468 36" fill="none"><g opacity="0.4"><path fill-rule="evenodd" clip-rule="evenodd" d="M25.1088 27.351C25.016 27.2039 24.9943 14.8287 25.0865 14.5872C25.1391 14.4491 25.3275 14.4307 26.4476 14.4546L27.7475 14.4823L27.7741 16.7499L27.8007 19.0177L28.2511 18.6719C29.5182 17.699 31.6319 17.7412 32.4008 18.7547C32.9697 19.5048 32.9849 19.6327 32.9897 23.6898L32.9939 27.4225H31.6576H30.3212L30.2717 24.1159C30.2305 21.3599 30.2326 20.7091 29.9227 20.4718C29.8148 20.3892 29.6691 20.3567 29.4705 20.3029C29.1292 20.2105 28.9789 20.2191 28.6357 20.3509C28.4155 20.4355 28.2572 20.4863 28.1422 20.5872C27.831 20.8603 27.8377 21.5008 27.797 24.1729L27.7475 27.4225L26.4683 27.4505C25.5115 27.4714 25.169 27.4464 25.1088 27.351ZM45.0707 16.9638C45.2885 16.3081 45.5039 15.7148 45.5493 15.6453C45.6065 15.5579 45.8504 15.5281 46.3412 15.5482L47.0505 15.5773L47.0782 16.8429L47.1058 18.1087L48.1176 18.1369L49.1292 18.1653L49.1573 19.2851L49.1853 20.405H48.1426H47.1V22.5758C47.1 24.2775 47.1299 24.7878 47.2382 24.9369C47.3503 25.091 47.5428 25.1371 48.2529 25.1799L49.1292 25.2327V26.2186V27.2045L48.5848 27.398C47.7801 27.6838 46.5152 27.6771 45.8495 27.3834C45.2298 27.11 44.9049 26.7819 44.6066 26.1285C44.3914 25.6571 44.3776 25.4931 44.3454 23.0179L44.3112 20.405H43.7258H43.1404V19.5121V18.6192L43.9075 18.3877L44.6747 18.1561L45.0707 16.9638ZM82.9317 16.921C83.1076 16.3462 83.2941 15.7955 83.3461 15.6974C83.426 15.5466 83.5509 15.5235 84.1526 15.5481L84.8645 15.5773L84.8922 16.8429L84.9198 18.1087L85.9316 18.1369L86.9433 18.1653L86.9712 19.2816L86.9992 20.3979L85.9813 20.4264L84.9635 20.4547L84.9369 22.611L84.9101 24.7673L85.1729 24.9751C85.3889 25.146 85.5745 25.1829 86.2177 25.1829H86.9997L86.9715 26.1968L86.9433 27.2107L86.3988 27.4067C85.6935 27.6605 84.3453 27.6744 83.781 27.4337C83.1675 27.172 82.7759 26.8206 82.5236 26.3054C82.3011 25.851 82.2886 25.7107 82.2413 23.1423L82.1918 20.4547L81.5978 20.405L81.0039 20.3552L80.9748 19.5743C80.9584 19.1329 80.9906 18.7391 81.0489 18.6684C81.1058 18.5996 81.4401 18.4649 81.7919 18.3692C82.1437 18.2734 82.4721 18.1436 82.5217 18.0807C82.5714 18.0177 82.7558 17.4959 82.9317 16.921ZM34.9219 19.4287C35.4617 18.6793 36.3992 18.177 37.5475 18.022C37.9599 17.9662 38.1647 17.9374 38.3697 17.9355C38.5889 17.9334 38.8084 17.9621 39.2824 18.0213C41.7291 18.3269 42.8404 19.8178 42.8404 22.7939C42.8404 25.7983 41.7343 27.275 39.2555 27.5799C37.1718 27.8362 35.433 27.1598 34.7014 25.8081C33.7595 24.0678 33.8693 20.8897 34.9219 19.4287ZM53.6211 18.875C53.9578 18.5147 54.7347 18.1281 55.3275 18.0259C56.6431 17.7992 57.8343 18.2553 58.1916 19.1226C58.2566 19.2805 58.3268 19.4096 58.3476 19.4096C58.3683 19.4096 58.5494 19.2269 58.7499 19.0036C59.2154 18.4856 59.8764 18.1501 60.688 18.0197C62.2506 17.7686 63.3318 18.3998 63.6783 19.7654C63.8054 20.2665 63.8273 20.9746 63.8057 23.8963L63.7797 27.4225H62.4433H61.107L61.0575 24.0879C61.0303 22.2539 60.9753 20.7028 60.9353 20.6411C60.8291 20.4767 60.222 20.2059 59.9602 20.2059C59.6315 20.2059 58.953 20.5622 58.7807 20.8252C58.6594 21.0106 58.6232 21.6341 58.5828 24.2373L58.5333 27.4225L57.2216 27.4503L55.91 27.4781V24.2849C55.91 21.6843 55.8833 21.0398 55.7659 20.8116C55.6138 20.5157 55.0832 20.2059 54.7288 20.2059C54.3824 20.2059 53.8789 20.462 53.6499 20.7547C53.4402 21.0227 53.4353 21.1009 53.4338 24.1263C53.4329 25.8297 53.3961 27.2809 53.3517 27.351C53.2916 27.4464 52.9491 27.4714 51.9922 27.4505L50.7131 27.4225V22.7939V18.1653H51.901H53.0888L53.2448 18.638L53.4009 19.1108L53.6211 18.875ZM65.4873 18.4309C65.7265 18.3068 66.7824 18.1202 67.7888 18.024C69.0009 17.9082 69.0369 17.9081 70.016 18.0192C71.5234 18.1902 72.3223 18.7532 72.6278 19.8594C72.6984 20.115 72.7374 21.5366 72.7377 23.864L72.7383 27.4723H71.4988C70.6741 27.4723 70.3847 27.486 70.2375 27.3469C70.1433 27.2579 70.1074 27.1064 70.0267 26.8489C69.9785 26.695 69.916 26.7162 69.5197 27.0203C68.9569 27.4523 68.444 27.5999 67.4892 27.6048C66.8484 27.608 66.6695 27.5677 66.21 27.3164C65.2284 26.7798 64.7753 25.8367 64.834 24.4524C64.8788 23.393 65.169 22.7822 65.8451 22.3238C66.5238 21.8637 66.8647 21.7887 68.556 21.7272L70.0655 21.6723V21.3097C70.0655 20.465 69.5531 20.2908 67.1268 20.3104C66.2443 20.3176 65.4752 20.2943 65.418 20.2587C65.3587 20.2219 65.314 19.8346 65.314 19.3574C65.314 18.6611 65.3431 18.5056 65.4873 18.4309ZM77.3772 19.022C77.9201 18.4474 78.4765 18.1449 79.1941 18.034C79.4817 17.9896 79.774 17.9727 79.8434 17.9963C79.9397 18.029 79.9633 18.3643 79.9424 19.3964L79.915 20.7533L79.0241 20.8093C78.0084 20.8731 77.4857 21.0627 77.2253 21.4621C77.0639 21.7093 77.039 22.0479 76.9948 24.581L76.9453 27.4225H75.609H74.2726V22.7939V18.1653L75.437 18.1372C76.1616 18.1198 76.4724 18.1014 76.6293 18.249C76.7586 18.3706 76.7835 18.6047 76.8491 19.0447L76.9181 19.5078L77.3772 19.022ZM39.9151 22.7944C39.9115 21.3441 39.724 20.7372 39.1944 20.4618C38.8721 20.2943 38.1752 20.2641 37.8333 20.403C37.2719 20.6311 37.003 21.4332 37.003 22.8803C37.003 24.5578 37.4319 25.2838 38.4212 25.2809C39.1189 25.2789 39.3855 25.1205 39.6732 24.5364C39.895 24.0861 39.9178 23.9218 39.9151 22.7944ZM68.783 25.5582C69.587 25.4804 70.0655 24.8774 70.0655 23.9418V23.4907L69.1004 23.497C68.5696 23.5005 68.0374 23.543 67.9177 23.5914C67.6586 23.6964 67.3928 24.1746 67.3928 24.5359C67.3928 25.2402 67.9365 25.64 68.783 25.5582Z" fill="black"></path><path fill-rule="evenodd" clip-rule="evenodd" d="M10.5236 4.36971C8.90601 5.131 7.64607 6.53979 6.66954 8.67931C6.4871 9.07896 6.08768 10.0975 5.7819 10.9427C5.11639 12.7826 5.01344 12.9627 4.65223 12.9207C4.40664 12.8923 4.38397 12.8506 4.35675 12.3784C4.33784 12.0517 4.40218 11.6431 4.53493 11.247C4.87456 10.2331 4.7531 10.2929 3.68619 11.6643C2.60364 13.056 1.44002 15.2849 0.819648 17.1551C-0.330215 20.6216 -0.268643 23.8867 0.994266 26.4273C2.29539 29.0447 4.68618 31.0412 7.36841 31.7506C9.20803 32.2371 10.8469 32.2361 12.6984 31.7477C15.3105 31.0584 17.6806 29.1292 18.9276 26.6771C19.8515 24.8602 20.1236 23.5182 20.0478 21.1517C19.9885 19.3012 19.7098 17.8066 19.0837 15.9806C18.476 14.2084 17.3639 11.9442 17.1012 11.9442C17.0516 11.9442 17.0385 12.1441 17.0719 12.3896C17.1549 12.9985 16.937 13.3378 16.463 13.3378C15.9981 13.3378 15.8684 13.1083 15.6171 11.8402C15.3335 10.4098 14.9164 9.56701 14.1029 8.78154C13.4094 8.11193 13.0797 7.97128 13.2483 8.41702C13.3013 8.55747 13.3448 8.96409 13.3448 9.32055C13.3448 9.90923 13.3173 9.99643 13.0454 10.2699C12.8054 10.5111 12.6935 10.5577 12.4822 10.5045C12.068 10.4 11.7107 10.0969 11.3677 9.55954C10.4399 8.10546 10.3326 6.44533 11.0573 4.75115C11.3823 3.99126 11.3607 3.97583 10.5236 4.36971ZM13.2533 18.7066C12.5733 18.0241 12.0147 17.6944 11.1417 17.4608C9.67575 17.0683 8.0838 17.4873 6.9183 18.5723C4.51127 20.8133 5.1159 24.7441 8.08588 26.1624C8.75753 26.4831 8.94264 26.526 9.80731 26.5609C10.6044 26.5931 10.894 26.5617 11.4417 26.384C13.235 25.8022 14.4865 24.1801 14.6075 22.2812C14.6979 20.8618 14.2667 19.7238 13.2533 18.7066Z" fill="black"></path><path fill-rule="evenodd" clip-rule="evenodd" d="M141.87 17.3381C141.78 17.4435 141.7 17.5609 141.631 17.6904C141.464 18.001 141.38 18.3657 141.38 18.7847C141.38 19.2087 141.464 19.5784 141.631 19.8939C141.671 19.9692 141.715 20.0403 141.762 20.1075C140.75 28.4977 133.606 34.9997 124.942 34.9997C115.585 34.9997 108 27.4143 108 18.0572C108 8.70015 115.585 1.11475 124.942 1.11475C134.059 1.11475 141.493 8.31459 141.87 17.3381ZM132.415 19.709V17.3207H133.472V16.7661H132.415V15.7457H131.742V16.7661H131.217V17.3207H131.742V19.709C131.742 20.1034 131.836 20.3868 132.023 20.5594C132.21 20.7319 132.491 20.8182 132.866 20.8182H133.472V20.2488H132.977C132.77 20.2488 132.624 20.2094 132.541 20.1305C132.457 20.0467 132.415 19.9062 132.415 19.709ZM120.832 16.8918C120.585 16.7587 120.304 16.6922 119.989 16.6922C119.668 16.6922 119.377 16.771 119.116 16.9288C118.855 17.0865 118.668 17.3084 118.554 17.5943C118.426 17.2985 118.231 17.0742 117.97 16.9214C117.709 16.7686 117.408 16.6922 117.068 16.6922C116.797 16.6922 116.548 16.7489 116.321 16.8622C116.099 16.9756 115.922 17.1383 115.789 17.3503V16.7661H115.116V20.8182H115.789V18.5851C115.789 18.1612 115.892 17.8383 116.099 17.6165C116.306 17.3897 116.585 17.2763 116.935 17.2763C117.275 17.2763 117.544 17.3848 117.741 17.6017C117.943 17.8136 118.044 18.1217 118.044 18.5259V20.8182H118.71V18.5851C118.71 18.1612 118.813 17.8383 119.02 17.6165C119.227 17.3897 119.506 17.2763 119.856 17.2763C120.196 17.2763 120.464 17.3848 120.662 17.6017C120.864 17.8136 120.965 18.1217 120.965 18.5259V20.8182H121.63V18.4298C121.63 18.0552 121.559 17.7372 121.416 17.476C121.273 17.2147 121.078 17.02 120.832 16.8918ZM122.734 17.6904C122.566 18.001 122.483 18.3633 122.483 18.7774C122.483 19.1865 122.566 19.5513 122.734 19.8717C122.902 20.1921 123.131 20.4411 123.422 20.6185C123.713 20.796 124.038 20.8847 124.398 20.8847C124.748 20.8847 125.053 20.8083 125.315 20.6555C125.581 20.4978 125.78 20.3006 125.914 20.064V20.8182H126.594V16.7661H125.914V17.5055C125.785 17.2739 125.591 17.0816 125.329 16.9288C125.068 16.776 124.76 16.6996 124.405 16.6996C124.045 16.6996 123.717 16.7858 123.422 16.9584C123.131 17.1309 122.902 17.3749 122.734 17.6904ZM125.729 17.9862C125.852 18.2129 125.914 18.4791 125.914 18.7847C125.914 19.0904 125.852 19.359 125.729 19.5907C125.605 19.8175 125.438 19.9925 125.226 20.1157C125.019 20.234 124.79 20.2932 124.538 20.2932C124.287 20.2932 124.058 20.234 123.851 20.1157C123.644 19.9925 123.478 19.8175 123.355 19.5907C123.232 19.359 123.17 19.0879 123.17 18.7774C123.17 18.4717 123.232 18.2055 123.355 17.9788C123.478 17.752 123.644 17.5795 123.851 17.4612C124.058 17.3429 124.287 17.2837 124.538 17.2837C124.79 17.2837 125.019 17.3453 125.226 17.4686C125.438 17.5869 125.605 17.7594 125.729 17.9862ZM129.165 20.8847C128.855 20.8847 128.576 20.833 128.33 20.7294C128.083 20.621 127.889 20.4731 127.746 20.2858C127.603 20.0935 127.524 19.8742 127.509 19.6277H128.204C128.224 19.8298 128.318 19.9949 128.485 20.1231C128.658 20.2513 128.882 20.3154 129.158 20.3154C129.414 20.3154 129.616 20.2587 129.764 20.1453C129.912 20.0319 129.986 19.889 129.986 19.7164C129.986 19.539 129.907 19.4083 129.75 19.3245C129.592 19.2358 129.348 19.1495 129.018 19.0657C128.717 18.9869 128.47 18.908 128.278 18.8291C128.091 18.7453 127.928 18.6245 127.79 18.4668C127.657 18.3041 127.59 18.0922 127.59 17.8309C127.59 17.6238 127.652 17.4341 127.775 17.2615C127.899 17.089 128.074 16.9534 128.3 16.8548C128.527 16.7513 128.786 16.6996 129.077 16.6996C129.525 16.6996 129.888 16.8129 130.164 17.0397C130.44 17.2665 130.588 17.577 130.607 17.9714H129.934C129.92 17.7594 129.833 17.5893 129.676 17.4612C129.523 17.333 129.316 17.2689 129.054 17.2689C128.813 17.2689 128.621 17.3207 128.478 17.4242C128.335 17.5277 128.263 17.6633 128.263 17.8309C128.263 17.964 128.305 18.0749 128.389 18.1636C128.478 18.2474 128.586 18.3164 128.714 18.3707C128.847 18.42 129.03 18.4767 129.262 18.5407C129.552 18.6196 129.789 18.6985 129.971 18.7774C130.154 18.8513 130.309 18.9647 130.437 19.1175C130.57 19.2703 130.639 19.4699 130.644 19.7164C130.644 19.9383 130.583 20.1379 130.459 20.3154C130.336 20.4928 130.161 20.6333 129.934 20.7368C129.713 20.8354 129.456 20.8847 129.165 20.8847ZM137.985 18.6369C137.985 18.765 137.977 18.9006 137.962 19.0435H134.724C134.748 19.4428 134.884 19.7559 135.13 19.9826C135.382 20.2044 135.685 20.3154 136.04 20.3154C136.331 20.3154 136.572 20.2488 136.765 20.1157C136.962 19.9777 137.1 19.7953 137.179 19.5685H137.903C137.795 19.958 137.578 20.2759 137.253 20.5224C136.927 20.7639 136.523 20.8847 136.04 20.8847C135.655 20.8847 135.31 20.7985 135.005 20.6259C134.704 20.4534 134.467 20.2094 134.295 19.8939C134.122 19.5735 134.036 19.2038 134.036 18.7847C134.036 18.3657 134.12 17.9985 134.288 17.683C134.455 17.3675 134.689 17.126 134.99 16.9584C135.296 16.7858 135.646 16.6996 136.04 16.6996C136.424 16.6996 136.765 16.7834 137.06 16.951C137.356 17.1186 137.583 17.3503 137.741 17.646C137.903 17.9369 137.985 18.2672 137.985 18.6369ZM137.29 18.4964C137.29 18.24 137.233 18.0207 137.12 17.8383C137.006 17.651 136.851 17.5105 136.654 17.4168C136.461 17.3182 136.247 17.2689 136.01 17.2689C135.67 17.2689 135.379 17.3774 135.138 17.5943C134.901 17.8112 134.766 18.1119 134.731 18.4964H137.29ZM140.049 16.8844C139.832 17.0126 139.664 17.1925 139.546 17.4242V16.7661H138.873V20.8182H139.546V18.6147C139.546 17.7964 139.923 17.3872 140.677 17.3872H140.855V16.6922C140.539 16.6922 140.27 16.7563 140.049 16.8844Z" fill="black"></path><path fill-rule="evenodd" clip-rule="evenodd" d="M131.398 17.3207C131.387 17.5649 131.382 17.8105 131.382 18.0572C131.382 27.4143 138.967 34.9997 148.324 34.9997C157.681 34.9997 165.267 27.4143 165.267 18.0572C165.267 8.70015 157.681 1.11475 148.324 1.11475C139.402 1.11475 132.09 8.01226 131.43 16.7662H131.742V15.7458H132.415V16.7662H133.472V17.3207H132.415V19.7091C132.415 19.9063 132.457 20.0468 132.541 20.1306C132.624 20.2094 132.77 20.2489 132.977 20.2489H133.472V20.8182H132.866C132.491 20.8182 132.21 20.732 132.023 20.5594C131.836 20.3869 131.742 20.1034 131.742 19.7091V17.3207H131.398ZM153.878 17.6905C153.71 18.001 153.627 18.3633 153.627 18.7774C153.627 19.1866 153.71 19.5513 153.878 19.8718C154.046 20.1922 154.275 20.4411 154.566 20.6186C154.862 20.796 155.189 20.8848 155.549 20.8848C155.899 20.8848 156.205 20.8084 156.466 20.6555C156.727 20.4978 156.925 20.2982 157.058 20.0566V20.8182H157.738V15.3465H157.058V17.4908C156.915 17.2542 156.708 17.0644 156.437 16.9214C156.165 16.7736 155.872 16.6996 155.557 16.6996C155.192 16.6996 154.862 16.7859 154.566 16.9584C154.275 17.131 154.046 17.375 153.878 17.6905ZM156.873 17.9862C156.996 18.213 157.058 18.4792 157.058 18.7848C157.058 19.0904 156.996 19.3591 156.873 19.5908C156.75 19.8175 156.582 19.9925 156.37 20.1158C156.163 20.2341 155.934 20.2932 155.682 20.2932C155.431 20.2932 155.202 20.2341 154.995 20.1158C154.788 19.9925 154.622 19.8175 154.499 19.5908C154.376 19.3591 154.314 19.088 154.314 18.7774C154.314 18.4718 154.376 18.2056 154.499 17.9788C154.622 17.7521 154.788 17.5795 154.995 17.4612C155.202 17.3429 155.431 17.2838 155.682 17.2838C155.934 17.2838 156.163 17.3454 156.37 17.4686C156.582 17.5869 156.75 17.7595 156.873 17.9862ZM137.985 18.6369C137.985 18.7651 137.977 18.9006 137.963 19.0436H134.724C134.749 19.4429 134.884 19.7559 135.131 19.9827C135.382 20.2045 135.685 20.3154 136.04 20.3154C136.331 20.3154 136.572 20.2489 136.765 20.1158C136.962 19.9777 137.1 19.7953 137.179 19.5686H137.903C137.795 19.958 137.578 20.276 137.253 20.5225C136.927 20.764 136.523 20.8848 136.04 20.8848C135.656 20.8848 135.311 20.7985 135.005 20.626C134.704 20.4534 134.468 20.2094 134.295 19.8939C134.122 19.5735 134.036 19.2038 134.036 18.7848C134.036 18.3658 134.12 17.9985 134.288 17.6831C134.455 17.3676 134.689 17.126 134.99 16.9584C135.296 16.7859 135.646 16.6996 136.04 16.6996C136.425 16.6996 136.765 16.7834 137.06 16.951C137.356 17.1186 137.583 17.3503 137.741 17.6461C137.903 17.9369 137.985 18.2672 137.985 18.6369ZM137.29 18.4964C137.29 18.2401 137.233 18.0207 137.12 17.8383C137.006 17.651 136.851 17.5105 136.654 17.4169C136.462 17.3183 136.247 17.269 136.01 17.269C135.67 17.269 135.38 17.3774 135.138 17.5943C134.901 17.8112 134.766 18.1119 134.731 18.4964H137.29ZM140.049 16.8845C139.832 17.0126 139.664 17.1926 139.546 17.4243V16.7662H138.873V20.8182H139.546V18.6147C139.546 17.7964 139.923 17.3873 140.677 17.3873H140.855V16.6922C140.539 16.6922 140.27 16.7563 140.049 16.8845ZM141.38 18.7848C141.38 18.3658 141.464 18.001 141.631 17.6905C141.799 17.375 142.031 17.131 142.326 16.9584C142.627 16.7859 142.97 16.6996 143.354 16.6996C143.852 16.6996 144.261 16.8204 144.582 17.0619C144.907 17.3035 145.121 17.6387 145.225 18.0676H144.5C144.431 17.8211 144.296 17.6264 144.094 17.4834C143.896 17.3405 143.65 17.269 143.354 17.269C142.97 17.269 142.659 17.4021 142.423 17.6683C142.186 17.9295 142.068 18.3017 142.068 18.7848C142.068 19.2728 142.186 19.6499 142.423 19.9161C142.659 20.1823 142.97 20.3154 143.354 20.3154C143.65 20.3154 143.896 20.2464 144.094 20.1084C144.291 19.9703 144.426 19.7732 144.5 19.5168H145.225C145.117 19.9309 144.9 20.2637 144.574 20.5151C144.249 20.7615 143.842 20.8848 143.354 20.8848C142.97 20.8848 142.627 20.7985 142.326 20.626C142.031 20.4534 141.799 20.2094 141.631 19.8939C141.464 19.5785 141.38 19.2087 141.38 18.7848ZM146.123 17.6905C145.955 18.001 145.871 18.3633 145.871 18.7774C145.871 19.1866 145.955 19.5513 146.123 19.8718C146.29 20.1922 146.52 20.4411 146.81 20.6186C147.101 20.796 147.427 20.8848 147.786 20.8848C148.136 20.8848 148.442 20.8084 148.703 20.6555C148.97 20.4978 149.169 20.3006 149.302 20.064V20.8182H149.983V16.7662H149.302V17.5056C149.174 17.2739 148.979 17.0817 148.718 16.9288C148.457 16.776 148.149 16.6996 147.794 16.6996C147.434 16.6996 147.106 16.7859 146.81 16.9584C146.52 17.131 146.29 17.375 146.123 17.6905ZM149.117 17.9862C149.241 18.213 149.302 18.4792 149.302 18.7848C149.302 19.0904 149.241 19.3591 149.117 19.5908C148.994 19.8175 148.827 19.9925 148.615 20.1158C148.408 20.2341 148.178 20.2932 147.927 20.2932C147.676 20.2932 147.446 20.2341 147.239 20.1158C147.032 19.9925 146.867 19.8175 146.744 19.5908C146.621 19.3591 146.559 19.088 146.559 18.7774C146.559 18.4718 146.621 18.2056 146.744 17.9788C146.867 17.7521 147.032 17.5795 147.239 17.4612C147.446 17.3429 147.676 17.2838 147.927 17.2838C148.178 17.2838 148.408 17.3454 148.615 17.4686C148.827 17.5869 148.994 17.7595 149.117 17.9862ZM151.793 17.4243C151.911 17.1926 152.078 17.0126 152.295 16.8845C152.517 16.7563 152.786 16.6922 153.101 16.6922V17.3873H152.924C152.17 17.3873 151.793 17.7964 151.793 18.6147V20.8182H151.12V16.7662H151.793V17.4243Z" fill="black" fill-opacity="0.7"></path><path fill-rule="evenodd" clip-rule="evenodd" d="M227.578 8.11696C225.266 8.21264 223.274 8.86271 221.821 9.99545C221.549 10.2077 221.031 10.7109 220.83 10.9578C220.14 11.807 219.743 12.7577 219.598 13.907C219.569 14.14 219.569 14.9598 219.599 15.1651C219.797 16.5455 220.553 17.6141 222.036 18.6107C222.53 18.9426 222.92 19.1672 224.041 19.7648C224.458 19.9875 224.901 20.2286 225.025 20.3006C226 20.8668 226.462 21.3152 226.613 21.8395C226.663 22.0166 226.663 22.2886 226.612 22.4767C226.45 23.0713 225.89 23.5658 225.067 23.8391C224.617 23.9884 224.139 24.0625 223.54 24.0757C222.099 24.1075 220.422 23.7507 218.988 23.1073C218.775 23.0119 218.464 22.856 218.421 22.8232C218.409 22.8143 218.395 22.8111 218.39 22.8162C218.371 22.835 217.465 27.0326 217.477 27.044C217.502 27.0662 217.881 27.2061 218.204 27.3121C219.281 27.6657 220.522 27.9244 221.688 28.0387C222.692 28.1371 223.747 28.1401 224.675 28.047C227.531 27.7606 229.813 26.5926 231.008 24.805C231.687 23.7897 232.011 22.629 231.979 21.333C231.966 20.8151 231.905 20.4353 231.765 20.0077C231.365 18.7829 230.474 17.7966 228.913 16.8525C228.557 16.6371 228.134 16.4043 227.403 16.0225C226.577 15.5908 226.266 15.4168 225.943 15.206C225.628 15.0001 225.457 14.8668 225.291 14.6961C225 14.398 224.874 14.1296 224.874 13.809C224.875 13.0987 225.585 12.4904 226.694 12.251C227.297 12.1208 228.117 12.1024 228.947 12.2005C229.897 12.3129 230.99 12.6045 231.818 12.9666C231.931 13.0161 232.025 13.0547 232.028 13.0523C232.03 13.0499 232.232 12.1439 232.476 11.0389C232.72 9.93393 232.923 9.01695 232.928 9.00117C232.939 8.96645 232.89 8.94404 232.543 8.8267C231.539 8.48718 230.298 8.24033 229.172 8.15633C229.043 8.14676 228.893 8.13529 228.838 8.13086C228.712 8.1207 227.745 8.11003 227.578 8.11696ZM187.103 8.43757C187.092 8.4702 186.995 9.02781 187 9.03262C187.003 9.03502 187.117 9.05976 187.254 9.08761C188.323 9.30464 189.427 9.61786 190.397 9.97901C191.249 10.2965 191.556 10.4233 191.851 10.5786C192.38 10.8576 192.73 11.1877 192.924 11.5908C193.083 11.9212 193.074 11.8867 193.979 15.3121C194.351 16.7185 194.685 17.9795 194.721 18.1143C194.785 18.3571 196.251 23.8971 196.405 24.4782C196.449 24.6445 196.664 25.4587 196.884 26.2877L197.282 27.7949L199.969 27.795H202.656L206.786 18.1204C209.057 12.7994 210.918 8.43937 210.921 8.43148C210.925 8.42329 209.778 8.41715 208.249 8.41715H205.571L205.543 8.48659C205.527 8.52477 204.335 11.4786 202.894 15.0507C201.453 18.6228 200.268 21.5564 200.26 21.5699C200.25 21.5872 200.245 21.5882 200.245 21.5733C200.244 21.5314 198.074 10.3653 198.033 10.192C197.879 9.5362 197.465 9.00546 196.873 8.70404C196.58 8.55523 196.279 8.46965 195.925 8.43435C195.654 8.40744 187.113 8.41057 187.103 8.43757ZM213.072 8.46208C213.067 8.48679 212.127 12.8229 210.983 18.0979C209.838 23.3729 208.898 27.7127 208.893 27.7419L208.884 27.795H211.436H213.988L216.072 18.151C217.219 12.8468 218.16 8.48679 218.163 8.46208L218.17 8.41715H215.626H213.081L213.072 8.46208ZM241.245 8.43591C240.402 8.52167 239.782 9.00218 239.342 9.91215C239.288 10.0242 231.868 27.4553 231.738 27.7746C231.732 27.7909 232.272 27.795 234.408 27.795H237.086L237.289 27.2191C237.401 26.9023 237.633 26.2444 237.805 25.757L238.116 24.8709L241.383 24.8706C243.18 24.8705 244.65 24.8722 244.65 24.8744C244.65 24.8767 244.791 25.5329 244.963 26.3327L245.276 27.7868L247.642 27.791C249.891 27.7949 250.008 27.7937 250 27.7665C249.99 27.7356 245.884 8.43881 245.884 8.4253C245.884 8.41076 241.392 8.42104 241.245 8.43591ZM243.064 17.2795C243.495 19.2556 243.848 20.886 243.848 20.9026C243.848 20.9317 243.777 20.9327 241.727 20.9327C240.038 20.9327 239.608 20.9286 239.613 20.9123C239.715 20.6177 242.272 13.6628 242.275 13.6725C242.278 13.6801 242.633 15.3033 243.064 17.2795Z" fill="black"></path><path fill-rule="evenodd" clip-rule="evenodd" d="M370.487 7.63869C370.564 7.45311 370.723 7.27912 370.899 7.18919L371.041 7.11621L374.665 7.1268C377.871 7.13619 378.319 7.14321 378.559 7.18769C379.334 7.33145 379.838 7.4863 380.319 7.7279C381.451 8.2965 382.119 9.20049 382.381 10.5185C382.46 10.9113 382.49 11.8351 382.441 12.3362C382.305 13.7234 381.925 15.0431 381.388 15.9945C380.504 17.5614 379.136 18.5084 377.246 18.8606C376.649 18.972 376.332 18.992 374.864 19.0112L373.409 19.0303L373.257 19.1202C373.095 19.2164 372.964 19.3703 372.896 19.5436C372.873 19.6023 372.7 20.6983 372.511 21.9791L372.51 21.986C372.185 24.1953 372.143 24.4763 371.993 24.648C371.972 24.673 371.947 24.6957 371.92 24.7217L371.919 24.7223C371.862 24.7762 371.756 24.8492 371.685 24.8846C371.559 24.947 371.511 24.9491 370.014 24.9582C368.967 24.9645 368.44 24.957 368.368 24.9345C368.145 24.8647 368 24.6621 368 24.4207C368 24.342 368.547 20.5654 369.215 16.0284C370.101 10.0054 370.445 7.74123 370.487 7.63869ZM377.917 11.975C377.766 11.2924 377.326 10.9141 376.503 10.7601C376.305 10.7231 375.998 10.7062 375.349 10.6966C374.466 10.6835 374.465 10.6836 374.351 10.754L374.349 10.7548C374.322 10.7719 374.298 10.7868 374.276 10.8049C374.132 10.9256 374.093 11.1914 373.796 13.2263L373.794 13.2401C373.621 14.4182 373.481 15.3911 373.481 15.402C373.481 15.4426 375.653 15.3909 375.892 15.3446C376.541 15.2186 376.926 15.0286 377.261 14.669C377.509 14.4037 377.651 14.152 377.777 13.7592C377.942 13.2447 378.009 12.3925 377.917 11.975ZM384.759 13.7777C385.518 13.2752 386.396 12.9342 387.246 12.8121C387.62 12.7586 388.421 12.7485 388.833 12.7923C390.157 12.9331 390.988 13.3384 391.474 14.0802C391.56 14.2119 391.636 14.3148 391.641 14.3087C391.647 14.3026 391.679 14.1132 391.712 13.8877C391.787 13.382 391.837 13.2504 391.998 13.1368L392.119 13.0507L393.641 13.042C394.661 13.0363 395.2 13.0442 395.277 13.0661C395.339 13.0842 395.435 13.1463 395.489 13.2042C395.503 13.2196 395.517 13.2316 395.53 13.2426C395.541 13.2526 395.551 13.2618 395.561 13.2722C395.679 13.4011 395.635 13.7019 395.037 17.7566C394.984 18.117 394.926 18.5072 394.864 18.9295C394.257 23.0504 394.058 24.3378 394.012 24.443C393.934 24.6204 393.764 24.8006 393.597 24.8832C393.468 24.9471 393.428 24.949 392.06 24.9578C391.125 24.9638 390.618 24.9558 390.542 24.9341C390.39 24.8903 390.241 24.7347 390.196 24.5715C390.163 24.4561 390.167 24.3859 390.221 24.0228C390.256 23.7938 390.284 23.5863 390.284 23.5617C390.284 23.5361 390.22 23.5825 390.134 23.6707C389.514 24.3067 388.639 24.8102 387.72 25.0593C386.698 25.3363 385.469 25.2935 384.497 24.947C383.132 24.4607 382.131 23.2413 381.743 21.5929C381.346 19.9022 381.665 17.8146 382.568 16.2008C383.12 15.2142 383.911 14.3397 384.759 13.7777ZM397.045 13.5781C397.045 13.3662 397.213 13.1301 397.41 13.065C397.452 13.0509 398.186 13.042 399.042 13.045L400.596 13.0507L400.725 13.1226C400.886 13.2127 401.056 13.3842 401.124 13.524C401.152 13.583 401.551 14.9764 402.009 16.6205C402.468 18.2647 402.852 19.6274 402.862 19.6488C402.874 19.6724 403.657 18.4606 404.863 16.5545C405.952 14.8313 406.893 13.3675 406.954 13.3016C407.014 13.2357 407.123 13.1523 407.196 13.1162C407.326 13.0521 407.363 13.0505 408.884 13.0412C409.945 13.0347 410.472 13.0422 410.544 13.0649C410.671 13.1047 410.81 13.2243 410.867 13.3426C410.917 13.4458 410.922 13.7144 410.876 13.8078C410.815 13.9322 401.23 28.7618 401.156 28.8479C401.115 28.895 401.004 28.9742 400.91 29.0241L400.738 29.1146L399.11 29.1063L397.482 29.0979L397.378 29.0124C397.197 28.8654 397.126 28.6356 397.194 28.4257C397.216 28.3592 397.902 27.2944 398.718 26.0596C399.534 24.8248 400.211 23.7985 400.223 23.7788C400.234 23.7591 399.524 21.4776 398.644 18.7088C397.764 15.9399 397.045 13.6311 397.045 13.5781ZM391.027 17.5884C390.779 16.8141 390.187 16.2779 389.387 16.1025C389.157 16.0522 388.624 16.0203 388.415 16.0444C387.645 16.1334 386.882 16.5295 386.394 17.0927C385.787 17.7937 385.444 18.8108 385.5 19.7441C385.537 20.3635 385.731 20.8591 386.085 21.2406C386.41 21.5903 386.766 21.7908 387.26 21.9004C387.609 21.9781 388.241 21.9734 388.6 21.8905C389.785 21.6172 390.636 20.7997 391.006 19.5794C391.216 18.8842 391.224 18.2012 391.027 17.5884Z" fill="black"></path><path d="M441.472 7.1938C441.394 7.24371 441.334 7.31458 441.296 7.39945C441.254 7.4958 440.924 9.68136 440.01 15.9339C439.333 20.5566 438.78 24.3839 438.78 24.439C438.782 24.6666 438.937 24.8718 439.154 24.9344C439.229 24.9561 439.715 24.964 440.6 24.958L441.933 24.949L442.084 24.8762C442.281 24.7811 442.474 24.5526 442.533 24.3441C442.582 24.1727 445 7.78096 445 7.62085C445 7.47081 444.884 7.26443 444.755 7.18623L444.643 7.11811L443.117 7.1179L441.591 7.11768L441.472 7.1938Z" fill="black"></path><path fill-rule="evenodd" clip-rule="evenodd" d="M430.251 12.7801C430.212 12.7861 430.064 12.8065 429.923 12.8253C429.782 12.8441 429.519 12.8982 429.338 12.9455C426.825 13.6035 424.915 15.8479 424.418 18.7247C424.162 20.2068 424.312 21.5403 424.867 22.7231C425.673 24.4397 427.187 25.3048 429.253 25.2295C429.751 25.2113 430.058 25.1643 430.522 25.0348C431.319 24.8124 432.145 24.3439 432.762 23.764C432.895 23.6386 433.008 23.5395 433.012 23.5439C433.016 23.5482 432.994 23.7219 432.962 23.9299C432.93 24.1379 432.904 24.36 432.904 24.4234C432.904 24.6652 433.053 24.8696 433.277 24.934C433.352 24.9557 433.856 24.9637 434.781 24.9577L436.171 24.9487L436.334 24.8631C436.539 24.7552 436.712 24.5486 436.77 24.3422C436.828 24.1374 438.353 13.7586 438.353 13.5721C438.353 13.3313 438.21 13.1329 437.988 13.0672C437.838 13.0225 435.01 13.0245 434.859 13.0693C434.797 13.0879 434.699 13.1531 434.641 13.2143C434.526 13.3372 434.506 13.4105 434.422 14.0073L434.373 14.3539L434.236 14.1392C433.735 13.3548 432.898 12.9367 431.539 12.7922C431.265 12.763 430.413 12.755 430.251 12.7801ZM433.716 19.6199C434.237 17.9546 433.594 16.4822 432.188 16.1166C431.952 16.0553 431.331 16.0136 431.107 16.0441C429.512 16.2614 428.389 17.5091 428.228 19.244C428.143 20.1532 428.434 20.9813 428.999 21.4394C429.577 21.9074 430.421 22.0757 431.299 21.8976C432.443 21.6656 433.341 20.8186 433.716 19.6199Z" fill="black"></path><path fill-rule="evenodd" clip-rule="evenodd" d="M413.599 7.20917C413.412 7.30902 413.31 7.41571 413.218 7.6098C413.175 7.69995 412.866 9.73197 411.931 16.0891C410.824 23.6209 410.705 24.4618 410.735 24.57C410.778 24.7233 410.934 24.8909 411.073 24.9319C411.229 24.9783 414.265 24.9756 414.438 24.9289C414.607 24.8835 414.8 24.69 414.844 24.5218C414.861 24.4547 415.03 23.3427 415.218 22.0506C415.407 20.7586 415.581 19.6411 415.607 19.5672C415.664 19.4004 415.814 19.2201 415.983 19.1141C416.136 19.0181 416.083 19.0213 417.827 19.003C419.139 18.9891 419.495 18.9605 420.181 18.8138C420.987 18.6413 421.661 18.3726 422.263 17.9835C423.765 17.0137 424.709 15.3405 425.071 13.005C425.382 10.9947 425.078 9.5423 424.133 8.5356C423.483 7.84377 422.6 7.42532 421.312 7.20026C420.945 7.13604 420.862 7.13446 417.356 7.12472L413.775 7.11475L413.599 7.20917ZM420.072 11.0764C419.913 10.9599 419.558 10.8213 419.26 10.7601C418.968 10.7004 417.243 10.6669 417.128 10.7188C417.034 10.7617 416.933 10.8646 416.881 10.972C416.857 11.0201 416.694 12.036 416.518 13.2296L416.197 15.3999L417.069 15.409C417.953 15.4181 418.423 15.39 418.808 15.305C419.898 15.0642 420.468 14.3688 420.65 13.0564C420.783 12.1014 420.596 11.4622 420.072 11.0764Z" fill="black"></path></g><path d="M299.636 29.7466V13.6192C299.636 10.65 302.039 8.24756 305.008 8.24756L309.764 8.25988C312.72 8.25988 315.111 10.6623 315.111 13.6192V17.0566C315.111 20.0258 312.708 22.4283 309.739 22.4283H303.024" stroke="#999999" stroke-width="1.92501" stroke-miterlimit="7.7732" stroke-linecap="round" stroke-linejoin="round"></path><path d="M316.45 8.25195H318.52C319.739 8.25195 320.725 9.23759 320.725 10.4573V22.5067" stroke="#999999" stroke-width="1.92501" stroke-miterlimit="7.7732" stroke-linecap="round" stroke-linejoin="round"></path><path d="M320.276 6.38606L319.34 5.44971C319.106 5.21562 319.106 4.84601 319.34 4.61192L320.276 3.67557C320.51 3.44148 320.892 3.44148 321.114 3.67557L322.05 4.61192C322.284 4.84601 322.284 5.21562 322.05 5.44971L321.114 6.38606C320.88 6.62015 320.51 6.62015 320.276 6.38606Z" fill="#999999"></path><path d="M324.68 8.24121H326.725C327.785 8.24121 328.795 8.6601 329.534 9.39933L334.327 14.192C334.943 14.808 335.953 14.808 336.569 14.192L341.337 9.42397C342.076 8.68474 343.087 8.26585 344.146 8.26585H345.81" stroke="#999999" stroke-width="1.92501" stroke-miterlimit="7.7732" stroke-linecap="round" stroke-linejoin="round"></path><path d="M324.68 22.3937H326.725C327.785 22.3937 328.795 21.9748 329.534 21.2356L334.327 16.443C334.943 15.8269 335.953 15.8269 336.569 16.443L341.337 21.211C342.076 21.9502 343.087 22.3691 344.146 22.3691H345.81" stroke="#999999" stroke-width="1.92501" stroke-miterlimit="7.7732" stroke-linecap="round" stroke-linejoin="round"></path><path d="M287.428 25.4534C286.405 25.4534 285.432 25.0592 284.705 24.3323L280.775 20.4021C280.504 20.131 280.024 20.131 279.74 20.4021L275.798 24.3446C275.071 25.0715 274.11 25.4658 273.075 25.4658H272.299L277.276 30.4432C278.828 31.9956 281.354 31.9956 282.906 30.4432L287.896 25.4534H287.428Z" fill="#999999"></path><path d="M273.081 11.5563C274.104 11.5563 275.077 11.9505 275.804 12.6774L279.747 16.6199C280.03 16.9033 280.498 16.9033 280.782 16.6199L284.712 12.6897C285.439 11.9628 286.4 11.5686 287.435 11.5686H287.903L282.913 6.57883C281.361 5.02646 278.835 5.02646 277.283 6.57883L272.305 11.5563H273.081Z" fill="#999999"></path><path d="M292.029 15.6982L289.01 12.6797C288.949 12.7043 288.875 12.729 288.801 12.729H287.433C286.719 12.729 286.029 13.0124 285.524 13.5175L281.594 17.4477C281.224 17.8173 280.743 18.0021 280.263 18.0021C279.782 18.0021 279.302 17.8173 278.932 17.4477L274.99 13.5052C274.485 13 273.795 12.7167 273.08 12.7167H271.392C271.318 12.7167 271.257 12.7043 271.195 12.6797L268.164 15.7105C266.612 17.2629 266.612 19.7886 268.164 21.3409L271.195 24.3718C271.257 24.3471 271.331 24.3348 271.392 24.3348H273.08C273.795 24.3348 274.485 24.0514 274.99 23.5463L278.932 19.6038C279.647 18.8892 280.891 18.8892 281.594 19.6038L285.524 23.534C286.029 24.0391 286.719 24.3225 287.433 24.3225H288.801C288.875 24.3225 288.949 24.3348 289.01 24.3594L292.029 21.3409C293.581 19.7763 293.581 17.2629 292.029 15.6982Z" fill="#999999"></path><path d="M303.729 28.3765C303.508 28.3765 303.249 28.4258 302.99 28.4874V29.473C303.163 29.5346 303.372 29.5716 303.569 29.5716C304.062 29.5716 304.296 29.4114 304.296 28.9679C304.284 28.5613 304.099 28.3765 303.729 28.3765ZM302.818 30.1999V28.2533H302.953L302.966 28.3395C303.2 28.2902 303.508 28.2163 303.729 28.2163C303.914 28.2163 304.087 28.241 304.235 28.3642C304.407 28.4997 304.456 28.7215 304.456 28.9679C304.456 29.2266 304.37 29.4607 304.136 29.5962C303.976 29.6824 303.754 29.7194 303.569 29.7194C303.372 29.7194 303.175 29.6824 302.978 29.6332V30.1999H302.818Z" fill="#666666"></path><path d="M305.707 28.3705C305.214 28.3705 304.992 28.5306 304.992 28.9618C304.992 29.3807 305.214 29.5655 305.707 29.5655C306.2 29.5655 306.421 29.4177 306.421 28.9742C306.409 28.5676 306.2 28.3705 305.707 28.3705ZM306.335 29.5779C306.175 29.7011 305.953 29.7257 305.707 29.7257C305.448 29.7257 305.226 29.6887 305.066 29.5779C304.881 29.4547 304.807 29.2452 304.807 28.9865C304.807 28.7278 304.881 28.5183 305.066 28.3828C305.226 28.2719 305.448 28.2349 305.707 28.2349C305.966 28.2349 306.175 28.2719 306.335 28.3828C306.52 28.5183 306.594 28.7278 306.594 28.9742C306.594 29.2329 306.52 29.4423 306.335 29.5779Z" fill="#666666"></path><path d="M308.673 29.6801L308.118 28.4973H308.106L307.564 29.6801H307.416L306.825 28.2632H307.009L307.502 29.4583H307.515L308.044 28.2632H308.192L308.734 29.4583H308.747L309.227 28.2632H309.4L308.808 29.6801H308.673Z" fill="#666666"></path><path d="M310.469 28.3675C310.014 28.3675 309.853 28.5646 309.829 28.8603H311.11C311.085 28.54 310.925 28.3675 310.469 28.3675ZM310.457 29.7228C310.186 29.7228 310.001 29.6858 309.866 29.5626C309.706 29.4148 309.644 29.2053 309.644 28.9712C309.644 28.7371 309.718 28.503 309.903 28.3675C310.063 28.2566 310.26 28.2197 310.457 28.2197C310.642 28.2197 310.851 28.2443 311.024 28.3552C311.233 28.4907 311.27 28.7371 311.27 29.0082H309.816C309.816 29.3039 309.915 29.5626 310.469 29.5626C310.728 29.5626 310.975 29.5256 311.209 29.4764V29.6242C310.975 29.6735 310.716 29.7228 310.457 29.7228Z" fill="#666666"></path><path d="M311.76 29.6799V28.263H311.895L311.908 28.3493C312.203 28.2754 312.351 28.2261 312.61 28.2261H312.635V28.3862H312.598C312.376 28.3862 312.24 28.4109 311.932 28.4971V29.6922H311.76V29.6799Z" fill="#666666"></path><path d="M313.6 28.3675C313.145 28.3675 312.984 28.5646 312.96 28.8603H314.241C314.216 28.54 314.056 28.3675 313.6 28.3675ZM313.588 29.7228C313.317 29.7228 313.132 29.6858 312.997 29.5626C312.837 29.4148 312.775 29.2053 312.775 28.9712C312.775 28.7371 312.849 28.503 313.034 28.3675C313.194 28.2566 313.391 28.2197 313.588 28.2197C313.773 28.2197 313.982 28.2443 314.155 28.3552C314.364 28.4907 314.401 28.7371 314.401 29.0082H312.947C312.947 29.3039 313.046 29.5626 313.6 29.5626C313.859 29.5626 314.106 29.5256 314.34 29.4764V29.6242C314.106 29.6735 313.847 29.7228 313.588 29.7228Z" fill="#666666"></path><path d="M316.234 28.4666C316.062 28.405 315.852 28.368 315.655 28.368C315.162 28.368 314.928 28.5405 314.928 28.9717C314.928 29.3783 315.125 29.5631 315.495 29.5631C315.717 29.5631 315.975 29.5138 316.234 29.4522V28.4666ZM316.259 29.6863L316.246 29.6C316.012 29.6493 315.704 29.7232 315.482 29.7232C315.298 29.7232 315.125 29.6986 314.977 29.5754C314.805 29.4399 314.756 29.2181 314.756 28.9717C314.756 28.713 314.842 28.4789 315.076 28.3434C315.236 28.2448 315.458 28.2078 315.655 28.2078C315.852 28.2078 316.049 28.2448 316.246 28.2941V27.6411H316.406V29.6616H316.259V29.6863Z" fill="#666666"></path><path d="M318.836 28.3763C318.614 28.3763 318.355 28.4256 318.097 28.4872V29.4728C318.282 29.5344 318.479 29.5714 318.676 29.5714C319.169 29.5714 319.403 29.4112 319.403 28.9677C319.39 28.5611 319.206 28.3763 318.836 28.3763ZM319.255 29.596C319.095 29.6822 318.873 29.7192 318.688 29.7192C318.479 29.7192 318.269 29.6822 318.047 29.6083L318.035 29.6699H317.924V27.6494H318.084V28.327C318.319 28.2777 318.614 28.2038 318.836 28.2038C319.021 28.2038 319.193 28.2284 319.341 28.3516C319.514 28.4872 319.563 28.7089 319.563 28.9553C319.575 29.2264 319.489 29.4605 319.255 29.596Z" fill="#666666"></path><path d="M319.797 30.2257V30.0655C319.883 30.0779 319.957 30.0779 320.006 30.0779C320.216 30.0779 320.339 30.0163 320.45 29.7822L320.499 29.6713L319.76 28.2544H319.957L320.598 29.4865H320.61L321.214 28.2544H321.398L320.598 29.8561C320.45 30.1518 320.29 30.238 320.006 30.238C319.932 30.2503 319.858 30.238 319.797 30.2257Z" fill="#666666"></path><path d="M323.686 28.8688H323.131V29.3616H323.686C324.068 29.3616 324.215 29.3246 324.215 29.1152C324.203 28.8934 324.006 28.8688 323.686 28.8688ZM323.575 28.0679H323.119V28.5731H323.575C323.944 28.5731 324.105 28.5238 324.105 28.3143C324.105 28.0926 323.92 28.0679 323.575 28.0679ZM324.437 29.5464C324.24 29.6819 323.994 29.6819 323.538 29.6819H322.7V27.7476H323.526C323.907 27.7476 324.154 27.7476 324.351 27.8708C324.487 27.957 324.548 28.0803 324.548 28.2527C324.548 28.4499 324.462 28.5854 324.24 28.684V28.6963C324.487 28.7579 324.647 28.8811 324.647 29.1521C324.647 29.3493 324.573 29.4601 324.437 29.5464Z" fill="#999999"></path><path d="M326.33 29.0829C326.17 29.0706 325.997 29.0582 325.813 29.0582C325.517 29.0582 325.418 29.1198 325.418 29.2554C325.418 29.3786 325.505 29.4525 325.726 29.4525C325.911 29.4525 326.133 29.4155 326.318 29.3662L326.33 29.0829ZM326.416 29.6866L326.404 29.6003C326.158 29.6619 325.874 29.7235 325.628 29.7235C325.48 29.7235 325.308 29.6989 325.197 29.625C325.086 29.551 325.036 29.4278 325.036 29.28C325.036 29.1198 325.11 28.972 325.271 28.8981C325.418 28.8241 325.616 28.8241 325.8 28.8241C325.948 28.8241 326.145 28.8365 326.318 28.8488V28.8241C326.318 28.6024 326.17 28.5285 325.776 28.5285C325.616 28.5285 325.431 28.5408 325.246 28.5531V28.2697C325.443 28.2574 325.677 28.2451 325.862 28.2451C326.108 28.2451 326.367 28.2697 326.527 28.3806C326.687 28.4915 326.724 28.6517 326.724 28.8734V29.7112L326.416 29.6866Z" fill="#999999"></path><path d="M328.583 29.6799V28.8914C328.583 28.6326 328.448 28.5341 328.214 28.5341C328.041 28.5341 327.82 28.5834 327.635 28.6203V29.6676H327.241V28.263H327.561L327.573 28.3493C327.82 28.2877 328.103 28.2261 328.337 28.2261C328.51 28.2261 328.694 28.2507 328.83 28.3739C328.941 28.4725 328.99 28.6203 328.99 28.8175V29.6922H328.583V29.6799Z" fill="#999999"></path><path d="M330.099 29.7192C329.914 29.7192 329.717 29.6946 329.569 29.5714C329.397 29.4359 329.348 29.2141 329.348 28.9677C329.348 28.7459 329.422 28.4995 329.643 28.364C329.816 28.2531 330.038 28.2285 330.272 28.2285C330.432 28.2285 330.592 28.2408 330.777 28.2531V28.5611C330.629 28.5488 330.457 28.5365 330.321 28.5365C329.939 28.5365 329.767 28.6597 329.767 28.98C329.767 29.288 329.902 29.4235 330.21 29.4235C330.395 29.4235 330.604 29.3866 330.802 29.3496V29.6453C330.567 29.6823 330.321 29.7192 330.099 29.7192Z" fill="#999999"></path><path d="M331.965 28.5169C331.583 28.5169 331.422 28.6401 331.422 28.9604C331.422 29.2807 331.583 29.4163 331.965 29.4163C332.334 29.4163 332.507 29.3054 332.507 28.9727C332.494 28.6647 332.334 28.5169 331.965 28.5169ZM332.642 29.5764C332.47 29.6996 332.236 29.7243 331.965 29.7243C331.681 29.7243 331.447 29.6873 331.275 29.5764C331.077 29.4409 331.004 29.2315 331.004 28.9727C331.004 28.714 331.077 28.5046 331.275 28.369C331.447 28.2582 331.669 28.2212 331.965 28.2212C332.248 28.2212 332.47 28.2582 332.642 28.369C332.839 28.5046 332.901 28.714 332.901 28.9727C332.901 29.2315 332.839 29.4409 332.642 29.5764Z" fill="#999999"></path><path d="M335.203 29.7191C334.968 29.7191 334.71 29.6822 334.513 29.522C334.278 29.3249 334.217 29.0292 334.217 28.7212C334.217 28.4378 334.303 28.1052 334.611 27.8957C334.845 27.7479 335.141 27.7109 335.424 27.7109C335.634 27.7109 335.856 27.7232 336.102 27.7479V28.0928C335.892 28.0805 335.646 28.0559 335.449 28.0559C334.895 28.0559 334.66 28.2653 334.66 28.7089C334.66 29.1647 334.882 29.3618 335.289 29.3618C335.547 29.3618 335.843 29.3126 336.151 29.251V29.5959C335.831 29.6575 335.511 29.7191 335.203 29.7191Z" fill="#999999"></path><path d="M337.298 28.472C336.966 28.472 336.842 28.5952 336.818 28.8047H337.779C337.754 28.5829 337.619 28.472 337.298 28.472ZM337.237 29.7287C337.003 29.7287 336.793 29.7041 336.633 29.5686C336.46 29.433 336.399 29.2113 336.399 28.9772C336.399 28.7554 336.473 28.5213 336.67 28.3735C336.842 28.2503 337.064 28.2256 337.298 28.2256C337.495 28.2256 337.742 28.2503 337.914 28.3735C338.148 28.5336 338.161 28.78 338.161 29.0757H336.805C336.818 29.2975 336.929 29.433 337.335 29.433C337.582 29.433 337.865 29.3961 338.087 29.3591V29.6425C337.816 29.6794 337.52 29.7287 337.237 29.7287Z" fill="#999999"></path><path d="M339.932 29.6799V28.8914C339.932 28.6326 339.796 28.5341 339.562 28.5341C339.39 28.5341 339.168 28.5834 338.983 28.6203V29.6676H338.589V28.263H338.909L338.921 28.3493C339.168 28.2877 339.451 28.2261 339.685 28.2261C339.858 28.2261 340.043 28.2507 340.178 28.3739C340.289 28.4725 340.338 28.6203 340.338 28.8175V29.6922H339.932V29.6799Z" fill="#999999"></path><path d="M341.456 29.719C341.259 29.719 341.086 29.6698 341 29.5219C340.926 29.4233 340.902 29.2878 340.902 29.0907V28.5609H340.618V28.2652H340.902L340.938 27.834H341.296V28.2652H341.85V28.5609H341.296V29.0168C341.296 29.1277 341.308 29.2139 341.333 29.2878C341.37 29.3864 341.468 29.4233 341.591 29.4233C341.69 29.4233 341.801 29.411 341.875 29.3987V29.6821C341.739 29.6944 341.579 29.719 341.456 29.719Z" fill="#999999"></path><path d="M342.232 29.6799V28.263H342.552L342.564 28.3493C342.823 28.2753 343.02 28.2261 343.267 28.2261C343.279 28.2261 343.291 28.2261 343.316 28.2261V28.5587C343.267 28.5587 343.217 28.5587 343.18 28.5587C342.983 28.5587 342.835 28.5834 342.626 28.6326V29.6799H342.232Z" fill="#999999"></path><path d="M344.767 29.0829C344.607 29.0706 344.435 29.0582 344.25 29.0582C343.954 29.0582 343.856 29.1198 343.856 29.2554C343.856 29.3786 343.942 29.4525 344.164 29.4525C344.349 29.4525 344.57 29.4155 344.755 29.3662L344.767 29.0829ZM344.854 29.6866L344.841 29.6003C344.595 29.6619 344.312 29.7235 344.065 29.7235C343.917 29.7235 343.745 29.6989 343.634 29.625C343.523 29.551 343.474 29.4278 343.474 29.28C343.474 29.1198 343.548 28.972 343.708 28.8981C343.856 28.8241 344.053 28.8241 344.238 28.8241C344.386 28.8241 344.583 28.8365 344.755 28.8488V28.8241C344.755 28.6024 344.607 28.5285 344.213 28.5285C344.053 28.5285 343.868 28.5408 343.683 28.5531V28.2697C343.88 28.2574 344.114 28.2451 344.299 28.2451C344.546 28.2451 344.804 28.2697 344.965 28.3806C345.125 28.4915 345.162 28.6517 345.162 28.8734V29.7112L344.854 29.6866Z" fill="#999999"></path><path d="M345.67 27.6597H346.065V29.6802H345.67V27.6597Z" fill="#999999"></path></svg>