<svg xmlns="http://www.w3.org/2000/svg" width="375" height="60" viewBox="0 0 375 60" fill="none"><g clip-path="url(#clip0_208_2)"><mask id="mask0_208_2" style="mask-type:luminance" maskUnits="userSpaceOnUse" x="0" y="0" width="376" height="60"><path d="M375.005 0H0.00488281V60H375.005V0Z" fill="white"></path></mask><g mask="url(#mask0_208_2)"><path d="M103.177 7.1333V25.9999H97.4063V18.7304H84.3948V25.9999H78.6528V7.1333H84.3948V14.035H97.4063V7.1333H103.177Z" fill="url(#paint0_linear_208_2)"></path><path d="M112.993 25.9999H106.6L117.123 7.1333H124.873L135.169 25.9999H128.833L127.051 22.5773H114.86L112.993 25.9999ZM116.868 18.6739H124.958L120.913 11.2064L116.868 18.6739Z" fill="url(#paint1_linear_208_2)"></path><path d="M157.349 21.2762V25.9999H138.567V7.1333H144.309V21.2762H157.349Z" fill="url(#paint2_linear_208_2)"></path><path d="M179.337 21.2762V25.9999H160.555V7.1333H166.297V21.2762H179.337Z" fill="url(#paint3_linear_208_2)"></path><path d="M206.246 7.1333C209.641 7.1333 211.922 7.69901 213.091 8.83044C214.279 9.96187 214.873 12.2247 214.873 15.619V18.6739C214.873 18.919 214.873 19.1547 214.873 19.381C214.836 19.513 214.817 19.6073 214.817 19.6639C214.817 20.0976 214.723 20.8424 214.534 21.8984C214.345 22.9544 213.685 23.9067 212.554 24.7553C211.441 25.585 210.046 25.9999 208.368 25.9999H189.614V7.1333H206.246ZM209.075 16.6373V16.4676C209.075 14.6196 208.867 13.375 208.453 12.7339C208.038 12.0927 206.925 11.7722 205.115 11.7722H195.356V21.3893H205.03C206.784 21.3893 207.896 21.0593 208.368 20.3993C208.839 19.7204 209.075 18.4664 209.075 16.6373Z" fill="url(#paint4_linear_208_2)"></path><path d="M224.285 25.9999H217.892L228.415 7.1333H236.165L246.461 25.9999H240.125L238.343 22.5773H226.152L224.285 25.9999ZM228.16 18.6739H236.25L232.205 11.2064L228.16 18.6739Z" fill="url(#paint5_linear_208_2)"></path><path d="M276.957 7.1333V11.4327H262.673V14.6573H276.957V18.391H262.673V25.9999H256.931V7.1333H276.957Z" fill="url(#paint6_linear_208_2)"></path><path d="M285.331 25.9999H278.939L289.461 7.1333H297.211L307.507 25.9999H301.171L299.389 22.5773H287.198L285.331 25.9999ZM289.207 18.6739H297.296L293.251 11.2064L289.207 18.6739Z" fill="url(#paint7_linear_208_2)"></path><path d="M337.438 25.9999V11.6307L329.122 25.9999H324.511L316.28 11.6307V25.9999H310.878V7.1333H320.014L326.944 19.6356L333.789 7.1333H342.869V25.9999H337.438Z" fill="url(#paint8_linear_208_2)"></path><path d="M352.676 25.9999H346.283L356.805 7.1333H364.556L374.852 25.9999H368.516L366.734 22.5773H354.543L352.676 25.9999ZM356.551 18.6739H364.641L360.596 11.2064L356.551 18.6739Z" fill="url(#paint9_linear_208_2)"></path><path fill-rule="evenodd" clip-rule="evenodd" d="M49.3136 29.7275C56.7165 39.4852 60.7983 48.7587 59.4962 54.2906C59.2036 55.4644 58.6916 56.4622 57.9454 57.2986C57.4334 57.8268 56.8189 58.2377 56.1167 58.5458C55.4437 58.8833 54.6975 59.1181 53.8783 59.2501C50.5865 59.6903 46.1828 58.4871 41.1939 56.0954L38.6336 58.3697L38.1509 54.496C38.1362 54.4887 38.1179 54.474 38.0996 54.4593C38.0814 54.4446 38.0631 54.43 38.0484 54.4226C38.0631 54.408 38.0777 54.3419 38.0923 54.2759C38.107 54.2099 38.1216 54.1438 38.1362 54.1292L37.4925 48.6707H48.9479L46.5924 51.0478C49.1966 52.3097 51.6545 53.3368 53.8783 53.8944C52.9273 48.8028 49.7379 42.3319 44.7783 35.5968C43.5055 37.0348 42.101 38.5168 40.3893 40.2482C38.8531 41.8036 37.3023 43.2856 35.7515 44.6796C35.5906 44.841 35.4151 44.9877 35.2395 45.1344C34.9761 45.3545 34.7274 45.5746 34.4787 45.7947C34.4411 45.8258 34.4039 45.8565 34.3669 45.8869C34.1592 46.0581 33.9605 46.222 33.7618 46.3963C33.5277 46.5871 33.279 46.7925 33.0449 46.998L32.3427 47.5702C32.2183 47.6656 32.0976 47.7646 31.9769 47.8637C31.8562 47.9627 31.7355 48.0618 31.6112 48.1571C31.304 48.4065 30.9968 48.6413 30.6897 48.876C30.6092 48.9347 30.5322 48.9972 30.4554 49.0595C30.3786 49.1219 30.3018 49.1843 30.2213 49.243C30.2067 49.2503 30.1921 49.2613 30.1774 49.2723C30.1628 49.2833 30.1482 49.2943 30.1335 49.3017C20.3313 56.829 10.9827 60.7762 5.42321 59.4849C4.73559 59.3088 4.12113 59.0447 3.55055 58.7072C3.53592 58.6999 3.52495 58.6925 3.51398 58.6852C3.50301 58.6779 3.49203 58.6705 3.4774 58.6632C3.31647 58.5752 3.17017 58.4724 3.02387 58.3697C2.76052 58.1937 2.52644 58.0029 2.30699 57.7828C1.32677 56.8144 0.741568 55.5231 0.492855 53.9824C-0.00456941 50.6516 1.20973 46.1616 3.63833 41.07L1.35603 38.4875L5.21839 38.0032C5.2257 37.9886 5.23668 37.9702 5.24765 37.9519C5.25862 37.9335 5.26959 37.9152 5.27691 37.9005C5.29154 37.9152 5.28422 37.9299 5.27691 37.9445C5.26959 37.9592 5.26228 37.9739 5.27691 37.9886L10.3975 37.3429V48.8321L8.34924 46.4844C7.06178 49.1843 6.16935 51.7081 5.68655 53.9971C10.8364 53.0727 17.4346 49.7859 24.3107 44.6796C22.8477 43.3883 21.3701 41.9797 19.6291 40.2482C18.0344 38.6635 16.5275 37.0788 15.1084 35.4794C14.9328 35.2887 14.7573 35.0833 14.5817 34.8778C14.5012 34.7898 14.4208 34.6981 14.3403 34.6064C14.2598 34.5147 14.1794 34.423 14.0989 34.3349L13.3528 33.4545L12.8261 32.8383C12.7974 32.8016 12.7691 32.7654 12.7412 32.7296C12.6125 32.5648 12.4901 32.408 12.3579 32.2513L11.6118 31.3269C11.5606 31.2682 11.513 31.2059 11.4655 31.1435C11.4179 31.0811 11.3704 31.0188 11.3192 30.9601L10.573 29.9916C10.5584 29.9696 10.5438 29.9513 10.5291 29.9329C10.5145 29.9146 10.4999 29.8963 10.4853 29.8742C3.0385 20.0872 -1.05794 10.7697 0.244143 5.22316C0.536746 4.04929 1.06343 3.03684 1.83883 2.24448C2.36551 1.71624 2.97998 1.30539 3.68222 0.997252C4.34058 0.659767 5.08672 0.424995 5.906 0.292935C9.21242 -0.147263 13.6161 1.04127 18.605 3.43302L21.1653 1.14399L21.6481 5.00306C21.6546 5.00631 21.6618 5.00885 21.6694 5.01098L22.3064 9.94795H10.851L13.2065 8.04042C10.6023 6.77852 8.12979 6.01551 5.906 5.53129C6.8277 10.6669 10.061 17.2112 15.0938 24.0636C16.3373 22.655 17.7272 21.217 19.4096 19.5002C20.9897 17.9009 22.5698 16.3895 24.1644 14.9662C24.3546 14.7901 24.5594 14.614 24.7643 14.438C24.8521 14.3573 24.9435 14.2765 25.035 14.1958C25.1264 14.1151 25.2178 14.0344 25.3056 13.9538L26.1834 13.2054C26.4028 13.0293 26.6076 12.8533 26.8124 12.6772C26.9075 12.5965 27.0027 12.5194 27.0978 12.4424C27.1929 12.3654 27.288 12.2883 27.3831 12.2076C27.7049 11.9435 28.0122 11.6941 28.3194 11.4446C28.4364 11.3419 28.5535 11.2539 28.6705 11.1658C28.9924 10.9017 29.3289 10.6376 29.6507 10.3881C29.6727 10.3735 29.691 10.3588 29.7093 10.3441C29.7275 10.3295 29.7458 10.3148 29.7678 10.3001C39.5115 2.84609 48.8016 -1.057 54.3025 0.248916C54.9901 0.410322 55.6192 0.67444 56.1752 1.01193C56.1898 1.01926 56.2044 1.03027 56.2191 1.04128C56.2337 1.05228 56.2483 1.06328 56.263 1.07062C56.2941 1.08935 56.3259 1.10807 56.3579 1.12694C56.4764 1.19678 56.5982 1.26855 56.7019 1.34941C56.9506 1.52549 57.1993 1.71624 57.4187 1.93634C58.399 2.90478 58.9842 4.19603 59.2329 5.73672C59.7449 9.06755 58.516 13.5576 56.0874 18.6492L58.3551 21.217L54.4927 21.7012C54.4927 21.7086 54.4854 21.7122 54.4781 21.7159C54.4708 21.7196 54.4635 21.7232 54.4635 21.7306L49.4892 22.3762V10.887L51.4496 13.2494C52.7371 10.5496 53.6295 8.01108 54.0831 5.72205C48.9479 6.63179 42.3936 9.87458 35.5467 14.9515C36.9512 16.1988 38.3849 17.5927 40.0967 19.2801C41.7206 20.8795 43.2421 22.4936 44.6905 24.1223C44.771 24.2104 44.8515 24.3021 44.932 24.3938C45.0124 24.4855 45.0929 24.5772 45.1733 24.6652C45.3343 24.8413 45.4952 25.0174 45.6415 25.1935C45.7732 25.3476 45.9049 25.5054 46.0366 25.6631C46.1682 25.8208 46.2999 25.9785 46.4315 26.1326C46.5924 26.338 46.7534 26.5287 46.9143 26.7195C46.9948 26.8149 47.0753 26.9139 47.1557 27.013C47.2362 27.112 47.3166 27.2111 47.3971 27.3064C47.6604 27.6291 47.9238 27.9521 48.1725 28.2749C48.2237 28.3262 48.2677 28.3847 48.3095 28.4403C48.3275 28.4642 48.3451 28.4876 48.3627 28.5096C48.6553 28.8765 48.9333 29.2286 49.1966 29.5808C49.2185 29.6028 49.2368 29.6285 49.2551 29.6542C49.2734 29.6798 49.2917 29.7055 49.3136 29.7275ZM21.7234 5.02296C21.7156 5.021 21.7074 5.01937 21.6993 5.01773C21.6891 5.01569 21.6789 5.01365 21.6694 5.01098L21.6627 4.95904C21.6773 4.94436 21.6919 4.97004 21.7066 4.99572C21.7122 5.00556 21.7178 5.01539 21.7234 5.02296ZM21.7505 5.0324C21.7424 5.02834 21.7331 5.0254 21.7234 5.02296C21.7324 5.03515 21.7414 5.04146 21.7505 5.0324ZM33.1859 25.6216L30.0048 19L26.8238 25.6216L19.5432 26.6008L24.8577 31.6724L23.5392 38.8991L30.0048 35.412L36.4705 38.8991L35.152 31.6724L40.4665 26.6008L33.1859 25.6216Z" fill="url(#paint10_linear_208_2)"></path><path d="M79.0049 48.9982V40.4705H82.6962C83.4596 40.4705 84.1175 40.5964 84.6698 40.8482C85.222 41.0918 85.6484 41.4451 85.9489 41.908C86.2494 42.371 86.3997 42.9232 86.3997 43.5649C86.3997 44.1983 86.2494 44.7466 85.9489 45.2095C85.6484 45.6643 85.222 46.0135 84.6698 46.2572C84.1175 46.5008 83.4596 46.6227 82.6962 46.6227H80.1013L80.9785 45.7577V48.9982H79.0049ZM84.4261 48.9982L82.2942 45.9039H84.4017L86.558 48.9982H84.4261ZM80.9785 45.977L80.1013 45.0511H82.5865C83.1957 45.0511 83.6505 44.9212 83.951 44.6613C84.2515 44.3933 84.4017 44.0278 84.4017 43.5649C84.4017 43.0938 84.2515 42.7283 83.951 42.4684C83.6505 42.2085 83.1957 42.0786 82.5865 42.0786H80.1013L80.9785 41.1405V45.977Z" fill="#5C5C5C"></path><path d="M91.9713 43.906H96.0768V45.441H91.9713V43.906ZM92.1175 47.4145H96.7591V48.9982H90.1561V40.4705H96.6007V42.0542H92.1175V47.4145Z" fill="#5C5C5C"></path><path d="M103.324 49.1443C102.642 49.1443 101.988 49.055 101.363 48.8763C100.738 48.6895 100.234 48.4499 99.8522 48.1575L100.522 46.6713C100.888 46.9312 101.318 47.1464 101.814 47.317C102.317 47.4794 102.825 47.5606 103.336 47.5606C103.726 47.5606 104.039 47.5241 104.275 47.451C104.518 47.3697 104.697 47.2601 104.811 47.122C104.924 46.984 104.981 46.8256 104.981 46.6469C104.981 46.4195 104.892 46.2408 104.713 46.1109C104.534 45.9728 104.299 45.8632 104.006 45.782C103.714 45.6926 103.389 45.6114 103.032 45.5383C102.683 45.4571 102.329 45.3596 101.972 45.2459C101.623 45.1322 101.302 44.986 101.01 44.8074C100.717 44.6287 100.478 44.3932 100.291 44.1008C100.112 43.8084 100.023 43.4348 100.023 42.98C100.023 42.4927 100.153 42.0501 100.413 41.6521C100.681 41.246 101.079 40.9252 101.607 40.6897C102.143 40.446 102.813 40.3242 103.617 40.3242C104.153 40.3242 104.681 40.3892 105.2 40.5191C105.72 40.641 106.179 40.8278 106.577 41.0795L105.968 42.578C105.57 42.3506 105.172 42.1841 104.774 42.0785C104.376 41.9648 103.986 41.9079 103.604 41.9079C103.223 41.9079 102.91 41.9526 102.666 42.0419C102.423 42.1313 102.248 42.249 102.143 42.3952C102.037 42.5333 101.984 42.6957 101.984 42.8825C101.984 43.1018 102.074 43.2805 102.252 43.4186C102.431 43.5485 102.666 43.6541 102.959 43.7353C103.251 43.8165 103.572 43.8977 103.921 43.979C104.279 44.0602 104.632 44.1536 104.981 44.2592C105.338 44.3647 105.663 44.5069 105.956 44.6855C106.248 44.8642 106.484 45.0997 106.662 45.3921C106.849 45.6845 106.942 46.054 106.942 46.5007C106.942 46.9799 106.808 47.4185 106.54 47.8164C106.272 48.2144 105.87 48.5352 105.334 48.7789C104.806 49.0225 104.136 49.1443 103.324 49.1443Z" fill="#5C5C5C"></path><path d="M114.273 49.1444C113.062 49.1444 112.116 48.8074 111.434 48.1333C110.752 47.4592 110.411 46.4968 110.411 45.246V40.4705H112.384V45.1729C112.384 45.9851 112.551 46.5699 112.884 46.9272C113.217 47.2846 113.684 47.4632 114.285 47.4632C114.886 47.4632 115.353 47.2846 115.686 46.9272C116.019 46.5699 116.185 45.9851 116.185 45.1729V40.4705H118.134V45.246C118.134 46.4968 117.793 47.4592 117.111 48.1333C116.429 48.8074 115.483 49.1444 114.273 49.1444Z" fill="#5C5C5C"></path><path d="M122.278 48.9982V40.4705H124.251V47.3902H128.527V48.9982H122.278Z" fill="#5C5C5C"></path><path d="M132.792 48.9982V42.0786H130.063V40.4705H137.494V42.0786H134.766V48.9982H132.792Z" fill="#5C5C5C"></path><path d="M139.2 48.9982L143.001 40.4705H144.95L148.763 48.9982H146.692L143.574 41.4695H144.353L141.222 48.9982H139.2ZM141.101 47.1709L141.624 45.6724H146.01L146.546 47.1709H141.101Z" fill="#5C5C5C"></path><path d="M151.841 48.9982V40.4705H155.715C156.641 40.4705 157.457 40.6492 158.164 41.0065C158.87 41.3558 159.423 41.8471 159.821 42.4806C160.218 43.1141 160.417 43.8654 160.417 44.7344C160.417 45.5953 160.218 46.3465 159.821 46.9881C159.423 47.6216 158.87 48.117 158.164 48.4744C157.457 48.8236 156.641 48.9982 155.715 48.9982H151.841ZM153.815 47.378H155.618C156.186 47.378 156.677 47.2724 157.092 47.0612C157.514 46.8419 157.839 46.5333 158.066 46.1354C158.302 45.7374 158.42 45.2704 158.42 44.7344C158.42 44.1902 158.302 43.7232 158.066 43.3334C157.839 42.9354 157.514 42.6309 157.092 42.4197C156.677 42.2004 156.186 42.0908 155.618 42.0908H153.815V47.378Z" fill="#5C5C5C"></path><path d="M168.241 49.1443C167.567 49.1443 166.941 49.0347 166.365 48.8154C165.796 48.5961 165.301 48.2875 164.878 47.8895C164.464 47.4916 164.139 47.0246 163.904 46.4885C163.676 45.9525 163.563 45.3678 163.563 44.7343C163.563 44.1008 163.676 43.516 163.904 42.98C164.139 42.444 164.468 41.977 164.891 41.579C165.313 41.181 165.808 40.8724 166.377 40.6531C166.945 40.4339 167.563 40.3242 168.229 40.3242C168.903 40.3242 169.52 40.4339 170.08 40.6531C170.649 40.8724 171.14 41.181 171.554 41.579C171.977 41.977 172.306 42.444 172.541 42.98C172.777 43.5079 172.894 44.0927 172.894 44.7343C172.894 45.3678 172.777 45.9566 172.541 46.5007C172.306 47.0368 171.977 47.5038 171.554 47.9017C171.14 48.2916 170.649 48.5961 170.08 48.8154C169.52 49.0347 168.907 49.1443 168.241 49.1443ZM168.229 47.4631C168.61 47.4631 168.959 47.3982 169.276 47.2682C169.601 47.1383 169.885 46.9515 170.129 46.7078C170.373 46.4642 170.559 46.1759 170.689 45.8429C170.827 45.5099 170.896 45.1404 170.896 44.7343C170.896 44.3282 170.827 43.9587 170.689 43.6257C170.559 43.2927 170.373 43.0044 170.129 42.7607C169.893 42.5171 169.613 42.3303 169.288 42.2003C168.964 42.0704 168.61 42.0054 168.229 42.0054C167.847 42.0054 167.493 42.0704 167.169 42.2003C166.852 42.3303 166.572 42.5171 166.328 42.7607C166.084 43.0044 165.894 43.2927 165.755 43.6257C165.626 43.9587 165.561 44.3282 165.561 44.7343C165.561 45.1322 165.626 45.5018 165.755 45.8429C165.894 46.1759 166.08 46.4642 166.316 46.7078C166.56 46.9515 166.844 47.1383 167.169 47.2682C167.493 47.3982 167.847 47.4631 168.229 47.4631Z" fill="#5C5C5C"></path><path d="M179.372 49.1443C178.69 49.1443 178.036 49.055 177.411 48.8763C176.786 48.6895 176.282 48.4499 175.9 48.1575L176.57 46.6713C176.936 46.9312 177.366 47.1464 177.862 47.317C178.365 47.4794 178.873 47.5606 179.385 47.5606C179.774 47.5606 180.087 47.5241 180.323 47.451C180.566 47.3697 180.745 47.2601 180.859 47.122C180.972 46.984 181.029 46.8256 181.029 46.6469C181.029 46.4195 180.94 46.2408 180.761 46.1109C180.583 45.9728 180.347 45.8632 180.055 45.782C179.762 45.6926 179.437 45.6114 179.08 45.5383C178.731 45.4571 178.378 45.3596 178.02 45.2459C177.671 45.1322 177.35 44.986 177.058 44.8074C176.765 44.6287 176.526 44.3932 176.339 44.1008C176.16 43.8084 176.071 43.4348 176.071 42.98C176.071 42.4927 176.201 42.0501 176.461 41.6521C176.729 41.246 177.127 40.9252 177.655 40.6897C178.191 40.446 178.861 40.3242 179.665 40.3242C180.201 40.3242 180.729 40.3892 181.249 40.5191C181.768 40.641 182.227 40.8278 182.625 41.0795L182.016 42.578C181.618 42.3506 181.22 42.1841 180.822 42.0785C180.424 41.9648 180.034 41.9079 179.653 41.9079C179.271 41.9079 178.958 41.9526 178.715 42.0419C178.471 42.1313 178.296 42.249 178.191 42.3952C178.085 42.5333 178.032 42.6957 178.032 42.8825C178.032 43.1018 178.122 43.2805 178.3 43.4186C178.479 43.5485 178.715 43.6541 179.007 43.7353C179.299 43.8165 179.62 43.8977 179.969 43.979C180.327 44.0602 180.68 44.1536 181.029 44.2592C181.387 44.3647 181.711 44.5069 182.004 44.6855C182.296 44.8642 182.532 45.0997 182.71 45.3921C182.897 45.6845 182.991 46.054 182.991 46.5007C182.991 46.9799 182.857 47.4185 182.589 47.8164C182.321 48.2144 181.919 48.5352 181.383 48.7789C180.855 49.0225 180.185 49.1443 179.372 49.1443Z" fill="#5C5C5C"></path><path d="M196.256 49.1443C195.598 49.1443 194.985 49.0387 194.417 48.8276C193.856 48.6083 193.369 48.2997 192.955 47.9017C192.54 47.5038 192.216 47.0368 191.98 46.5007C191.753 45.9647 191.639 45.3759 191.639 44.7343C191.639 44.0927 191.753 43.5038 191.98 42.9678C192.216 42.4318 192.54 41.9648 192.955 41.5668C193.377 41.1689 193.868 40.8643 194.429 40.6531C194.989 40.4339 195.602 40.3242 196.268 40.3242C197.007 40.3242 197.673 40.4542 198.266 40.7141C198.867 40.9658 199.371 41.3394 199.777 41.8348L198.51 43.0044C198.217 42.6714 197.893 42.4237 197.535 42.2612C197.178 42.0907 196.788 42.0054 196.366 42.0054C195.968 42.0054 195.602 42.0704 195.269 42.2003C194.936 42.3303 194.648 42.5171 194.404 42.7607C194.161 43.0044 193.97 43.2927 193.832 43.6257C193.702 43.9587 193.637 44.3282 193.637 44.7343C193.637 45.1404 193.702 45.5099 193.832 45.8429C193.97 46.1759 194.161 46.4642 194.404 46.7078C194.648 46.9515 194.936 47.1383 195.269 47.2682C195.602 47.3982 195.968 47.4631 196.366 47.4631C196.788 47.4631 197.178 47.3819 197.535 47.2195C197.893 47.0489 198.217 46.7931 198.51 46.452L199.777 47.6215C199.371 48.1169 198.867 48.4946 198.266 48.7545C197.673 49.0144 197.003 49.1443 196.256 49.1443Z" fill="#5C5C5C"></path><path d="M207.266 49.1443C206.592 49.1443 205.967 49.0347 205.39 48.8154C204.821 48.5961 204.326 48.2875 203.904 47.8895C203.489 47.4916 203.165 47.0246 202.929 46.4885C202.702 45.9525 202.588 45.3678 202.588 44.7343C202.588 44.1008 202.702 43.516 202.929 42.98C203.165 42.444 203.494 41.977 203.916 41.579C204.338 41.181 204.834 40.8724 205.402 40.6531C205.971 40.4339 206.588 40.3242 207.254 40.3242C207.928 40.3242 208.545 40.4339 209.106 40.6531C209.674 40.8724 210.165 41.181 210.58 41.579C211.002 41.977 211.331 42.444 211.566 42.98C211.802 43.5079 211.92 44.0927 211.92 44.7343C211.92 45.3678 211.802 45.9566 211.566 46.5007C211.331 47.0368 211.002 47.5038 210.58 47.9017C210.165 48.2916 209.674 48.5961 209.106 48.8154C208.545 49.0347 207.932 49.1443 207.266 49.1443ZM207.254 47.4631C207.636 47.4631 207.985 47.3982 208.302 47.2682C208.626 47.1383 208.911 46.9515 209.154 46.7078C209.398 46.4642 209.585 46.1759 209.715 45.8429C209.853 45.5099 209.922 45.1404 209.922 44.7343C209.922 44.3282 209.853 43.9587 209.715 43.6257C209.585 43.2927 209.398 43.0044 209.154 42.7607C208.919 42.5171 208.639 42.3303 208.314 42.2003C207.989 42.0704 207.636 42.0054 207.254 42.0054C206.872 42.0054 206.519 42.0704 206.194 42.2003C205.877 42.3303 205.597 42.5171 205.353 42.7607C205.11 43.0044 204.919 43.2927 204.781 43.6257C204.651 43.9587 204.586 44.3282 204.586 44.7343C204.586 45.1322 204.651 45.5018 204.781 45.8429C204.919 46.1759 205.106 46.4642 205.341 46.7078C205.585 46.9515 205.869 47.1383 206.194 47.2682C206.519 47.3982 206.872 47.4631 207.254 47.4631Z" fill="#5C5C5C"></path><path d="M215.596 48.9982V40.4705H217.228L222.26 46.6105H221.468V40.4705H223.417V48.9982H221.797L216.753 42.8583H217.545V48.9982H215.596Z" fill="#5C5C5C"></path><path d="M230.15 48.9982L226.471 40.4705H228.603L231.819 48.0236H230.564L233.829 40.4705H235.791L232.099 48.9982H230.15Z" fill="#5C5C5C"></path><path d="M240.511 43.906H244.616V45.441H240.511V43.906ZM240.657 47.4145H245.298V48.9982H238.695V40.4705H245.14V42.0542H240.657V47.4145Z" fill="#5C5C5C"></path><path d="M249.061 48.9982V40.4705H252.753C253.516 40.4705 254.174 40.5964 254.726 40.8482C255.279 41.0918 255.705 41.4451 256.005 41.908C256.306 42.371 256.456 42.9232 256.456 43.5649C256.456 44.1983 256.306 44.7466 256.005 45.2095C255.705 45.6643 255.279 46.0135 254.726 46.2572C254.174 46.5008 253.516 46.6227 252.753 46.6227H250.158L251.035 45.7577V48.9982H249.061ZM254.483 48.9982L252.351 45.9039H254.458L256.615 48.9982H254.483ZM251.035 45.977L250.158 45.0511H252.643C253.252 45.0511 253.707 44.9212 254.007 44.6613C254.308 44.3933 254.458 44.0278 254.458 43.5649C254.458 43.0938 254.308 42.7283 254.007 42.4684C253.707 42.2085 253.252 42.0786 252.643 42.0786H250.158L251.035 41.1405V45.977Z" fill="#5C5C5C"></path><path d="M263.015 49.1443C262.332 49.1443 261.679 49.055 261.053 48.8763C260.428 48.6895 259.924 48.4499 259.543 48.1575L260.213 46.6713C260.578 46.9312 261.009 47.1464 261.504 47.317C262.008 47.4794 262.515 47.5606 263.027 47.5606C263.417 47.5606 263.729 47.5241 263.965 47.451C264.209 47.3697 264.387 47.2601 264.501 47.122C264.615 46.984 264.671 46.8256 264.671 46.6469C264.671 46.4195 264.582 46.2408 264.403 46.1109C264.225 45.9728 263.989 45.8632 263.697 45.782C263.404 45.6926 263.08 45.6114 262.722 45.5383C262.373 45.4571 262.02 45.3596 261.662 45.2459C261.313 45.1322 260.992 44.986 260.7 44.8074C260.408 44.6287 260.168 44.3932 259.981 44.1008C259.803 43.8084 259.713 43.4348 259.713 42.98C259.713 42.4927 259.843 42.0501 260.103 41.6521C260.371 41.246 260.769 40.9252 261.297 40.6897C261.833 40.446 262.503 40.3242 263.307 40.3242C263.843 40.3242 264.371 40.3892 264.891 40.5191C265.411 40.641 265.869 40.8278 266.267 41.0795L265.658 42.578C265.26 42.3506 264.862 42.1841 264.464 42.0785C264.066 41.9648 263.677 41.9079 263.295 41.9079C262.913 41.9079 262.6 41.9526 262.357 42.0419C262.113 42.1313 261.939 42.249 261.833 42.3952C261.727 42.5333 261.675 42.6957 261.675 42.8825C261.675 43.1018 261.764 43.2805 261.943 43.4186C262.121 43.5485 262.357 43.6541 262.649 43.7353C262.942 43.8165 263.262 43.8977 263.612 43.979C263.969 44.0602 264.322 44.1536 264.671 44.2592C265.029 44.3647 265.354 44.5069 265.646 44.6855C265.938 44.8642 266.174 45.0997 266.353 45.3921C266.539 45.6845 266.633 46.054 266.633 46.5007C266.633 46.9799 266.499 47.4185 266.231 47.8164C265.963 48.2144 265.561 48.5352 265.025 48.7789C264.497 49.0225 263.827 49.1443 263.015 49.1443Z" fill="#5C5C5C"></path><path d="M269.053 48.9982L272.854 40.4705H274.804L278.617 48.9982H276.546L273.427 41.4695H274.207L271.076 48.9982H269.053ZM270.954 47.1709L271.478 45.6724H275.863L276.399 47.1709H270.954ZM274.743 39.8126C274.531 39.8126 274.345 39.7761 274.182 39.703C274.02 39.6218 273.874 39.5325 273.744 39.435C273.614 39.3294 273.492 39.2401 273.378 39.167C273.265 39.0858 273.151 39.0452 273.037 39.0452C272.875 39.0452 272.741 39.1061 272.635 39.2279C272.53 39.3416 272.469 39.5081 272.452 39.7274H271.49C271.506 39.1832 271.64 38.7528 271.892 38.436C272.144 38.1112 272.485 37.9487 272.915 37.9487C273.126 37.9487 273.313 37.9893 273.476 38.0706C273.638 38.1437 273.784 38.233 273.914 38.3386C274.052 38.4442 274.178 38.5376 274.292 38.6188C274.406 38.6919 274.515 38.7284 274.621 38.7284C274.791 38.7284 274.929 38.6716 275.035 38.5579C275.141 38.436 275.197 38.2736 275.206 38.0706H276.168C276.16 38.5903 276.026 39.0127 275.766 39.3375C275.514 39.6543 275.173 39.8126 274.743 39.8126Z" fill="#5C5C5C"></path><path d="M285.717 49.1443C285.043 49.1443 284.418 49.0347 283.841 48.8154C283.273 48.5961 282.777 48.2875 282.355 47.8895C281.941 47.4916 281.616 47.0246 281.38 46.4885C281.153 45.9525 281.039 45.3678 281.039 44.7343C281.039 44.1008 281.153 43.516 281.38 42.98C281.616 42.444 281.945 41.977 282.367 41.579C282.79 41.181 283.285 40.8724 283.853 40.6531C284.422 40.4339 285.039 40.3242 285.705 40.3242C286.379 40.3242 286.997 40.4339 287.557 40.6531C288.125 40.8724 288.617 41.181 289.031 41.579C289.453 41.977 289.782 42.444 290.018 42.98C290.253 43.5079 290.371 44.0927 290.371 44.7343C290.371 45.3678 290.253 45.9566 290.018 46.5007C289.782 47.0368 289.453 47.5038 289.031 47.9017C288.617 48.2916 288.125 48.5961 287.557 48.8154C286.997 49.0347 286.383 49.1443 285.717 49.1443ZM285.705 47.4631C286.087 47.4631 286.436 47.3982 286.753 47.2682C287.078 47.1383 287.362 46.9515 287.606 46.7078C287.849 46.4642 288.036 46.1759 288.166 45.8429C288.304 45.5099 288.373 45.1404 288.373 44.7343C288.373 44.3282 288.304 43.9587 288.166 43.6257C288.036 43.2927 287.849 43.0044 287.606 42.7607C287.37 42.5171 287.09 42.3303 286.765 42.2003C286.44 42.0704 286.087 42.0054 285.705 42.0054C285.323 42.0054 284.97 42.0704 284.645 42.2003C284.329 42.3303 284.048 42.5171 283.805 42.7607C283.561 43.0044 283.37 43.2927 283.232 43.6257C283.102 43.9587 283.037 44.3282 283.037 44.7343C283.037 45.1322 283.102 45.5018 283.232 45.8429C283.37 46.1759 283.557 46.4642 283.793 46.7078C284.036 46.9515 284.32 47.1383 284.645 47.2682C284.97 47.3982 285.323 47.4631 285.705 47.4631Z" fill="#5C5C5C"></path><path d="M301.505 43.906H305.611V45.441H301.505V43.906ZM301.651 47.4145H306.293V48.9982H299.69V40.4705H306.135V42.0542H301.651V47.4145Z" fill="#5C5C5C"></path><path d="M308.998 48.9982L312.665 43.9425V45.38L309.157 40.4705H311.398L313.823 43.8938L312.884 43.906L315.272 40.4705H317.416L313.932 45.2948V43.8816L317.623 48.9982H315.345L312.836 45.38H313.737L311.264 48.9982H308.998Z" fill="#5C5C5C"></path><path d="M322.26 48.9982V42.0786H319.531V40.4705H326.962V42.0786H324.234V48.9982H322.26Z" fill="#5C5C5C"></path><path d="M330.217 48.9982V40.4705H333.908C334.672 40.4705 335.33 40.5964 335.882 40.8482C336.434 41.0918 336.861 41.4451 337.161 41.908C337.462 42.371 337.612 42.9232 337.612 43.5649C337.612 44.1983 337.462 44.7466 337.161 45.2095C336.861 45.6643 336.434 46.0135 335.882 46.2572C335.33 46.5008 334.672 46.6227 333.908 46.6227H331.314L332.191 45.7577V48.9982H330.217ZM335.638 48.9982L333.506 45.9039H335.614L337.77 48.9982H335.638ZM332.191 45.977L331.314 45.0511H333.799C334.408 45.0511 334.863 44.9212 335.163 44.6613C335.464 44.3933 335.614 44.0278 335.614 43.5649C335.614 43.0938 335.464 42.7283 335.163 42.4684C334.863 42.2085 334.408 42.0786 333.799 42.0786H331.314L332.191 41.1405V45.977Z" fill="#5C5C5C"></path><path d="M343.184 43.906H347.289V45.441H343.184V43.906ZM343.33 47.4145H347.971V48.9982H341.368V40.4705H347.813V42.0542H343.33V47.4145Z" fill="#5C5C5C"></path><path d="M351.734 48.9982V40.4705H353.367L356.997 46.4886H356.132L359.702 40.4705H361.322L361.346 48.9982H359.495L359.483 43.309H359.824L356.973 48.0967H356.084L353.172 43.309H353.586V48.9982H351.734Z" fill="#5C5C5C"></path><path d="M364.442 48.9982L368.243 40.4705H370.192L374.005 48.9982H371.934L368.815 41.4695H369.595L366.464 48.9982H364.442ZM366.342 47.1709L366.866 45.6724H371.252L371.788 47.1709H366.342Z" fill="#5C5C5C"></path></g></g><defs><linearGradient id="paint0_linear_208_2" x1="374.852" y1="22.2671" x2="-3.84743" y2="23.6641" gradientUnits="userSpaceOnUse"><stop stop-color="#3CB960"></stop><stop offset="1" stop-color="#27BC70"></stop></linearGradient><linearGradient id="paint1_linear_208_2" x1="374.852" y1="22.2671" x2="-3.84743" y2="23.6641" gradientUnits="userSpaceOnUse"><stop stop-color="#3CB960"></stop><stop offset="1" stop-color="#27BC70"></stop></linearGradient><linearGradient id="paint2_linear_208_2" x1="374.852" y1="22.2671" x2="-3.84743" y2="23.6641" gradientUnits="userSpaceOnUse"><stop stop-color="#3CB960"></stop><stop offset="1" stop-color="#27BC70"></stop></linearGradient><linearGradient id="paint3_linear_208_2" x1="374.852" y1="22.2671" x2="-3.84743" y2="23.6641" gradientUnits="userSpaceOnUse"><stop stop-color="#3CB960"></stop><stop offset="1" stop-color="#27BC70"></stop></linearGradient><linearGradient id="paint4_linear_208_2" x1="374.852" y1="22.2671" x2="-3.84743" y2="23.6641" gradientUnits="userSpaceOnUse"><stop stop-color="#3CB960"></stop><stop offset="1" stop-color="#27BC70"></stop></linearGradient><linearGradient id="paint5_linear_208_2" x1="374.852" y1="22.2671" x2="-3.84743" y2="23.6641" gradientUnits="userSpaceOnUse"><stop stop-color="#3CB960"></stop><stop offset="1" stop-color="#27BC70"></stop></linearGradient><linearGradient id="paint6_linear_208_2" x1="374.852" y1="22.2671" x2="-3.84743" y2="23.6641" gradientUnits="userSpaceOnUse"><stop stop-color="#3CB960"></stop><stop offset="1" stop-color="#27BC70"></stop></linearGradient><linearGradient id="paint7_linear_208_2" x1="374.852" y1="22.2671" x2="-3.84743" y2="23.6641" gradientUnits="userSpaceOnUse"><stop stop-color="#3CB960"></stop><stop offset="1" stop-color="#27BC70"></stop></linearGradient><linearGradient id="paint8_linear_208_2" x1="374.852" y1="22.2671" x2="-3.84743" y2="23.6641" gradientUnits="userSpaceOnUse"><stop stop-color="#3CB960"></stop><stop offset="1" stop-color="#27BC70"></stop></linearGradient><linearGradient id="paint9_linear_208_2" x1="374.852" y1="22.2671" x2="-3.84743" y2="23.6641" gradientUnits="userSpaceOnUse"><stop stop-color="#3CB960"></stop><stop offset="1" stop-color="#27BC70"></stop></linearGradient><linearGradient id="paint10_linear_208_2" x1="374.852" y1="22.2671" x2="-3.84743" y2="23.6641" gradientUnits="userSpaceOnUse"><stop stop-color="#3CB960"></stop><stop offset="1" stop-color="#27BC70"></stop></linearGradient><clipPath id="clip0_208_2"><rect width="375" height="60" fill="white" transform="translate(0.00488281)"></rect></clipPath></defs></svg>