<svg xmlns="http://www.w3.org/2000/svg" width="583" height="115" viewBox="0 0 583 115" fill="none"><g clip-path="url(#clip0_2070_2)"><path d="M38.2222 69.5241C33.0333 69.5241 28.2768 68.6284 23.9526 66.837C19.6594 65.0147 16.0611 62.5438 13.1578 59.4242C10.2854 56.2738 8.04606 52.5983 6.43997 48.3977C4.86475 44.1663 4.07715 39.626 4.07715 34.7768C4.07715 28.1362 5.49793 22.206 8.33949 16.9861C11.1811 11.7354 15.1654 7.64298 20.2926 4.70876C25.4506 1.74366 31.3036 0.261108 37.8516 0.261108C44.0907 0.261108 49.6039 1.5429 54.3913 4.10648C59.1787 6.67006 62.7152 10.222 65.0008 14.7623C67.3173 19.2717 68.0123 24.2754 67.0857 29.7732H52.9551C53.8817 24.3989 52.9242 20.0748 50.0826 16.8008C47.2411 13.496 43.2258 11.8435 38.0369 11.8435C32.1067 11.8435 27.3193 14.0365 23.6747 18.4224C20.0301 22.7774 18.2078 28.2288 18.2078 34.7768C18.2078 41.51 20.0609 47.0542 23.7673 51.4092C27.5046 55.7642 32.3229 57.9417 38.2222 57.9417C42.8552 57.9417 46.7006 56.5981 49.7583 53.911C52.847 51.193 54.762 47.7028 55.5032 43.4404H70.0045C68.8617 51.4092 65.4178 57.7563 59.6729 62.482C53.9589 67.1767 46.8087 69.5241 38.2222 69.5241ZM104.129 44.5524V20.6462H117.055V68.0879H104.129V60.3045C102.492 63.1769 100.361 65.3853 97.7356 66.9296C95.1411 68.474 92.2224 69.2461 88.9793 69.2461C86.4466 69.2461 84.2228 68.7365 82.3078 67.7173C80.3928 66.698 78.8948 65.4471 77.8138 63.9645C76.7637 62.4511 75.9143 60.6597 75.2657 58.5903C74.617 56.49 74.1846 54.5596 73.9684 52.7991C73.7831 51.0385 73.6905 49.2008 73.6905 47.2858V20.6462H86.5701V47.2858C86.5701 54.7604 89.0102 58.4976 93.8902 58.4976C96.9789 58.4976 99.4498 57.2158 101.303 54.6523C103.187 52.0887 104.129 48.722 104.129 44.5524ZM149.419 19.21C153.373 19.21 156.539 20.569 158.917 23.287C161.295 25.9741 162.484 29.5261 162.484 33.9428C162.484 37.8036 161.635 41.4328 159.936 44.8303H146.547C148.369 41.7417 149.28 38.9619 149.28 36.491C149.28 34.6378 148.817 33.1707 147.89 32.0896C146.995 30.9777 145.759 30.4218 144.184 30.4218C141.837 30.4218 139.906 31.7344 138.393 34.3598C136.879 36.9852 136.123 40.4444 136.123 44.7377V68.0879H123.289V20.6462H136.123V28.7076C137.358 25.6807 139.119 23.3488 141.404 21.7118C143.69 20.0439 146.362 19.21 149.419 19.21ZM185.305 69.5241C178.386 69.5241 172.919 67.9335 168.904 64.7521C164.919 61.5399 163.02 57.1849 163.205 51.6871H175.622C175.467 54.0654 176.255 55.9495 177.984 57.3394C179.745 58.6984 182.185 59.3779 185.305 59.3779C187.837 59.3779 189.891 58.9455 191.466 58.0807C193.073 57.1849 193.876 56.0267 193.876 54.6059C193.876 53.5249 193.32 52.6446 192.208 51.9651C191.096 51.2547 189.66 50.6988 187.899 50.2973C186.139 49.8957 184.177 49.5096 182.015 49.139C179.884 48.7684 177.737 48.2742 175.575 47.6565C173.444 47.0078 171.498 46.2202 169.738 45.2936C167.977 44.3362 166.541 42.9771 165.429 41.2166C164.317 39.4252 163.761 37.3095 163.761 34.8694C163.761 30.082 165.723 26.283 169.645 23.4723C173.568 20.6307 178.602 19.21 184.749 19.21C189.135 19.21 192.995 19.9203 196.331 21.3411C199.667 22.731 202.184 24.8159 203.883 27.5957C205.612 30.3446 206.168 33.5259 205.551 37.1396H192.995C193.582 34.854 193.088 32.9854 191.513 31.5337C189.938 30.082 187.683 29.3562 184.749 29.3562C182.401 29.3562 180.533 29.8349 179.143 30.7924C177.753 31.719 177.058 32.8618 177.058 34.2208C177.058 35.3327 177.614 36.2439 178.726 36.9543C179.838 37.6647 181.274 38.2206 183.034 38.6221C184.795 38.9928 186.741 39.3634 188.872 39.7341C191.003 40.0738 193.134 40.5526 195.265 41.1703C197.428 41.788 199.389 42.5602 201.149 43.4868C202.91 44.4134 204.346 45.7724 205.458 47.5638C206.57 49.3243 207.126 51.4246 207.126 53.8646C207.126 58.7138 205.118 62.5438 201.103 65.3544C197.088 68.1342 191.822 69.5241 185.305 69.5241ZM252.045 62.621C247.505 67.2231 241.482 69.5241 233.977 69.5241C226.471 69.5241 220.433 67.2231 215.862 62.621C211.291 58.0189 209.005 51.9342 209.005 44.367C209.005 36.7998 211.291 30.7152 215.862 26.1131C220.433 21.511 226.471 19.21 233.977 19.21C241.482 19.21 247.505 21.511 252.045 26.1131C256.617 30.7152 258.902 36.7998 258.902 44.367C258.902 51.9342 256.617 58.0189 252.045 62.621ZM225.545 54.5596C227.676 57.1232 230.487 58.405 233.977 58.405C237.467 58.405 240.262 57.1232 242.363 54.5596C244.494 51.9651 245.559 48.5676 245.559 44.367C245.559 40.1047 244.494 36.7072 242.363 34.1745C240.262 31.6109 237.467 30.3291 233.977 30.3291C230.487 30.3291 227.676 31.6109 225.545 34.1745C223.445 36.7072 222.394 40.1047 222.394 44.367C222.394 48.5676 223.445 51.9651 225.545 54.5596Z" fill="url(#paint0_linear_2070_2)"></path><path d="M313.742 53.1697L331.579 1.651H345.802L321.247 68.0879H306.236L281.172 1.651H295.812L313.742 53.1697ZM375.435 52.7064H389.473C388.052 57.8953 385.21 62.0032 380.948 65.0301C376.716 68.0261 371.558 69.5241 365.474 69.5241C357.845 69.5241 351.76 67.2231 347.22 62.621C342.679 58.0189 340.409 51.9342 340.409 44.367C340.409 36.7998 342.695 30.7152 347.266 26.1131C351.868 21.511 357.937 19.21 365.474 19.21C368.871 19.21 372.006 19.7041 374.879 20.6925C377.751 21.65 380.145 23.009 382.06 24.7695C384.006 26.4992 385.565 28.5531 386.739 30.9314C387.944 33.2788 388.561 35.8578 388.592 38.6685C388.654 41.4483 388.222 44.3979 387.295 47.5175H353.984C354.447 50.9768 355.667 53.6639 357.644 55.5788C359.621 57.4629 362.292 58.405 365.659 58.405C368.037 58.405 370.06 57.9262 371.728 56.9687C373.427 55.9804 374.662 54.5596 375.435 52.7064ZM365.381 29.9585C362.354 29.9585 359.883 30.777 357.968 32.414C356.053 34.02 354.787 36.3674 354.169 39.4561H374.879C375.157 36.5527 374.462 34.2517 372.794 32.5529C371.157 30.8233 368.686 29.9585 365.381 29.9585ZM420.171 19.21C421.839 19.21 423.367 19.3953 424.757 19.7659C426.147 20.1366 427.336 20.6153 428.325 21.2021C429.313 21.7581 430.193 22.5148 430.966 23.4723C431.769 24.3989 432.417 25.2946 432.911 26.1594C433.406 26.9934 433.823 28.0435 434.162 29.3099C434.533 30.5453 434.795 31.5955 434.95 32.4603C435.104 33.2942 435.228 34.3598 435.321 35.657C435.413 36.9543 435.46 37.9118 435.46 38.5295C435.49 39.1472 435.506 39.9811 435.506 41.0313V68.0879H422.626V41.124C422.626 40.2591 422.611 39.5796 422.58 39.0854C422.58 38.5913 422.534 37.8963 422.441 37.0006C422.348 36.1049 422.209 35.3945 422.024 34.8694C421.869 34.3135 421.607 33.6957 421.236 33.0162C420.866 32.3058 420.418 31.7653 419.893 31.3947C419.399 30.9932 418.75 30.6534 417.947 30.3754C417.144 30.0975 416.233 29.9585 415.213 29.9585C412.125 29.9585 409.577 31.3329 407.569 34.0818C405.592 36.7998 404.604 40.3518 404.604 44.7377V68.0879H391.771V20.6462H404.604V29.0782C405.994 25.9587 408.032 23.5341 410.719 21.8044C413.437 20.0748 416.588 19.21 420.171 19.21ZM474.404 27.086V1.651H487.33V68.0879H474.404V61.7407C472.613 64.2425 470.374 66.1729 467.687 67.5319C465.03 68.8601 462.05 69.5241 458.745 69.5241C452.413 69.5241 447.224 67.2076 443.178 62.5746C439.132 57.9417 437.109 51.8725 437.109 44.367C437.109 36.8616 439.116 30.7924 443.132 26.1594C447.147 21.5264 452.32 19.21 458.652 19.21C465.385 19.21 470.636 21.8353 474.404 27.086ZM462.822 58.405C466.497 58.405 469.447 57.1232 471.671 54.5596C473.926 51.9651 475.053 48.5676 475.053 44.367C475.053 40.1665 473.926 36.7844 471.671 34.2208C469.447 31.6263 466.497 30.3291 462.822 30.3291C459.116 30.3291 456.135 31.6109 453.88 34.1745C451.626 36.7381 450.498 40.1356 450.498 44.367C450.498 48.5985 451.626 51.996 453.88 54.5596C456.135 57.1232 459.116 58.405 462.822 58.405ZM512.515 19.21C519.619 19.21 525.04 21.1713 528.777 25.0938C532.545 29.0164 534.429 34.3907 534.429 41.2166V68.0879H522.847V59.9338C519.202 66.3274 513.519 69.5241 505.797 69.5241C500.732 69.5241 496.717 68.196 493.752 65.5398C490.817 62.8835 489.35 59.4705 489.35 55.3009C489.35 50.5135 491.296 46.7607 495.188 44.0427C499.11 41.2938 504.438 39.9194 511.172 39.9194C514.755 39.9194 518.198 40.2591 521.503 40.9386C521.411 33.7421 518.384 30.1438 512.423 30.1438C509.952 30.1438 508.083 30.7306 506.817 31.9043C505.581 33.0471 505.164 34.6687 505.566 36.769H492.686C491.883 33.2479 492.3 30.1283 493.937 27.4103C495.574 24.6923 498.014 22.6538 501.257 21.2948C504.531 19.9049 508.284 19.21 512.515 19.21ZM508.716 59.7485C511.712 59.7485 514.384 58.8837 516.731 57.1541C519.079 55.4244 520.808 53.0925 521.92 50.1583C518.77 49.2008 515.604 48.722 512.423 48.722C505.658 48.722 502.276 50.7142 502.276 54.6986C502.276 56.3356 502.832 57.5865 503.944 58.4513C505.087 59.3161 506.678 59.7485 508.716 59.7485ZM558.039 69.5241C551.12 69.5241 545.653 67.9335 541.638 64.7521C537.654 61.5399 535.754 57.1849 535.94 51.6871H548.356C548.202 54.0654 548.989 55.9495 550.719 57.3394C552.479 58.6984 554.919 59.3779 558.039 59.3779C560.572 59.3779 562.626 58.9455 564.201 58.0807C565.807 57.1849 566.61 56.0267 566.61 54.6059C566.61 53.5249 566.054 52.6446 564.942 51.9651C563.83 51.2547 562.394 50.6988 560.633 50.2973C558.873 49.8957 556.912 49.5096 554.749 49.139C552.618 48.7684 550.472 48.2742 548.31 47.6565C546.178 47.0078 544.233 46.2202 542.472 45.2936C540.712 44.3362 539.275 42.9771 538.163 41.2166C537.052 39.4252 536.496 37.3095 536.496 34.8694C536.496 30.082 538.457 26.283 542.379 23.4723C546.302 20.6307 551.337 19.21 557.483 19.21C561.869 19.21 565.73 19.9203 569.065 21.3411C572.401 22.731 574.918 24.8159 576.617 27.5957C578.347 30.3446 578.903 33.5259 578.285 37.1396H565.73C566.316 34.854 565.822 32.9854 564.247 31.5337C562.672 30.082 560.417 29.3562 557.483 29.3562C555.136 29.3562 553.267 29.8349 551.877 30.7924C550.487 31.719 549.792 32.8618 549.792 34.2208C549.792 35.3327 550.348 36.2439 551.46 36.9543C552.572 37.6647 554.008 38.2206 555.769 38.6221C557.529 38.9928 559.475 39.3634 561.606 39.7341C563.737 40.0738 565.869 40.5526 568 41.1703C570.162 41.788 572.123 42.5602 573.884 43.4868C575.644 44.4134 577.08 45.7724 578.192 47.5638C579.304 49.3243 579.86 51.4246 579.86 53.8646C579.86 58.7138 577.853 62.5438 573.837 65.3544C569.822 68.1342 564.556 69.5241 558.039 69.5241Z" fill="url(#paint1_linear_2070_2)"></path><path d="M301.694 26.9453H250.209V53.4097H301.694V26.9453Z" fill="#D1DBFF"></path><path d="M270.012 32.5266V21.7031H275.512V49.9742H270.012V47.2732C269.249 48.3378 268.296 49.1593 267.153 49.7376C266.023 50.3027 264.754 50.5853 263.348 50.5853C260.654 50.5853 258.446 49.5996 256.724 47.6281C255.002 45.6566 254.141 43.074 254.141 39.8802C254.141 36.6864 254.995 34.1037 256.704 32.1323C258.413 30.1608 260.614 29.175 263.308 29.175C266.174 29.175 268.408 30.2922 270.012 32.5266ZM265.083 45.8538C266.647 45.8538 267.902 45.3083 268.848 44.2174C269.808 43.1134 270.288 41.6676 270.288 39.8802C270.288 38.0927 269.808 36.6535 268.848 35.5626C267.902 34.4586 266.647 33.9066 265.083 33.9066C263.506 33.9066 262.237 34.452 261.278 35.5429C260.318 36.6338 259.839 38.0796 259.839 39.8802C259.839 41.6808 260.318 43.1265 261.278 44.2174C262.237 45.3083 263.506 45.8538 265.083 45.8538Z" fill="url(#paint2_linear_2070_2)"></path><path d="M292.123 43.4288H298.096C297.492 45.6369 296.283 47.3849 294.469 48.673C292.668 49.9479 290.473 50.5854 287.884 50.5854C284.638 50.5854 282.049 49.6062 280.117 47.6479C278.184 45.6896 277.218 43.1003 277.218 39.8802C277.218 36.6601 278.191 34.0709 280.136 32.1125C282.095 30.1542 284.677 29.175 287.884 29.175C289.33 29.175 290.664 29.3854 291.886 29.806C293.109 30.2134 294.127 30.7916 294.942 31.5408C295.77 32.2768 296.434 33.1509 296.933 34.1629C297.446 35.1618 297.709 36.2592 297.722 37.4553C297.748 38.6381 297.564 39.8933 297.17 41.2208H282.995C283.192 42.6928 283.711 43.8363 284.552 44.6512C285.394 45.4529 286.53 45.8539 287.963 45.8539C288.975 45.8539 289.836 45.65 290.546 45.2426C291.269 44.822 291.794 44.2174 292.123 43.4288ZM287.845 33.749C286.557 33.749 285.505 34.0972 284.69 34.7938C283.876 35.4772 283.337 36.4762 283.074 37.7905H291.886C292.005 36.555 291.709 35.5759 290.999 34.853C290.303 34.117 289.251 33.749 287.845 33.749Z" fill="url(#paint3_linear_2070_2)"></path><path d="M78.3652 97.733H86.1939C88.1163 97.733 89.6058 98.1938 90.6623 99.1153C91.7189 100.037 92.2471 101.351 92.2471 103.059C92.2471 104.767 91.7149 106.102 90.6504 107.063C89.5939 108.024 88.1084 108.505 86.1939 108.505H81.8804V114.82H78.3652V97.733ZM81.8804 105.621H86.1939C86.9724 105.621 87.5682 105.403 87.9813 104.966C88.4023 104.529 88.6128 103.901 88.6128 103.083C88.6128 102.281 88.4063 101.669 87.9932 101.248C87.5801 100.827 86.9803 100.617 86.1939 100.617H81.8804V105.621ZM117.704 107.254V111.937H126.534V114.82H114.189V97.733H126.283V100.617H117.704V104.37H125.02V107.254H117.704ZM152.479 97.733V111.937H161.309V114.82H148.964V97.733H152.479ZM199.146 114.82H195.536L194.237 111.4H186.623L185.336 114.82H181.57L188.207 97.733H192.485L199.146 114.82ZM190.436 101.248L187.695 108.529H193.164L190.436 101.248ZM249.512 114.82H245.997V97.733H249.512V114.82ZM284.013 110.4V97.733H287.528V114.82H282.666L276.256 101.475V114.82H272.741V97.733H277.912L284.013 110.4ZM309.458 97.733H324.567V100.617H318.776V114.82H315.237V100.617H309.458V97.733ZM350.024 107.254V111.937H358.854V114.82H346.509V97.733H358.603V100.617H350.024V104.37H357.34V107.254H350.024ZM392.58 107.325C393.661 107.865 394.467 108.759 394.999 110.006C395.539 111.246 395.865 112.85 395.976 114.82H392.437C392.318 112.501 391.988 110.836 391.448 109.828C390.908 108.811 390.014 108.302 388.767 108.302H384.799V114.82H381.284V97.733H389.458C391.389 97.733 392.89 98.1859 393.962 99.0915C395.043 99.9971 395.583 101.244 395.583 102.833C395.583 103.905 395.321 104.827 394.797 105.597C394.28 106.368 393.541 106.944 392.58 107.325ZM384.799 100.617V105.597H389.411C390.237 105.597 390.864 105.383 391.293 104.954C391.73 104.525 391.949 103.901 391.949 103.083C391.949 102.281 391.73 101.669 391.293 101.248C390.864 100.827 390.237 100.617 389.411 100.617H384.799ZM429.667 110.4V97.733H433.182V114.82H428.32L421.91 101.475V114.82H418.395V97.733H423.566L429.667 110.4ZM459.926 107.254V111.937H468.756V114.82H456.411V97.733H468.505V100.617H459.926V104.37H467.242V107.254H459.926ZM489.887 97.733H504.996V100.617H499.205V114.82H495.666V100.617H489.887V97.733Z" fill="url(#paint4_linear_2070_2)"></path><path d="M582.218 105.857H532.176V106.819H582.218V105.857Z" fill="url(#paint5_linear_2070_2)"></path><path d="M0.000190735 105.857H50.042V106.819H0.000190735V105.857Z" fill="url(#paint6_linear_2070_2)"></path></g><defs><linearGradient id="paint0_linear_2070_2" x1="131" y1="36.0879" x2="131" y2="68.0879" gradientUnits="userSpaceOnUse"><stop stop-color="#242D3A"></stop><stop offset="1" stop-color="#000813"></stop></linearGradient><linearGradient id="paint1_linear_2070_2" x1="431.523" y1="36.0879" x2="431.523" y2="68.0879" gradientUnits="userSpaceOnUse"><stop stop-color="#242D3A"></stop><stop offset="1" stop-color="#000813"></stop></linearGradient><linearGradient id="paint2_linear_2070_2" x1="276.297" y1="36.0874" x2="276.297" y2="49.9739" gradientUnits="userSpaceOnUse"><stop stop-color="#242D3A"></stop><stop offset="1" stop-color="#000813"></stop></linearGradient><linearGradient id="paint3_linear_2070_2" x1="276.297" y1="36.0874" x2="276.297" y2="49.9739" gradientUnits="userSpaceOnUse"><stop stop-color="#242D3A"></stop><stop offset="1" stop-color="#000813"></stop></linearGradient><linearGradient id="paint4_linear_2070_2" x1="506.506" y1="109.561" x2="76.5295" y2="106.406" gradientUnits="userSpaceOnUse"><stop offset="0.179" stop-color="#217AAA"></stop><stop offset="0.904" stop-color="#1FB3E3"></stop></linearGradient><linearGradient id="paint5_linear_2070_2" x1="532.176" y1="106.339" x2="582.218" y2="106.339" gradientUnits="userSpaceOnUse"><stop stop-color="#000813"></stop><stop offset="1" stop-color="#000813" stop-opacity="0"></stop></linearGradient><linearGradient id="paint6_linear_2070_2" x1="50.042" y1="106.338" x2="0.000190735" y2="106.338" gradientUnits="userSpaceOnUse"><stop stop-color="#000813"></stop><stop offset="1" stop-color="#000813" stop-opacity="0"></stop></linearGradient><clipPath id="clip0_2070_2"><rect width="583" height="115" fill="white"></rect></clipPath></defs></svg>