<svg xmlns="http://www.w3.org/2000/svg" width="27" height="31" viewBox="0 0 27 31" fill="none"><g clip-path="url(#clip0_2013_14)"><mask id="mask0_2013_14" style="mask-type:luminance" maskUnits="userSpaceOnUse" x="0" y="0" width="27" height="31"><path d="M27 0H0V31H27V0Z" fill="white"></path></mask><g mask="url(#mask0_2013_14)"><mask id="mask1_2013_14" style="mask-type:luminance" maskUnits="userSpaceOnUse" x="0" y="0" width="27" height="31"><path d="M27 0H0V31H27V0Z" fill="white"></path></mask><g mask="url(#mask1_2013_14)"><path fill-rule="evenodd" clip-rule="evenodd" d="M7.27768 4.31166C9.0455 3.13046 11.1239 2.5 13.25 2.5C15.3761 2.5 17.4545 3.13046 19.2223 4.31166C20.9901 5.49286 22.368 7.17175 23.1816 9.13602C23.9953 11.1003 24.2082 13.2617 23.7935 15.347C23.3787 17.4323 22.3549 19.3478 20.8516 20.8512L14.4867 27.2161C14.3244 27.3785 14.1318 27.5074 13.9197 27.5953C13.7076 27.6832 13.4803 27.7284 13.2508 27.7284C13.0212 27.7284 12.7939 27.6832 12.5818 27.5953C12.3697 27.5074 12.1765 27.378 12.0143 27.2156L5.64841 20.8512C4.14505 19.3478 3.12127 17.4323 2.70652 15.347C2.29178 13.2617 2.5047 11.1003 3.31835 9.13602C4.13201 7.17175 5.50987 5.49286 7.27768 4.31166ZM26.2454 15.8347C25.7342 18.4049 24.4724 20.7658 22.6194 22.6189L16.2549 28.9834C15.8606 29.378 15.3923 29.6911 14.877 29.9047C14.3614 30.1184 13.8088 30.2284 13.2508 30.2284C12.6927 30.2284 12.1401 30.1184 11.6245 29.9047C11.109 29.691 10.6406 29.3778 10.2462 28.983L3.8806 22.6189C2.02762 20.7658 0.76575 18.4049 0.254551 15.8347C-0.256648 13.2645 0.0057863 10.6004 1.00867 8.17928C2.01155 5.7582 3.70983 3.68888 5.88877 2.23298C8.06771 0.777081 10.6294 0 13.25 0C15.8706 0 18.4323 0.777081 20.6112 2.23298C22.7902 3.68888 24.4885 5.7582 25.4913 8.17928C26.4942 10.6004 26.7566 13.2645 26.2454 15.8347ZM10.9519 10.9515C11.5614 10.342 12.388 9.99963 13.25 9.99963C14.112 9.99963 14.9386 10.342 15.5481 10.9515C16.1576 11.561 16.5 12.3877 16.5 13.2496C16.5 14.1116 16.1576 14.9382 15.5481 15.5477C14.9386 16.1572 14.112 16.4996 13.25 16.4996C12.388 16.4996 11.5614 16.1572 10.9519 15.5477C10.3424 14.9382 10 14.1116 10 13.2496C10 12.3877 10.3424 11.561 10.9519 10.9515ZM13.25 7.49963C11.725 7.49963 10.2625 8.10543 9.18413 9.18377C8.1058 10.2621 7.5 11.7246 7.5 13.2496C7.5 14.7746 8.1058 16.2372 9.18413 17.3155C10.2625 18.3938 11.725 18.9996 13.25 18.9996C14.775 18.9996 16.2375 18.3938 17.3159 17.3155C18.3942 16.2372 19 14.7746 19 13.2496C19 11.7246 18.3942 10.2621 17.3159 9.18377C16.2375 8.10543 14.775 7.49963 13.25 7.49963Z" fill="url(#paint0_linear_2013_14)"></path></g></g></g><defs><linearGradient id="paint0_linear_2013_14" x1="-2.45501" y1="6.30363e-07" x2="19.614" y2="35.8765" gradientUnits="userSpaceOnUse"><stop stop-color="#27BC70"></stop><stop offset="1" stop-color="#3CB960"></stop></linearGradient><clipPath id="clip0_2013_14"><rect width="27" height="31" fill="white"></rect></clipPath></defs></svg>