<svg xmlns="http://www.w3.org/2000/svg" width="27" height="27" viewBox="0 0 27 27" fill="none"><g clip-path="url(#clip0_2013_44)"><mask id="mask0_2013_44" style="mask-type:luminance" maskUnits="userSpaceOnUse" x="0" y="0" width="27" height="27"><path d="M27 0H0V27H27V0Z" fill="white"></path></mask><g mask="url(#mask0_2013_44)"><mask id="mask1_2013_44" style="mask-type:luminance" maskUnits="userSpaceOnUse" x="0" y="0" width="27" height="27"><path d="M27 0H0V27H27V0Z" fill="white"></path></mask><g mask="url(#mask1_2013_44)"><path fill-rule="evenodd" clip-rule="evenodd" d="M1.14717 1.14717C1.88168 0.412647 2.8779 0 3.91667 0H22.5833C23.6221 0 24.6183 0.412648 25.3528 1.14717C26.0874 1.88168 26.5 2.8779 26.5 3.91667V17.25C26.5 18.2888 26.0874 19.285 25.3528 20.0195C24.6183 20.754 23.6221 21.1667 22.5833 21.1667H17.851L18.3787 23.2776L19.4672 24.3661C19.8247 24.7236 19.9317 25.2613 19.7382 25.7284C19.5447 26.1954 19.0889 26.5 18.5833 26.5H7.91667C7.41109 26.5 6.95529 26.1954 6.76182 25.7284C6.56834 25.2613 6.67529 24.7236 7.03278 24.3661L8.1213 23.2776L8.64903 21.1667H3.91667C2.8779 21.1667 1.88168 20.754 1.14717 20.0195C0.412648 19.285 0 18.2888 0 17.25V3.91667C0 2.8779 0.412647 1.88168 1.14717 1.14717ZM2.5 15.8333V17.25C2.5 17.6257 2.64926 17.9861 2.91493 18.2517C3.18061 18.5174 3.54094 18.6667 3.91667 18.6667H10.2219C10.24 18.6663 10.2581 18.6663 10.2762 18.6667H16.2238C16.2419 18.6663 16.26 18.6663 16.2781 18.6667H22.5833C22.9591 18.6667 23.3194 18.5174 23.5851 18.2517C23.8507 17.9861 24 17.6257 24 17.25V15.8333H2.5ZM24 13.3333H2.5V3.91667C2.5 3.54094 2.64926 3.18061 2.91493 2.91493C3.18061 2.64926 3.54094 2.5 3.91667 2.5H22.5833C22.9591 2.5 23.3194 2.64926 23.5851 2.91493C23.8507 3.18061 24 3.54094 24 3.91667V13.3333ZM15.274 21.1667H11.226L10.5176 24H15.9824L15.274 21.1667Z" fill="url(#paint0_linear_2013_44)"></path></g></g></g><defs><linearGradient id="paint0_linear_2013_44" x1="-2.45501" y1="-4.56105e-07" x2="15.6565" y2="33.5856" gradientUnits="userSpaceOnUse"><stop stop-color="#27BC70"></stop><stop offset="1" stop-color="#3CB960"></stop></linearGradient><clipPath id="clip0_2013_44"><rect width="27" height="27" fill="white"></rect></clipPath></defs></svg>