<svg xmlns="http://www.w3.org/2000/svg" width="27" height="27" viewBox="0 0 27 27" fill="none"><g clip-path="url(#clip0_2013_74)"><mask id="mask0_2013_74" style="mask-type:luminance" maskUnits="userSpaceOnUse" x="0" y="0" width="27" height="27"><path d="M27 0H0V27H27V0Z" fill="white"></path></mask><g mask="url(#mask0_2013_74)"><mask id="mask1_2013_74" style="mask-type:luminance" maskUnits="userSpaceOnUse" x="0" y="0" width="27" height="27"><path d="M27 0H0V27H27V0Z" fill="white"></path></mask><g mask="url(#mask1_2013_74)"><path fill-rule="evenodd" clip-rule="evenodd" d="M21.6891 0.0797651C22.1768 0.262809 22.4999 0.729126 22.4999 1.25006V5.48473C23.4244 5.71139 24.2781 6.18728 24.9623 6.87155C25.9469 7.85617 26.5 9.1916 26.5 10.584C26.5 11.9765 25.9469 13.3119 24.9623 14.2965C24.2781 14.9808 23.4244 15.4567 22.4999 15.6834V19.918C22.4999 20.439 22.1768 20.9053 21.6891 21.0883C21.2014 21.2714 20.6513 21.1327 20.3086 20.7405C19.4781 19.7899 18.0156 18.8859 16.0212 18.2206C15.1476 17.9291 14.1895 17.6895 13.1663 17.5129V22.9049C13.1657 23.7519 12.8662 24.5724 12.3205 25.2203C11.7749 25.8682 11.0181 26.3027 10.1835 26.4473C9.34896 26.5919 8.49012 26.4373 7.75834 26.0107C7.02656 25.5842 6.4688 24.9131 6.1833 24.1156L6.17996 24.1063L3.48881 16.3972C2.32689 15.7782 1.3729 14.8225 0.756248 13.6494C0.0499551 12.3057 -0.170444 10.7593 0.132344 9.27183C0.435132 7.78435 1.24251 6.44716 2.41787 5.48655C3.59322 4.52594 5.06436 4.00091 6.58232 4.00033H9.02553C9.96378 4.00033 10.8754 3.94955 11.75 3.85396C11.7682 3.85153 11.7866 3.8495 11.8051 3.84787C13.3453 3.67589 14.7696 3.36483 16.0207 2.94749C18.0154 2.2821 19.4781 1.37811 20.3086 0.427624C20.6513 0.0353295 21.2014 -0.103279 21.6891 0.0797651ZM10.6663 6.45259C10.1272 6.48416 9.57971 6.50033 9.02553 6.50033H6.58327C6.58343 6.50033 6.58311 6.50033 6.58327 6.50033C5.64181 6.5008 4.72893 6.82648 3.99993 7.42229C3.27081 8.01819 2.76994 8.84772 2.5821 9.7705C2.39427 10.6933 2.531 11.6526 2.96915 12.4862C3.39964 13.3051 4.09511 13.9532 4.94117 14.3251C4.97131 14.3366 5.00099 14.3492 5.03014 14.3629C5.52204 14.5649 6.04892 14.6685 6.58097 14.6677H6.58279H9.02553C9.57973 14.6677 10.1272 14.6839 10.6663 14.7155V6.45259ZM13.1663 14.9797V6.18826C14.4654 5.98709 15.6905 5.69305 16.8118 5.31902C17.9793 4.92956 19.0595 4.44469 19.9999 3.87038V17.2976C19.0596 16.7233 17.9797 16.2385 16.8123 15.8491C15.691 15.475 14.4657 15.1809 13.1663 14.9797ZM22.4999 13.0338C22.7541 12.9041 22.9889 12.7344 23.1945 12.5288C23.7102 12.013 24 11.3135 24 10.584C24 9.8546 23.7102 9.15505 23.1945 8.63928C22.9889 8.43368 22.7541 8.264 22.4999 8.13427V13.0338ZM10.6663 17.2202C10.1302 17.1856 9.58259 17.1677 9.02553 17.1677H6.58321M10.6663 17.2202V22.904C10.6663 22.9043 10.6663 22.9037 10.6663 22.904C10.6659 23.162 10.5746 23.4125 10.4084 23.6098C10.242 23.8074 10.0112 23.9399 9.75676 23.984C9.50229 24.028 9.24042 23.9809 9.01729 23.8508C8.79532 23.7215 8.62584 23.5183 8.53837 23.2768L6.405 17.1655" fill="url(#paint0_linear_2013_74)"></path></g></g></g><defs><linearGradient id="paint0_linear_2013_74" x1="-2.45501" y1="3.73027e-08" x2="15.6567" y2="33.5857" gradientUnits="userSpaceOnUse"><stop stop-color="#27BC70"></stop><stop offset="1" stop-color="#3CB960"></stop></linearGradient><clipPath id="clip0_2013_74"><rect width="27" height="27" fill="white"></rect></clipPath></defs></svg>