<svg xmlns="http://www.w3.org/2000/svg" width="28" height="28" viewBox="0 0 28 28" fill="none"><g clip-path="url(#clip0_2013_64)"><mask id="mask0_2013_64" style="mask-type:luminance" maskUnits="userSpaceOnUse" x="0" y="0" width="28" height="28"><path d="M28 0H0V28H28V0Z" fill="white"></path></mask><g mask="url(#mask0_2013_64)"><mask id="mask1_2013_64" style="mask-type:luminance" maskUnits="userSpaceOnUse" x="0" y="0" width="28" height="28"><path d="M28 0H0V28H28V0Z" fill="white"></path></mask><g mask="url(#mask1_2013_64)"><path fill-rule="evenodd" clip-rule="evenodd" d="M27.3219 1.22964C27.2744 0.748715 26.9539 0.338255 26.4989 0.17551C26.3956 0.13857 26.2896 0.115895 26.1834 0.106908C19.7229 -0.526271 14.8985 1.73075 11.5298 4.82349C10.7791 5.51273 10.101 6.2428 9.49249 6.99091C6.69615 6.55022 4.52166 7.34476 2.9543 8.64321C1.31578 10.0006 0.410853 11.845 0.0486166 13.1899C-0.167686 13.9929 0.365327 14.74 1.10157 14.8897L6.13922 15.9143L8.82767 18.6028L8.83654 18.6116L11.563 21.338L12.5876 26.3758C12.7373 27.1121 13.4844 27.6451 14.2875 27.4288C15.6323 27.0665 17.4767 26.1616 18.8341 24.5231C20.1442 22.9417 20.9413 20.7422 20.4743 17.9096C21.2103 17.3084 21.9284 16.6397 22.607 15.9006C25.7025 12.5288 27.9608 7.69881 27.3219 1.22964ZM14.7735 24.5801L14.1495 21.5118C15.3607 21.0783 16.7258 20.4447 18.1084 19.5922C18.0882 21.0412 17.5774 22.1213 16.9089 22.9282C16.2912 23.6739 15.5094 24.2181 14.7735 24.5801ZM5.90623 13.3158C6.335 12.11 6.96283 10.7497 7.80839 9.37049C6.39794 9.40731 5.34173 9.91182 4.54918 10.5684C3.80353 11.1861 3.2593 11.968 2.89733 12.7038L5.90623 13.3158ZM13.2205 6.66508C15.9454 4.16344 19.7576 2.28222 24.91 2.52049C25.1482 7.67288 23.267 11.485 20.7654 14.2098C18.3222 16.8711 15.276 18.5013 13.0186 19.2581L10.5955 16.835L10.5866 16.8262L8.1723 14.4119C8.92909 12.1545 10.5593 9.1083 13.2205 6.66508ZM5.55454 18.6714C5.68285 19.2499 5.32273 19.8243 4.74606 19.9608L4.59291 19.9971C4.09874 20.1316 3.3975 20.5048 2.88612 21.2286C2.37669 21.9496 1.98187 23.1242 2.31625 24.9948C4.17052 25.3263 5.34033 24.9407 6.0612 24.4397C6.79864 23.9272 7.17786 23.2174 7.31382 22.7182L7.35009 22.565C7.48662 21.9883 8.06097 21.6282 8.63952 21.7565C9.21807 21.8848 9.58632 22.454 9.46626 23.0343C9.2643 24.0104 8.60844 25.3093 7.29837 26.2198C5.97852 27.1371 4.11016 27.5815 1.63236 27.0705L1.62567 27.0691C1.58216 27.0601 1.53846 27.0508 1.49458 27.0413C1.18423 26.9734 0.93418 26.7789 0.78698 26.5237C0.531994 26.3765 0.337567 26.1265 0.269768 25.8163C0.259948 25.7714 0.250442 25.7267 0.241242 25.6821C-0.275991 23.1788 0.1827 21.2981 1.11566 19.9777C2.02477 18.691 3.30892 18.0449 4.27675 17.8446C4.85707 17.7246 5.42623 18.0928 5.55454 18.6714ZM16.4971 10.8396C16.8417 11.1841 17.4003 11.1841 17.7449 10.8396C18.0895 10.495 18.0895 9.93639 17.7449 9.59183C17.4003 9.24727 16.8417 9.24727 16.4971 9.59183C16.1526 9.93639 16.1526 10.495 16.4971 10.8396ZM14.7294 12.6074C16.0502 13.9282 18.1918 13.9282 19.5127 12.6074C20.8335 11.2865 20.8335 9.14493 19.5127 7.82406C18.1918 6.5032 16.0503 6.5032 14.7294 7.82406C13.4085 9.14493 13.4085 11.2865 14.7294 12.6074ZM11.728 15.6086C12.2201 16.1007 13.018 16.1007 13.51 15.6086C14.0021 15.1165 14.0021 14.3187 13.51 13.8266C13.018 13.3345 12.2201 13.3345 11.728 13.8266C11.236 14.3187 11.236 15.1165 11.728 15.6086Z" fill="url(#paint0_linear_2013_64)"></path></g></g></g><defs><linearGradient id="paint0_linear_2013_64" x1="-2.54122" y1="-2.04811e-07" x2="16.256" y2="34.7975" gradientUnits="userSpaceOnUse"><stop stop-color="#27BC70"></stop><stop offset="1" stop-color="#3CB960"></stop></linearGradient><clipPath id="clip0_2013_64"><rect width="28" height="28" fill="white"></rect></clipPath></defs></svg>