<svg xmlns="http://www.w3.org/2000/svg" width="24" height="33" viewBox="0 0 24 33" fill="none"><g clip-path="url(#clip0_2013_34)"><mask id="mask0_2013_34" style="mask-type:luminance" maskUnits="userSpaceOnUse" x="0" y="0" width="24" height="33"><path d="M24 0H0V33H24V0Z" fill="white"></path></mask><g mask="url(#mask0_2013_34)"><mask id="mask1_2013_34" style="mask-type:luminance" maskUnits="userSpaceOnUse" x="0" y="0" width="24" height="33"><path d="M24 0H0V33H24V0Z" fill="white"></path></mask><g mask="url(#mask1_2013_34)"><path fill-rule="evenodd" clip-rule="evenodd" d="M0 2.50635V3.47785V27.7057C0 30.0879 1.93112 32.019 4.31329 32.019H19.6297C22.0119 32.019 23.943 30.0879 23.943 27.7057V6.9557V4.4557H3.47785C2.9378 4.4557 2.5 4.0179 2.5 3.47785C2.5 2.9378 2.9378 2.5 3.47785 2.5H23.943V0H3.47785C1.89428 0 0.557907 1.05837 0.137505 2.50635H0ZM11.6898 6.9557H21.443V27.7057C21.443 28.7072 20.6312 29.519 19.6297 29.519H4.31329C3.31184 29.519 2.5 28.7072 2.5 27.7057V6.81634C2.81019 6.90705 3.13834 6.9557 3.47785 6.9557H3.89868V13.5272C3.89868 14.8889 5.54508 15.5709 6.50796 14.608L7.79425 13.3217L9.08054 14.608C10.0434 15.5709 11.6898 14.8889 11.6898 13.5272V6.9557ZM9.18982 6.9557H6.39868V11.1817L6.71345 10.8669C7.31036 10.27 8.27814 10.27 8.87505 10.8669L9.18982 11.1817V6.9557Z" fill="url(#paint0_linear_2013_34)"></path></g></g></g><defs><linearGradient id="paint0_linear_2013_34" x1="-2.21813" y1="4.69113e-07" x2="22.6329" y2="34.4598" gradientUnits="userSpaceOnUse"><stop stop-color="#27BC70"></stop><stop offset="1" stop-color="#3CB960"></stop></linearGradient><clipPath id="clip0_2013_34"><rect width="24" height="33" fill="white"></rect></clipPath></defs></svg>