<svg xmlns="http://www.w3.org/2000/svg" width="28" height="28" viewBox="0 0 28 28" fill="none"><g clip-path="url(#clip0_2013_54)"><mask id="mask0_2013_54" style="mask-type:luminance" maskUnits="userSpaceOnUse" x="0" y="0" width="28" height="28"><path d="M28 0H0V28H28V0Z" fill="white"></path></mask><g mask="url(#mask0_2013_54)"><mask id="mask1_2013_54" style="mask-type:luminance" maskUnits="userSpaceOnUse" x="0" y="0" width="28" height="28"><path d="M28 0H0V28H28V0Z" fill="white"></path></mask><g mask="url(#mask1_2013_54)"><path fill-rule="evenodd" clip-rule="evenodd" d="M0.75 2C0.75 1.30964 1.30964 0.75 2 0.75H4.66667C5.26252 0.75 5.77554 1.17058 5.8924 1.75486L6.22476 3.41667H26C26.4332 3.41667 26.8356 3.64099 27.0633 4.00951C27.2911 4.37803 27.3118 4.8382 27.118 5.22569L21.7847 15.8923C21.573 16.3158 21.1402 16.5833 20.6667 16.5833H7.8511L5.15989 19.2746C5.14476 19.2897 5.13908 19.2997 5.13719 19.3034C5.13513 19.3073 5.13412 19.3106 5.13349 19.3142C5.13201 19.3227 5.13183 19.3415 5.14171 19.3654C5.15159 19.3893 5.165 19.4024 5.17206 19.4074C5.17505 19.4095 5.17804 19.4111 5.18229 19.4124C5.1862 19.4137 5.19727 19.4167 5.21867 19.4167H21.8075C21.8417 19.4167 21.8756 19.4181 21.9091 19.4208C21.9667 19.4183 22.0245 19.417 22.0827 19.417C24.2458 19.417 25.9994 21.1705 25.9994 23.3337C25.9994 25.4968 24.2458 27.2503 22.0827 27.2503C19.9196 27.2503 18.166 25.4968 18.166 23.3337C18.166 22.834 18.2596 22.3561 18.4302 21.9167H8.59847C8.76906 22.3561 8.86264 22.834 8.86264 23.3337C8.86264 25.4968 7.10908 27.2503 4.94597 27.2503C2.78285 27.2503 1.0293 25.4968 1.0293 23.3337C1.0293 21.985 1.71095 20.7955 2.74854 20.091C2.48456 19.2395 2.64692 18.252 3.39212 17.5068L5.97641 14.9225L3.97427 4.91182L3.64191 3.25H2C1.30964 3.25 0.75 2.69036 0.75 2ZM8.35808 14.0833H19.8942L23.9775 5.91667H6.72476L8.35808 14.0833ZM4.94597 21.917C4.16356 21.917 3.5293 22.5513 3.5293 23.3337C3.5293 24.1161 4.16356 24.7503 4.94597 24.7503C5.72837 24.7503 6.36264 24.1161 6.36264 23.3337C6.36264 22.5513 5.72837 21.917 4.94597 21.917ZM20.666 23.3337C20.666 22.5513 21.3003 21.917 22.0827 21.917C22.8651 21.917 23.4994 22.5513 23.4994 23.3337C23.4994 24.1161 22.8651 24.7503 22.0827 24.7503C21.3003 24.7503 20.666 24.1161 20.666 23.3337Z" fill="url(#paint0_linear_2013_54)"></path></g></g></g><defs><linearGradient id="paint0_linear_2013_54" x1="-1.70501" y1="0.75" x2="16.4069" y2="34.3358" gradientUnits="userSpaceOnUse"><stop stop-color="#27BC70"></stop><stop offset="1" stop-color="#3CB960"></stop></linearGradient><clipPath id="clip0_2013_54"><rect width="28" height="28" fill="white"></rect></clipPath></defs></svg>