<svg xmlns="http://www.w3.org/2000/svg" width="27" height="27" viewBox="0 0 27 27" fill="none"><g clip-path="url(#clip0_2013_24)"><mask id="mask0_2013_24" style="mask-type:luminance" maskUnits="userSpaceOnUse" x="0" y="0" width="27" height="27"><path d="M27 0H0V27H27V0Z" fill="white"></path></mask><g mask="url(#mask0_2013_24)"><mask id="mask1_2013_24" style="mask-type:luminance" maskUnits="userSpaceOnUse" x="0" y="0" width="27" height="27"><path d="M27 0H0V27H27V0Z" fill="white"></path></mask><g mask="url(#mask1_2013_24)"><path fill-rule="evenodd" clip-rule="evenodd" d="M3.91667 2.5C3.54094 2.5 3.18061 2.64926 2.91493 2.91493C2.64926 3.18061 2.5 3.54094 2.5 3.91667V5.25C2.5 15.605 10.895 24 21.25 24H22.5833C22.9591 24 23.3194 23.8507 23.5851 23.5851C23.8507 23.3194 24 22.9591 24 22.5833V18.2113C24 18.1938 23.9945 18.1765 23.9843 18.1623C23.974 18.1481 23.9596 18.1375 23.943 18.132L17.953 16.1348C17.9531 16.1349 17.9529 16.1348 17.953 16.1348C17.9341 16.1286 17.9133 16.1293 17.8948 16.137C17.8763 16.1446 17.8612 16.1587 17.8522 16.1767L17.8517 16.1776L16.3451 19.1869C16.0447 19.787 15.3241 20.0427 14.7126 19.7665C11.1707 18.1661 8.33388 15.3293 6.73355 11.7874C6.45726 11.1759 6.71305 10.4553 7.31306 10.1549L10.3233 8.6478C10.3413 8.63884 10.3554 8.62371 10.363 8.60519C10.3707 8.58672 10.3715 8.56612 10.3652 8.54714C10.3652 8.5472 10.3652 8.54708 10.3652 8.54714L8.36817 2.55736C8.36265 2.54078 8.35192 2.52598 8.33775 2.51575C8.32362 2.50556 8.30666 2.50005 8.28924 2.5H3.91667ZM1.14717 1.14717C1.88168 0.412647 2.8779 0 3.91667 0H8.29C8.83197 0.000411868 9.36103 0.171266 9.80054 0.488379C10.24 0.805493 10.5687 1.2528 10.7399 1.767L12.7375 7.75837C12.9336 8.34824 12.9104 8.98904 12.6722 9.5632C12.434 10.1374 11.9968 10.6064 11.4407 10.8842L9.55421 11.8287C10.7611 13.9689 12.5311 15.7389 14.6713 16.9458L15.6158 15.0593C15.6159 15.0591 15.6157 15.0596 15.6158 15.0593C15.6158 15.0593 15.6162 15.0585 15.6163 15.0584C15.8941 14.5028 16.363 14.0659 16.9368 13.8278C17.511 13.5896 18.1518 13.5664 18.7416 13.7625L24.733 15.7601C24.7331 15.7601 24.7329 15.76 24.733 15.7601C25.2475 15.9315 25.6953 16.2606 26.0124 16.7005C26.3295 17.1405 26.5001 17.669 26.5 18.2113C26.5 18.2114 26.5 18.2112 26.5 18.2113V22.5833C26.5 23.6221 26.0874 24.6183 25.3528 25.3528C24.6183 26.0874 23.6221 26.5 22.5833 26.5H21.25C9.51431 26.5 0 16.9857 0 5.25V3.91667C0 2.8779 0.412647 1.88168 1.14717 1.14717Z" fill="url(#paint0_linear_2013_24)"></path></g></g></g><defs><linearGradient id="paint0_linear_2013_24" x1="-2.45501" y1="-4.56105e-07" x2="15.6565" y2="33.5856" gradientUnits="userSpaceOnUse"><stop stop-color="#27BC70"></stop><stop offset="1" stop-color="#3CB960"></stop></linearGradient><clipPath id="clip0_2013_24"><rect width="27" height="27" fill="white"></rect></clipPath></defs></svg>