<svg xmlns="http://www.w3.org/2000/svg" width="23" height="32" viewBox="0 0 23 32" fill="none"><g clip-path="url(#clip0_2013_84)"><mask id="mask0_2013_84" style="mask-type:luminance" maskUnits="userSpaceOnUse" x="0" y="0" width="23" height="32"><path d="M23 0H0V32H23V0Z" fill="white"></path></mask><g mask="url(#mask0_2013_84)"><mask id="mask1_2013_84" style="mask-type:luminance" maskUnits="userSpaceOnUse" x="0" y="0" width="23" height="32"><path d="M23 0H0V32H23V0Z" fill="white"></path></mask><g mask="url(#mask1_2013_84)"><path fill-rule="evenodd" clip-rule="evenodd" d="M18.7778 2.5H4.22222C3.27106 2.5 2.5 3.27106 2.5 4.22222V21.75H20.5V4.22222C20.5 3.27106 19.7289 2.5 18.7778 2.5ZM2.5 27.7778V24.25H20.5V27.7778C20.5 28.7289 19.7289 29.5 18.7778 29.5H4.22222C3.27107 29.5 2.5 28.7289 2.5 27.7778ZM4.22222 0C1.89035 0 0 1.89035 0 4.22222V27.7778C0 30.1096 1.89035 32 4.22222 32H18.7778C21.1096 32 23 30.1096 23 27.7778V4.22222C23 1.89035 21.1096 0 18.7778 0H4.22222ZM9 25.75C8.30964 25.75 7.75 26.3096 7.75 27C7.75 27.6904 8.30964 28.25 9 28.25H14C14.6904 28.25 15.25 27.6904 15.25 27C15.25 26.3096 14.6904 25.75 14 25.75H9Z" fill="url(#paint0_linear_2013_84)"></path></g></g></g><defs><linearGradient id="paint0_linear_2013_84" x1="-2.13077" y1="4.64641e-07" x2="23" y2="33.4951" gradientUnits="userSpaceOnUse"><stop stop-color="#27BC70"></stop><stop offset="1" stop-color="#3CB960"></stop></linearGradient><clipPath id="clip0_2013_84"><rect width="23" height="32" fill="white"></rect></clipPath></defs></svg>