<svg xmlns="http://www.w3.org/2000/svg" width="292" height="289" viewBox="0 0 292 289" fill="none"><g clip-path="url(#clip0_2013_182)"><mask id="mask0_2013_182" style="mask-type:luminance" maskUnits="userSpaceOnUse" x="0" y="0" width="292" height="289"><path d="M292 0H0V289H292V0Z" fill="white"></path></mask><g mask="url(#mask0_2013_182)"><path fill-rule="evenodd" clip-rule="evenodd" d="M264 145C264 210.17 211.169 263 146 263C80.8304 263 28 210.17 28 145C28 79.8304 80.8304 27 146 27C211.169 27 264 79.8304 264 145ZM146 216C185.212 216 217 184.212 217 145C217 105.788 185.212 74 146 74C106.788 74 74.9999 105.788 74.9999 145C74.9999 184.212 106.788 216 146 216Z" fill="white"></path><path d="M117.442 5.10957C121.398 0.155893 128.525 -0.866216 133.714 2.77592L138.934 6.44039C143.069 9.34282 148.579 9.34474 152.716 6.44519L157.939 2.78437C163.13 -0.854142 170.256 0.172955 174.208 5.12939L178.185 10.1163C181.335 14.0661 186.621 15.6202 191.407 14.0036L197.45 11.9626C203.456 9.93399 210.004 12.9271 212.4 18.7963L214.811 24.7015C216.72 29.3787 221.354 32.3591 226.402 32.1565L232.775 31.9006C239.109 31.6463 244.549 36.3629 245.194 42.6694L245.843 49.0145C246.358 54.0402 249.964 58.2055 254.865 59.4332L261.052 60.9832C267.201 62.5238 271.092 68.5818 269.934 74.8146L268.769 81.0856C267.847 86.0526 270.134 91.0653 274.49 93.6239L279.99 96.8542C285.456 100.065 287.482 106.974 284.615 112.628L281.731 118.317C279.447 122.823 280.229 128.277 283.688 131.959L288.055 136.608C292.395 141.228 292.392 148.428 288.049 153.045L283.679 157.691C280.217 161.371 279.431 166.825 281.713 171.332L284.593 177.023C287.456 182.679 285.425 189.586 279.956 192.793L274.454 196.02C270.097 198.575 267.806 203.586 268.725 208.554L269.885 214.826C271.038 221.06 267.144 227.115 260.993 228.651L254.805 230.197C249.904 231.421 246.294 235.584 245.777 240.609L245.123 246.954C244.473 253.26 239.03 257.973 232.696 257.714L226.323 257.454C221.276 257.247 216.639 260.225 214.727 264.9L212.312 270.804C209.912 276.671 203.362 279.66 197.357 277.627L191.316 275.582C186.531 273.962 181.244 275.513 178.091 279.46L174.111 284.444C170.155 289.398 163.028 290.42 157.84 286.778L152.619 283.113C148.484 280.211 142.974 280.209 138.837 283.109L133.614 286.769C128.423 290.408 121.297 289.381 117.345 284.424L113.368 279.438C110.218 275.488 104.932 273.934 100.146 275.55L94.1032 277.591C88.0971 279.62 81.5493 276.627 79.1533 270.758L76.7427 264.852C74.8333 260.175 70.1992 257.195 65.1514 257.397L58.7782 257.653C52.4439 257.907 47.0045 253.191 46.3592 246.884L45.7099 240.539C45.1956 235.514 41.5889 231.348 36.6884 230.121L30.5014 228.571C24.352 227.03 20.4618 220.972 21.6193 214.739L22.7839 208.468C23.7064 203.501 21.4192 198.488 17.0632 195.93L11.5634 192.7C6.09721 189.489 4.07128 182.58 6.93791 176.926L9.82212 171.237C12.1066 166.731 11.3243 161.277 7.86554 157.595L3.49866 152.946C-0.841612 148.326 -0.839094 141.126 3.5044 136.508L7.87452 131.863C11.3359 128.183 12.1219 122.729 9.84063 118.222L6.96039 112.531C4.0977 106.875 6.12847 99.9673 11.5969 96.7605L17.0989 93.534C21.4568 90.9785 23.7474 85.9673 22.8284 80.9997L21.6682 74.7279C20.515 68.4943 24.4095 62.439 30.5599 60.9027L36.7481 59.357C41.6494 58.1327 45.259 53.9699 45.7768 48.9446L46.4305 42.6C47.0803 36.294 52.523 31.5812 58.8571 31.8399L65.23 32.1002C70.2777 32.3064 74.9139 29.3292 76.8265 24.6533L79.2413 18.7498C81.6413 12.8823 88.1913 9.89374 94.196 11.9266L100.237 13.9718C105.023 15.5917 110.31 14.0413 113.462 10.0937L117.442 5.10957Z" fill="url(#paint0_linear_2013_182)"></path><path d="M146 228L149.056 233.793L155.51 234.91L150.945 239.607L151.878 246.09L146 243.2L140.122 246.09L141.054 239.607L136.489 234.91L142.943 233.793L146 228Z" fill="white"></path><path d="M119.431 188C119.364 188 119.304 187.98 119.251 187.94C119.211 187.887 119.191 187.827 119.191 187.76V174.24C119.191 174.173 119.211 174.12 119.251 174.08C119.304 174.027 119.364 174 119.431 174H124.531C125.571 174 126.491 174.18 127.291 174.54C128.091 174.9 128.711 175.413 129.151 176.08C129.591 176.747 129.811 177.513 129.811 178.38V183.62C129.811 184.487 129.591 185.253 129.151 185.92C128.711 186.587 128.091 187.1 127.291 187.46C126.491 187.82 125.571 188 124.531 188H119.431ZM122.511 185.06C122.511 185.127 122.544 185.16 122.611 185.16H124.671C125.204 185.16 125.637 184.973 125.971 184.6C126.304 184.213 126.477 183.7 126.491 183.06V178.94C126.491 178.3 126.317 177.793 125.971 177.42C125.637 177.033 125.197 176.84 124.651 176.84H122.611C122.544 176.84 122.511 176.873 122.511 176.94V185.06Z" fill="white"></path><path d="M135.794 188C135.727 188 135.667 187.98 135.614 187.94C135.574 187.887 135.554 187.827 135.554 187.76V174.24C135.554 174.173 135.574 174.12 135.614 174.08C135.667 174.027 135.727 174 135.794 174H138.634C138.701 174 138.754 174.027 138.794 174.08C138.847 174.12 138.874 174.173 138.874 174.24V187.76C138.874 187.827 138.847 187.887 138.794 187.94C138.754 187.98 138.701 188 138.634 188H135.794Z" fill="white"></path><path d="M153.987 188C153.84 188 153.747 187.933 153.707 187.8L153.187 186.02C153.16 185.967 153.127 185.94 153.087 185.94H148.527C148.487 185.94 148.454 185.967 148.427 186.02L147.907 187.8C147.867 187.933 147.774 188 147.627 188H144.567C144.487 188 144.427 187.98 144.387 187.94C144.347 187.887 144.34 187.813 144.367 187.72L148.647 174.2C148.687 174.067 148.774 174 148.907 174H152.687C152.82 174 152.907 174.067 152.947 174.2L157.247 187.72C157.26 187.747 157.267 187.78 157.267 187.82C157.267 187.94 157.194 188 157.047 188H153.987ZM149.227 183.26C149.214 183.34 149.24 183.38 149.307 183.38H152.287C152.367 183.38 152.394 183.34 152.367 183.26L150.847 178.12C150.834 178.067 150.814 178.047 150.787 178.06C150.76 178.06 150.74 178.08 150.727 178.12L149.227 183.26Z" fill="white"></path><path d="M166.876 188.16C165.769 188.16 164.803 187.987 163.976 187.64C163.163 187.28 162.529 186.773 162.076 186.12C161.636 185.453 161.416 184.687 161.416 183.82V183.44C161.416 183.373 161.436 183.32 161.476 183.28C161.529 183.227 161.589 183.2 161.656 183.2H164.436C164.503 183.2 164.556 183.227 164.596 183.28C164.649 183.32 164.676 183.373 164.676 183.44V183.68C164.676 184.12 164.896 184.507 165.336 184.84C165.776 185.16 166.369 185.32 167.116 185.32C167.703 185.32 168.136 185.193 168.416 184.94C168.696 184.687 168.836 184.393 168.836 184.06C168.836 183.793 168.749 183.58 168.576 183.42C168.416 183.247 168.196 183.107 167.916 183C167.636 182.88 167.203 182.72 166.616 182.52C166.536 182.48 166.456 182.453 166.376 182.44C166.296 182.413 166.223 182.387 166.156 182.36C165.289 182.08 164.536 181.78 163.896 181.46C163.256 181.127 162.709 180.673 162.256 180.1C161.803 179.513 161.576 178.793 161.576 177.94C161.576 177.113 161.789 176.393 162.216 175.78C162.656 175.153 163.263 174.673 164.036 174.34C164.809 174.007 165.683 173.84 166.656 173.84C167.683 173.84 168.603 174.027 169.416 174.4C170.243 174.773 170.889 175.3 171.356 175.98C171.823 176.66 172.056 177.44 172.056 178.32V178.6C172.056 178.667 172.029 178.727 171.976 178.78C171.936 178.82 171.883 178.84 171.816 178.84H169.036C168.969 178.84 168.909 178.82 168.856 178.78C168.816 178.727 168.796 178.667 168.796 178.6V178.46C168.796 177.993 168.589 177.58 168.176 177.22C167.763 176.86 167.209 176.68 166.516 176.68C165.996 176.68 165.589 176.787 165.296 177C165.003 177.213 164.856 177.513 164.856 177.9C164.856 178.193 164.949 178.44 165.136 178.64C165.323 178.827 165.609 179.007 165.996 179.18C166.396 179.34 167.003 179.553 167.816 179.82C168.749 180.14 169.476 180.42 169.996 180.66C170.516 180.9 171.003 181.293 171.456 181.84C171.923 182.373 172.156 183.08 172.156 183.96C172.156 184.827 171.936 185.573 171.496 186.2C171.056 186.827 170.436 187.313 169.636 187.66C168.849 187.993 167.929 188.16 166.876 188.16Z" fill="white"></path><path d="M115.462 228.729C116.419 229.078 117.193 229.578 117.783 230.228C118.362 230.873 118.727 231.617 118.881 232.46C119.022 233.298 118.927 234.172 118.595 235.082L117.251 238.762C116.918 239.672 116.43 240.395 115.786 240.933C115.126 241.479 114.367 241.812 113.509 241.933C112.639 242.049 111.725 241.932 110.767 241.583C109.822 241.237 109.052 240.746 108.457 240.108C107.858 239.483 107.477 238.781 107.314 238.002C107.139 237.219 107.191 236.445 107.471 235.679L107.503 235.589C107.525 235.529 107.569 235.484 107.634 235.453C107.683 235.431 107.738 235.43 107.798 235.452L110.347 236.383C110.407 236.405 110.454 236.443 110.489 236.496C110.507 236.557 110.505 236.617 110.484 236.677C110.313 237.144 110.336 237.6 110.554 238.046C110.754 238.499 111.136 238.828 111.698 239.033C112.249 239.235 112.757 239.217 113.224 238.98C113.69 238.743 114.028 238.338 114.238 237.763L115.647 233.904C115.857 233.329 115.842 232.795 115.602 232.3C115.362 231.805 114.961 231.455 114.399 231.25C113.872 231.058 113.397 231.04 112.973 231.197C112.545 231.367 112.239 231.703 112.056 232.205L111.872 232.708C111.85 232.768 111.869 232.809 111.929 232.83L113.724 233.486C113.784 233.508 113.832 233.546 113.866 233.599C113.885 233.66 113.883 233.72 113.861 233.78L113.14 235.755C113.118 235.815 113.083 235.856 113.034 235.879C112.968 235.909 112.906 235.914 112.846 235.892L108.25 234.213C108.19 234.191 108.151 234.15 108.133 234.089C108.098 234.036 108.091 233.979 108.113 233.919L109.005 231.478C109.333 230.58 109.825 229.864 110.481 229.331C111.125 228.793 111.88 228.472 112.745 228.367C113.599 228.259 114.504 228.379 115.462 228.729Z" fill="white"></path><path d="M96.6071 219.416C96.7259 219.49 96.7678 219.591 96.7327 219.72L96.253 221.425C96.2476 221.482 96.2611 221.521 96.2935 221.541L99.9893 223.85C100.022 223.87 100.063 223.865 100.111 223.835L101.434 222.656C101.534 222.568 101.643 222.561 101.762 222.636L104.242 224.185C104.307 224.225 104.345 224.272 104.358 224.325C104.363 224.388 104.331 224.451 104.262 224.513L93.9481 233.304C93.8482 233.392 93.7442 233.402 93.6362 233.334L90.5726 231.421C90.4645 231.353 90.428 231.255 90.4631 231.127L93.8231 217.992C93.8258 217.964 93.8373 217.933 93.8576 217.901C93.9183 217.804 94.0081 217.792 94.127 217.866L96.6071 219.416ZM98.0651 225.667C98.1164 225.609 98.115 225.563 98.061 225.53L95.6458 224.021C95.5809 223.98 95.5391 223.999 95.5202 224.078L94.1498 229.013C94.1336 229.063 94.1397 229.089 94.168 229.092C94.1896 229.105 94.216 229.099 94.247 229.074L98.0651 225.667Z" fill="white"></path><path d="M82.6635 207.928C82.7552 208.016 82.7797 208.119 82.7369 208.237L80.8347 213.463C80.8177 213.518 80.8275 213.563 80.8642 213.598L81.7728 214.473C81.8187 214.517 81.8637 214.516 81.9079 214.47L85.3815 210.864C85.4257 210.818 85.4838 210.794 85.5559 210.793C85.6099 210.792 85.6599 210.813 85.7058 210.858L87.6606 212.74C87.7065 212.784 87.7345 212.838 87.7447 212.901C87.7369 212.964 87.7109 213.019 87.6667 213.064L78.7043 222.37C78.6601 222.416 78.611 222.44 78.557 222.441C78.4849 222.442 78.4259 222.421 78.38 222.377L74.2915 218.439C73.6857 217.856 73.2728 217.219 73.0525 216.529C72.8323 215.84 72.8193 215.146 73.0134 214.448C73.1895 213.751 73.5604 213.109 74.1261 212.522C74.7183 211.907 75.3824 211.52 76.1183 211.362C76.8543 211.204 77.5902 211.285 78.3261 211.605C78.3897 211.63 78.4344 211.612 78.4602 211.548L80.289 206.012C80.306 205.958 80.3234 205.921 80.341 205.903C80.4117 205.83 80.4976 205.842 80.5985 205.939L82.6635 207.928ZM78.0738 218.314C78.1197 218.358 78.1648 218.357 78.209 218.311L80.0916 216.356C80.1358 216.31 80.1349 216.265 80.089 216.221L78.561 214.75C78.2214 214.423 77.8577 214.249 77.4699 214.229C77.0732 214.219 76.7246 214.37 76.424 214.682C76.1147 215.003 75.9728 215.361 75.9982 215.757C76.0237 216.153 76.2062 216.515 76.5458 216.842L78.0738 218.314Z" fill="white"></path><path d="M70.9183 193.238C70.997 193.354 70.9943 193.464 70.9103 193.567L69.7815 194.933C69.7536 194.983 69.7504 195.023 69.7719 195.055L72.2179 198.661C72.2394 198.693 72.2783 198.705 72.3348 198.697L74.0215 198.154C74.1484 198.114 74.2512 198.152 74.3299 198.268L75.9713 200.688C76.0142 200.751 76.0306 200.809 76.0204 200.863C75.9997 200.923 75.9452 200.967 75.8571 200.996L62.8688 204.864C62.7419 204.904 62.6426 204.871 62.5711 204.765L60.5435 201.776C60.472 201.67 60.4782 201.566 60.5622 201.463L68.9481 190.81C68.9621 190.785 68.9849 190.762 69.0165 190.741C69.1114 190.676 69.1982 190.702 69.2769 190.818L70.9183 193.238ZM69.7229 199.545C69.7933 199.513 69.8106 199.47 69.7749 199.418L68.1764 197.061C68.1335 196.997 68.0875 196.998 68.0386 197.062L64.7889 201.021C64.7538 201.06 64.7487 201.087 64.7736 201.101C64.7879 201.122 64.8144 201.127 64.8532 201.116L69.7229 199.545Z" fill="white"></path><path d="M50.4704 181.608C50.4112 181.632 50.3568 181.633 50.3071 181.612C50.2409 181.584 50.1959 181.54 50.1722 181.481L49.1623 178.962C49.1386 178.903 49.1433 178.846 49.1764 178.791C49.1929 178.73 49.2307 178.687 49.2899 178.663L61.2821 173.856C61.3413 173.832 61.404 173.835 61.4702 173.863C61.5199 173.884 61.5566 173.924 61.5804 173.984L62.5475 176.396C62.5949 176.515 62.5808 176.616 62.5052 176.702L57.3641 183.498C57.3381 183.536 57.3358 183.565 57.3571 183.583C57.3666 183.607 57.395 183.609 57.4423 183.591L64.1054 180.899C64.1645 180.875 64.2272 180.877 64.2935 180.906C64.3432 180.927 64.3799 180.967 64.4036 181.026L65.4135 183.545C65.4372 183.605 65.4407 183.665 65.4242 183.726C65.3911 183.781 65.345 183.82 65.2859 183.844L53.2936 188.651C53.2345 188.675 53.1801 188.676 53.1304 188.655C53.0641 188.626 53.0191 188.583 52.9954 188.524L52.0211 186.093C51.9737 185.975 51.9879 185.873 52.0635 185.788L57.1939 179.016C57.2199 178.978 57.2282 178.947 57.2187 178.924C57.1974 178.905 57.1631 178.905 57.1158 178.924L50.4704 181.608Z" fill="white"></path><path d="M44.4703 159.199C44.459 159.136 44.4749 159.082 44.5183 159.035C44.5468 158.978 44.5924 158.944 44.655 158.932L46.8929 158.526C46.9555 158.515 47.0165 158.53 47.0758 158.571C47.1202 158.601 47.1481 158.648 47.1595 158.711L47.7568 162.002C47.7681 162.064 47.8052 162.09 47.8679 162.079L58.0226 160.236C58.0853 160.224 58.1463 160.239 58.2055 160.28C58.25 160.311 58.2779 160.358 58.2893 160.42L58.7739 163.091C58.7853 163.153 58.7767 163.213 58.7482 163.27C58.7049 163.317 58.6519 163.346 58.5892 163.357L48.4344 165.2C48.3718 165.212 48.3461 165.249 48.3575 165.311L48.9343 168.489C48.9457 168.552 48.9371 168.612 48.9086 168.669C48.8653 168.716 48.8123 168.745 48.7496 168.756L46.5118 169.162C46.4491 169.174 46.3955 169.164 46.3511 169.133C46.2919 169.092 46.2566 169.04 46.2452 168.978L44.4703 159.199Z" fill="white"></path><path d="M57.0788 148.85C57.0799 148.914 57.0618 148.972 57.0244 149.023C56.9741 149.062 56.9171 149.082 56.8534 149.084L43.9353 149.302C43.8716 149.303 43.8203 149.284 43.7814 149.247C43.7296 149.197 43.7031 149.14 43.7021 149.076L43.6563 146.363C43.6552 146.299 43.6798 146.247 43.7301 146.208C43.7675 146.157 43.818 146.13 43.8817 146.129L56.7998 145.911C56.8635 145.91 56.9213 145.935 56.9731 145.985C57.012 146.022 57.032 146.073 57.033 146.137L57.0788 148.85Z" fill="white"></path><path d="M58.5468 129.038C58.5246 129.176 58.4476 129.254 58.3158 129.272L56.5576 129.494C56.5032 129.511 56.473 129.538 56.467 129.576L55.7779 133.879C55.7718 133.916 55.7919 133.952 55.8382 133.985L57.4393 134.745C57.559 134.803 57.6078 134.901 57.5857 135.039L57.1232 137.927C57.1111 138.002 57.0832 138.056 57.0394 138.087C56.983 138.117 56.9128 138.112 56.8288 138.073L44.7182 131.991C44.5985 131.933 44.5486 131.841 44.5688 131.716L45.14 128.149C45.1602 128.023 45.2362 127.951 45.3681 127.934L58.7753 125.92C58.8024 125.911 58.8349 125.91 58.8727 125.916C58.9859 125.934 59.0314 126.012 59.0093 126.151L58.5468 129.038ZM53.3548 132.813C53.4283 132.838 53.4701 132.819 53.4801 132.756L53.9305 129.944C53.9426 129.868 53.9089 129.837 53.8294 129.85L48.7496 130.508C48.6972 130.512 48.6753 130.528 48.6839 130.555C48.6799 130.58 48.6957 130.602 48.7314 130.621L53.3548 132.813Z" fill="white"></path><path d="M65.1321 108.471C65.1043 108.529 65.0621 108.572 65.0055 108.601C64.9429 108.613 64.883 108.605 64.8257 108.577L53.201 102.939C53.1437 102.911 53.1062 102.872 53.0885 102.821C53.0649 102.753 53.067 102.69 53.0948 102.632L54.2792 100.191C54.307 100.133 54.3522 100.099 54.4147 100.086C54.4714 100.057 54.5283 100.057 54.5857 100.084L66.2103 105.723C66.2676 105.751 66.3081 105.799 66.3317 105.867C66.3494 105.918 66.3444 105.972 66.3166 106.029L65.1321 108.471Z" fill="white"></path><path d="M64.0216 84.7135C63.9697 84.6764 63.9394 84.6312 63.9305 84.5779C63.9187 84.5068 63.9314 84.4453 63.9684 84.3935L65.5471 82.1859C65.5841 82.1341 65.6345 82.1075 65.6982 82.106C65.7589 82.0868 65.8152 82.0957 65.867 82.1328L76.3763 89.6481C76.4282 89.6852 76.46 89.7393 76.4718 89.8104C76.4806 89.8637 76.4665 89.9163 76.4295 89.9681L74.9175 92.0824C74.8434 92.186 74.7501 92.2289 74.6375 92.2111L66.1418 91.5399C66.0959 91.5384 66.0707 91.5517 66.0663 91.5799C66.0515 91.6006 66.0648 91.6258 66.1062 91.6554L71.9627 95.82C72.0146 95.8571 72.0464 95.9111 72.0582 95.9822C72.0671 96.0356 72.053 96.0881 72.0159 96.14L70.4372 98.3475C70.4002 98.3994 70.3513 98.4349 70.2905 98.4541C70.2269 98.4555 70.1691 98.4377 70.1173 98.4007L59.608 90.8854C59.5562 90.8483 59.5258 90.8031 59.517 90.7498C59.5051 90.6787 59.5178 90.6172 59.5548 90.5654L61.0779 88.4356C61.152 88.3319 61.2454 88.289 61.3579 88.3068L69.8269 88.9825C69.8728 88.984 69.9032 88.9743 69.918 88.9536C69.9225 88.9255 69.904 88.8966 69.8625 88.8669L64.0216 84.7135Z" fill="white"></path><path d="M85.3921 80.7428C84.6451 81.4363 83.8524 81.9028 83.014 82.1421C82.185 82.3728 81.3647 82.3694 80.5531 82.1319C79.7508 81.8857 79.0246 81.4125 78.3744 80.7121L75.5656 77.6867C74.924 76.9957 74.5146 76.2457 74.3373 75.4367C74.1606 74.6097 74.2181 73.7914 74.5096 72.9818C74.8104 72.1635 75.3344 71.4076 76.0814 70.7141C76.8284 70.0205 77.6121 69.5538 78.4324 69.3137C79.2534 69.0557 80.0521 69.0358 80.8284 69.2539C81.6053 69.4541 82.2972 69.881 82.904 70.5346C82.9474 70.5813 82.9634 70.636 82.952 70.6987C82.95 70.7527 82.9257 70.8014 82.879 70.8447L81.0071 72.8173C80.895 72.9214 80.7913 72.922 80.696 72.8193C80.2885 72.3804 79.8327 72.1516 79.3285 72.1329C78.8243 72.1142 78.3575 72.3042 77.9279 72.703C77.4984 73.1018 77.2786 73.558 77.2685 74.0715C77.2498 74.5757 77.4399 75.0425 77.8386 75.4721L80.7905 78.6516C81.1893 79.0811 81.6408 79.3052 82.145 79.324C82.6491 79.3427 83.116 79.1526 83.5456 78.7539C83.9751 78.3551 84.1992 77.9036 84.2179 77.3994C84.2366 76.8952 84.0466 76.4283 83.6478 75.9988C83.5525 75.8961 83.5608 75.7927 83.6729 75.6887L85.7528 73.9402C85.7995 73.8969 85.8499 73.8762 85.9039 73.8782C85.9673 73.8715 86.0163 73.8869 86.051 73.9242C86.6665 74.5872 87.0495 75.3182 87.2002 76.1172C87.3602 76.9075 87.2854 77.7071 86.9759 78.5161C86.667 79.307 86.1391 80.0493 85.3921 80.7428Z" fill="white"></path><path d="M99.199 70.2814C98.3208 70.8235 97.4385 71.1286 96.5522 71.1967C95.6699 71.2472 94.847 71.0664 94.0835 70.6543C93.32 70.2422 92.6772 69.6133 92.1551 68.7676L90.1471 65.515C89.6384 64.6911 89.3743 63.8509 89.3547 62.9945C89.3284 62.1272 89.5388 61.316 89.986 60.5607C90.4373 59.788 91.1021 59.1305 91.9803 58.5884C92.8585 58.0462 93.7441 57.7465 94.6372 57.6893C95.5236 57.6213 96.3485 57.7933 97.1121 58.2054C97.8689 58.6067 98.5017 59.2193 99.0104 60.0433L101.019 63.2959C101.541 64.1415 101.815 64.998 101.841 65.8652C101.867 66.7325 101.655 67.5525 101.204 68.3252C100.746 69.0872 100.078 69.7392 99.199 70.2814ZM97.7734 67.972C98.2938 67.6508 98.6074 67.225 98.7144 66.6948C98.8321 66.1579 98.717 65.6076 98.3689 65.0438L96.2906 61.6774C95.9493 61.1244 95.5122 60.7803 94.9795 60.645C94.4509 60.4922 93.9264 60.5764 93.406 60.8977C92.8964 61.2123 92.5861 61.6434 92.475 62.1912C92.3681 62.7214 92.4853 63.263 92.8267 63.8159L94.9049 67.1823C95.253 67.7461 95.688 68.099 96.2099 68.241C96.7426 68.3763 97.2638 68.2866 97.7734 67.972Z" fill="white"></path><path d="M112.501 49.2562C112.479 49.1964 112.479 49.142 112.502 49.0929C112.532 49.0275 112.577 48.9839 112.637 48.9619L115.185 48.0278C115.245 48.0059 115.301 48.0123 115.355 48.047C115.416 48.0653 115.457 48.1044 115.479 48.1642L119.926 60.2948C119.948 60.3546 119.944 60.4172 119.914 60.4826C119.891 60.5317 119.85 60.5672 119.79 60.5891L117.349 61.4837C117.23 61.5276 117.128 61.5104 117.045 61.4323L110.405 56.0904C110.368 56.0633 110.34 56.0601 110.32 56.0808C110.296 56.0896 110.293 56.1179 110.311 56.1657L112.802 62.9064C112.824 62.9662 112.82 63.0288 112.79 63.0942C112.767 63.1432 112.726 63.1787 112.666 63.2006L110.118 64.1348C110.058 64.1568 109.997 64.1585 109.936 64.1402C109.883 64.1055 109.845 64.0581 109.823 63.9983L105.376 51.8678C105.355 51.8079 105.355 51.7535 105.378 51.7045C105.408 51.6391 105.453 51.5954 105.513 51.5735L107.971 50.6723C108.091 50.6284 108.192 50.6456 108.275 50.7237L114.891 56.0542C114.928 56.0814 114.958 56.0905 114.982 56.0818C115.002 56.061 115.003 56.0267 114.985 55.9789L112.501 49.2562Z" fill="white"></path><path d="M127.738 58.5648C127.675 58.5743 127.615 58.5639 127.559 58.5337C127.514 58.489 127.486 58.4352 127.477 58.3722L125.551 45.5966C125.541 45.5336 125.552 45.4804 125.585 45.4369C125.627 45.3789 125.68 45.3451 125.743 45.3356L130.562 44.609C131.545 44.4608 132.44 44.4998 133.247 44.726C134.055 44.9522 134.714 45.3489 135.224 45.9162C135.735 46.4834 136.052 47.1766 136.176 47.9955L136.922 52.947C137.046 53.7659 136.947 54.5217 136.626 55.2144C136.306 55.907 135.793 56.4804 135.088 56.9346C134.384 57.3887 133.54 57.6899 132.557 57.8381L127.738 58.5648ZM130.229 55.3478C130.239 55.4108 130.275 55.4375 130.338 55.428L132.285 55.1345C132.789 55.0585 133.172 54.8204 133.433 54.4201C133.693 54.0073 133.784 53.4975 133.705 52.8908L133.118 48.9977C133.027 48.3929 132.791 47.9389 132.41 47.6355C132.04 47.3176 131.597 47.1976 131.08 47.2755L129.153 47.5662C129.09 47.5757 129.063 47.6119 129.073 47.6749L130.229 55.3478Z" fill="white"></path><path d="M145.045 56.8404C144.981 56.8396 144.924 56.8197 144.874 56.7808C144.836 56.7294 144.818 56.6718 144.819 56.6081L144.987 43.6892C144.988 43.6255 145.007 43.5748 145.046 43.5371C145.098 43.4868 145.155 43.462 145.219 43.4629L147.933 43.4982C147.997 43.499 148.047 43.5252 148.085 43.5766C148.135 43.6155 148.16 43.6668 148.159 43.7305L147.991 56.6494C147.99 56.7131 147.964 56.7701 147.912 56.8204C147.874 56.8581 147.822 56.8765 147.759 56.8757L145.045 56.8404Z" fill="white"></path><path d="M161.062 58.3503C160.058 58.1721 159.208 57.8207 158.512 57.2959C157.828 56.7734 157.337 56.1167 157.037 55.3259C156.75 54.5373 156.69 53.6726 156.857 52.7317L157.579 48.6669C157.743 47.7386 158.095 46.9599 158.634 46.3308C159.187 45.6914 159.875 45.2441 160.697 44.9888C161.531 44.7358 162.45 44.6983 163.454 44.8765C164.457 45.0546 165.302 45.3987 165.988 45.9087C166.689 46.4084 167.186 47.0337 167.48 47.7846C167.788 48.5252 167.864 49.3346 167.708 50.2128C167.697 50.2756 167.663 50.3213 167.606 50.35C167.562 50.381 167.509 50.3909 167.446 50.3797L164.744 50.0747C164.593 50.048 164.53 49.9657 164.555 49.8277C164.659 49.238 164.567 48.7364 164.278 48.3228C163.989 47.9091 163.556 47.6511 162.979 47.5487C162.402 47.4462 161.906 47.5457 161.49 47.8472C161.076 48.1361 160.818 48.5691 160.716 49.1462L159.957 53.4179C159.855 53.995 159.948 54.4904 160.237 54.904C160.526 55.3176 160.959 55.5757 161.536 55.6781C162.113 55.7806 162.609 55.6873 163.022 55.3984C163.436 55.1095 163.694 54.6765 163.796 54.0994C163.821 53.9614 163.908 53.9058 164.059 53.9325L166.708 54.5386C166.77 54.5497 166.817 54.5774 166.848 54.6217C166.892 54.6683 166.909 54.7166 166.9 54.7668C166.742 55.6575 166.39 56.4038 165.843 57.0055C165.308 57.6095 164.625 58.0317 163.793 58.2722C162.976 58.5024 162.065 58.5285 161.062 58.3503Z" fill="white"></path><path d="M173.43 61.2804C173.37 61.2593 173.322 61.2222 173.287 61.1692C173.268 61.1085 173.269 61.048 173.29 60.9879L177.579 48.8005C177.6 48.7404 177.635 48.6987 177.683 48.6753C177.748 48.6442 177.811 48.6392 177.871 48.6603L180.431 49.5612C180.491 49.5823 180.531 49.6233 180.55 49.684C180.585 49.737 180.592 49.7935 180.571 49.8536L176.283 62.0411C176.262 62.1012 176.218 62.1468 176.153 62.1779C176.105 62.2013 176.05 62.2024 175.99 62.1813L173.43 61.2804Z" fill="white"></path><path d="M188.163 67.9177C187.258 67.422 186.557 66.8056 186.06 66.0685C185.58 65.3264 185.33 64.5216 185.312 63.6542C185.293 62.7867 185.522 61.9172 185.999 61.0455L187.835 57.6928C188.301 56.8435 188.901 56.1988 189.635 55.7587C190.377 55.3074 191.186 55.0896 192.063 55.1053C192.958 55.116 193.858 55.3692 194.763 55.8649C195.669 56.3607 196.367 56.9826 196.858 57.7309C197.355 58.4679 197.613 59.2702 197.632 60.1376C197.657 60.9939 197.436 61.8467 196.971 62.696L195.135 66.0487C194.658 66.9204 194.049 67.5819 193.308 68.0331C192.567 68.4844 191.749 68.7047 190.854 68.694C189.965 68.6722 189.068 68.4134 188.163 67.9177ZM189.466 65.5373C190.003 65.8311 190.528 65.8935 191.042 65.7245C191.567 65.5617 191.988 65.1897 192.307 64.6086L194.207 61.1386C194.519 60.5686 194.602 60.0187 194.457 59.4886C194.329 58.9535 193.996 58.5391 193.46 58.2453C192.935 57.9577 192.406 57.9008 191.875 58.0749C191.362 58.2438 190.949 58.6133 190.636 59.1832L188.736 62.6532C188.418 63.2343 188.326 63.7869 188.46 64.3108C188.606 64.8408 188.941 65.2497 189.466 65.5373Z" fill="white"></path><path d="M213.014 69.0956C213.055 69.047 213.103 69.0204 213.157 69.016C213.229 69.01 213.289 69.0276 213.338 69.0688L215.408 70.8229C215.457 70.864 215.48 70.9164 215.476 70.98C215.49 71.0421 215.476 71.0975 215.435 71.1461L207.085 81.005C207.044 81.0536 206.987 81.0809 206.915 81.0868C206.862 81.0913 206.81 81.0728 206.762 81.0317L204.778 79.3518C204.681 79.2695 204.646 79.1729 204.673 79.0622L206.037 70.65C206.042 70.6043 206.031 70.5782 206.004 70.5714C205.984 70.5549 205.958 70.5661 205.925 70.605L201.295 76.1009C201.254 76.1495 201.197 76.1769 201.126 76.1829C201.072 76.1873 201.02 76.169 200.972 76.1278L198.901 74.3738C198.852 74.3326 198.821 74.2809 198.807 74.2188C198.81 74.1552 198.833 74.0991 198.874 74.0505L207.224 64.1916C207.266 64.143 207.313 64.1165 207.367 64.112C207.439 64.1061 207.499 64.1237 207.548 64.1648L209.546 65.8571C209.643 65.9395 209.678 66.0359 209.651 66.1466L208.284 74.532C208.279 74.5777 208.286 74.6086 208.306 74.6251C208.333 74.6319 208.364 74.6159 208.397 74.577L213.014 69.0956Z" fill="white"></path><path d="M217.649 93.6212C217.564 93.5099 217.561 93.4003 217.639 93.2925L218.687 91.864C218.712 91.8128 218.713 91.772 218.69 91.7417L216.041 88.2814C216.018 88.2511 215.978 88.2413 215.922 88.252L214.27 88.8914C214.145 88.9385 214.04 88.9064 213.955 88.7951L212.178 86.4731C212.131 86.4124 212.112 86.3552 212.119 86.3016C212.136 86.2403 212.188 86.1926 212.274 86.1587L225.019 81.5532C225.144 81.5061 225.245 81.5332 225.322 81.6343L227.518 84.5027C227.595 84.6039 227.595 84.7084 227.517 84.8162L219.756 95.9323C219.743 95.9579 219.722 95.9823 219.691 96.0056C219.6 96.0753 219.512 96.0545 219.427 95.9432L217.649 93.6212ZM218.481 87.2559C218.413 87.2923 218.398 87.3357 218.437 87.3863L220.168 89.6476C220.214 89.7083 220.26 89.7053 220.305 89.6386L223.323 85.4996C223.355 85.4585 223.359 85.4317 223.333 85.4192C223.318 85.399 223.291 85.3954 223.253 85.4085L218.481 87.2559Z" fill="white"></path><path d="M223.679 103.015C223.652 102.957 223.645 102.897 223.657 102.835C223.687 102.778 223.73 102.736 223.788 102.709L235.449 97.1459C235.506 97.1185 235.56 97.1138 235.611 97.1319C235.679 97.1559 235.727 97.1967 235.754 97.2542L236.923 99.7037C236.95 99.7612 236.949 99.8182 236.92 99.8746C236.907 99.9371 236.872 99.982 236.815 100.01L227.482 104.462C227.425 104.489 227.41 104.532 227.437 104.589L230.062 110.092C230.09 110.149 230.089 110.206 230.059 110.263C230.047 110.325 230.012 110.37 229.954 110.398L227.919 111.369C227.861 111.396 227.798 111.398 227.73 111.374C227.679 111.356 227.64 111.318 227.613 111.26L223.679 103.015Z" fill="white"></path><path d="M232.972 129.029C232.964 128.966 232.975 128.907 233.006 128.851C233.052 128.806 233.106 128.78 233.169 128.771L245.975 127.061C246.039 127.053 246.092 127.065 246.135 127.098C246.192 127.141 246.225 127.195 246.233 127.258L246.878 132.089C247.01 133.074 246.956 133.968 246.716 134.771C246.476 135.575 246.068 136.227 245.493 136.728C244.917 137.229 244.218 137.534 243.398 137.644L238.434 138.307C237.613 138.417 236.859 138.305 236.172 137.973C235.485 137.64 234.92 137.118 234.478 136.406C234.036 135.694 233.749 134.845 233.617 133.86L232.972 129.029ZM236.147 131.575C236.083 131.583 236.056 131.619 236.065 131.682L236.325 133.633C236.393 134.138 236.624 134.525 237.02 134.794C237.429 135.061 237.937 135.16 238.545 135.091L242.447 134.57C243.053 134.489 243.511 134.261 243.821 133.885C244.145 133.521 244.273 133.079 244.203 132.562L243.945 130.629C243.937 130.566 243.901 130.539 243.838 130.547L236.147 131.575Z" fill="white"></path><path d="M244.811 156.199C244.747 156.195 244.692 156.166 244.644 156.112C244.608 156.072 244.592 156.02 244.596 155.956L244.971 149.967C244.975 149.903 244.945 149.869 244.881 149.865L242.535 149.719C242.471 149.715 242.438 149.744 242.434 149.808L242.194 153.642C242.19 153.706 242.161 153.755 242.108 153.79C242.067 153.838 242.014 153.861 241.951 153.857L239.719 153.717C239.655 153.713 239.6 153.684 239.552 153.63C239.516 153.59 239.5 153.538 239.504 153.474L239.744 149.64C239.748 149.576 239.718 149.542 239.655 149.538L237.137 149.381C237.073 149.377 237.039 149.407 237.035 149.471L236.661 155.46C236.657 155.524 236.628 155.573 236.575 155.608C236.534 155.656 236.481 155.679 236.418 155.675L234.167 155.534C234.103 155.53 234.048 155.501 234 155.447C233.964 155.406 233.948 155.354 233.952 155.291L234.516 146.268C234.52 146.205 234.543 146.149 234.584 146.1C234.638 146.065 234.696 146.05 234.76 146.054L247.654 146.86C247.718 146.864 247.768 146.886 247.803 146.926C247.851 146.98 247.873 147.039 247.869 147.103L247.305 156.125C247.301 156.189 247.272 156.238 247.219 156.273C247.178 156.322 247.125 156.344 247.062 156.34L244.811 156.199Z" fill="white"></path><path d="M229.602 174.455C229.67 174.277 229.777 174.25 229.92 174.373L238.048 181.873C238.067 181.894 238.093 181.897 238.126 181.883C238.154 181.88 238.173 181.867 238.182 181.843L239.269 179.026C239.292 178.966 239.274 178.925 239.215 178.902L238.376 178.579C238.317 178.556 238.273 178.511 238.243 178.445C238.222 178.396 238.222 178.342 238.245 178.282L239.009 176.303C239.032 176.243 239.07 176.197 239.124 176.163C239.185 176.146 239.246 176.148 239.305 176.171L242.544 177.441C242.603 177.464 242.644 177.501 242.666 177.55C242.695 177.616 242.698 177.679 242.675 177.738L239.558 185.815C239.535 185.875 239.493 185.913 239.432 185.931C239.378 185.964 239.321 185.97 239.262 185.947L237.086 185.107C237.015 185.08 236.933 185.028 236.84 184.951L228.627 177.459C228.534 177.383 228.512 177.279 228.563 177.148L229.602 174.455Z" fill="white"></path><path d="M217.995 197.128C218.034 197.078 218.085 197.045 218.147 197.029C218.211 197.031 218.267 197.052 218.317 197.092L228.411 205.156C228.461 205.196 228.489 205.242 228.495 205.296C228.503 205.368 228.487 205.428 228.447 205.478L225.405 209.286C224.785 210.062 224.102 210.642 223.356 211.024C222.61 211.407 221.857 211.564 221.097 211.495C220.336 211.425 219.633 211.132 218.986 210.615L215.074 207.49C214.426 206.973 213.985 206.351 213.75 205.625C213.515 204.899 213.501 204.13 213.71 203.318C213.918 202.506 214.332 201.712 214.953 200.935L217.995 197.128ZM218.353 201.181C218.303 201.141 218.258 201.146 218.218 201.196L216.99 202.734C216.671 203.132 216.552 203.567 216.632 204.038C216.722 204.518 217.002 204.954 217.472 205.345L220.548 207.803C221.026 208.184 221.507 208.357 221.993 208.321C222.48 208.303 222.887 208.09 223.213 207.681L224.43 206.158C224.47 206.109 224.465 206.064 224.415 206.024L218.353 201.181Z" fill="white"></path><path d="M206.468 210.153C206.515 210.111 206.571 210.087 206.634 210.081C206.696 210.093 206.749 210.123 206.792 210.17L215.447 219.763C215.489 219.81 215.509 219.861 215.507 219.915C215.503 219.987 215.477 220.044 215.43 220.087L213.415 221.905C213.368 221.947 213.313 221.962 213.25 221.95C213.187 221.956 213.134 221.935 213.091 221.888L204.436 212.295C204.394 212.248 204.374 212.188 204.378 212.116C204.38 212.062 204.406 212.014 204.453 211.971L206.468 210.153Z" fill="white"></path><path d="M190.57 222.069C190.689 221.994 190.798 222.001 190.898 222.089L192.221 223.268C192.269 223.298 192.31 223.303 192.342 223.283L196.038 220.974C196.071 220.954 196.084 220.915 196.079 220.858L195.599 219.152C195.564 219.024 195.606 218.923 195.725 218.849L198.205 217.299C198.27 217.259 198.328 217.245 198.381 217.257C198.44 217.28 198.483 217.336 198.509 217.425L201.885 230.55C201.92 230.678 201.883 230.776 201.775 230.843L198.712 232.757C198.604 232.825 198.5 232.815 198.4 232.727L188.07 223.946C188.045 223.931 188.023 223.908 188.003 223.875C187.942 223.778 187.971 223.692 188.09 223.618L190.57 222.069ZM196.828 223.5C196.798 223.429 196.756 223.41 196.702 223.444L194.287 224.952C194.222 224.993 194.221 225.039 194.283 225.09L198.117 228.486C198.155 228.523 198.181 228.529 198.196 228.505C198.218 228.491 198.224 228.465 198.214 228.426L196.828 223.5Z" fill="white"></path><path d="M176.25 228.624C177.244 228.261 178.168 228.1 179.024 228.14C179.872 228.196 180.606 228.444 181.228 228.881C181.841 229.336 182.29 229.952 182.574 230.73L182.699 231.071C182.72 231.131 182.72 231.185 182.697 231.234C182.667 231.299 182.622 231.343 182.562 231.365L180.066 232.276C180.007 232.298 179.95 232.292 179.897 232.257C179.836 232.238 179.794 232.199 179.772 232.139L179.694 231.924C179.549 231.529 179.225 231.254 178.721 231.099C178.221 230.956 177.636 231.007 176.966 231.252C176.439 231.444 176.092 231.7 175.923 232.019C175.755 232.338 175.726 232.647 175.835 232.947C175.922 233.186 176.07 233.349 176.278 233.436C176.479 233.539 176.722 233.593 177.008 233.596C177.299 233.612 177.74 233.614 178.332 233.601C178.417 233.611 178.498 233.609 178.574 233.594C178.655 233.592 178.729 233.592 178.798 233.594C179.668 233.561 180.442 233.584 181.122 233.661C181.805 233.75 182.445 233.978 183.039 234.344C183.639 234.722 184.078 235.294 184.358 236.06C184.629 236.802 184.673 237.518 184.492 238.209C184.302 238.916 183.915 239.545 183.33 240.098C182.745 240.651 182.016 241.087 181.142 241.406C180.22 241.742 179.333 241.876 178.481 241.808C177.617 241.744 176.863 241.483 176.222 241.026C175.58 240.568 175.115 239.944 174.826 239.155L174.734 238.903C174.713 238.843 174.717 238.781 174.747 238.715C174.77 238.666 174.811 238.631 174.871 238.609L177.367 237.698C177.426 237.676 177.487 237.674 177.548 237.693C177.601 237.727 177.639 237.775 177.661 237.835L177.707 237.96C177.86 238.379 178.181 238.682 178.67 238.87C179.159 239.058 179.714 239.038 180.337 238.811C180.803 238.64 181.134 238.411 181.327 238.123C181.52 237.836 181.554 237.518 181.427 237.171C181.331 236.908 181.166 236.717 180.933 236.599C180.704 236.492 180.388 236.425 179.984 236.396C179.572 236.384 178.958 236.391 178.14 236.418C177.198 236.437 176.454 236.424 175.908 236.379C175.363 236.334 174.797 236.14 174.211 235.798C173.617 235.472 173.176 234.915 172.888 234.125C172.603 233.347 172.556 232.604 172.746 231.898C172.935 231.191 173.332 230.551 173.937 229.977C174.534 229.42 175.305 228.969 176.25 228.624Z" fill="white"></path><path d="M124.423 163.93C118.482 163.93 113.806 162.277 110.396 158.97C106.986 155.612 105.281 151.065 105.281 145.33V126.42C105.281 120.737 106.986 116.268 110.396 113.013C113.806 109.758 118.482 108.13 124.423 108.13C130.365 108.13 135.067 109.783 138.528 113.09C141.99 116.345 143.721 120.788 143.721 126.42V145.33C143.721 151.065 141.99 155.612 138.528 158.97C135.067 162.277 130.365 163.93 124.423 163.93ZM124.423 152.848C126.387 152.848 127.937 152.253 129.073 151.065C130.262 149.825 130.856 148.146 130.856 146.028V125.955C130.856 123.837 130.262 122.183 129.073 120.995C127.937 119.755 126.387 119.135 124.423 119.135C122.512 119.135 120.988 119.755 119.851 120.995C118.714 122.183 118.146 123.837 118.146 125.955V146.028C118.146 148.146 118.688 149.825 119.773 151.065C120.91 152.253 122.46 152.848 124.423 152.848Z" fill="white"></path><path d="M155.368 163C154.593 163 154.335 162.638 154.593 161.915L171.101 120.22C171.152 120.117 171.127 120.013 171.023 119.91C170.972 119.807 170.894 119.755 170.791 119.755H158.546C158.287 119.755 158.158 119.884 158.158 120.143V123.785C158.158 124.043 158.055 124.276 157.848 124.483C157.693 124.638 157.487 124.715 157.228 124.715H148.626C148.367 124.715 148.135 124.638 147.928 124.483C147.773 124.276 147.696 124.043 147.696 123.785L147.773 109.68C147.773 109.422 147.851 109.215 148.006 109.06C148.212 108.853 148.445 108.75 148.703 108.75H183.811C184.069 108.75 184.276 108.853 184.431 109.06C184.637 109.215 184.741 109.422 184.741 109.68V119.135C184.741 119.445 184.663 119.833 184.508 120.298L168.156 162.303C168.001 162.768 167.639 163 167.071 163H155.368Z" fill="white"></path><path fill-rule="evenodd" clip-rule="evenodd" d="M146 75.5C107.616 75.5 76.5 106.616 76.5 145C76.5 183.384 107.616 214.5 146 214.5C184.384 214.5 215.5 183.384 215.5 145C215.5 106.616 184.384 75.5 146 75.5ZM73.5 145C73.5 104.959 105.959 72.5 146 72.5C186.04 72.5 218.5 104.959 218.5 145C218.5 185.041 186.04 217.5 146 217.5C105.959 217.5 73.5 185.041 73.5 145Z" fill="white"></path><path fill-rule="evenodd" clip-rule="evenodd" d="M145.95 25H146.049C146.601 25.0002 147.049 25.4481 147.049 26.0004C147.049 26.5527 146.601 27.0002 146.048 27H145.951C145.399 27.0002 144.951 26.5527 144.951 26.0004C144.951 25.4481 145.398 25.0002 145.95 25ZM154.79 26.3156C154.835 25.7651 155.318 25.3552 155.868 25.4L155.966 25.408C156.517 25.4533 156.926 25.9362 156.881 26.4866C156.836 27.037 156.353 27.4465 155.802 27.4013L155.706 27.3934C155.156 27.3486 154.746 26.866 154.79 26.3156ZM137.209 26.3156C137.254 26.866 136.844 27.3486 136.293 27.3934L136.197 27.4013C135.647 27.4465 135.164 27.037 135.119 26.4866C135.073 25.9362 135.483 25.4533 136.033 25.408L136.131 25.4C136.682 25.3552 137.164 25.7651 137.209 26.3156ZM164.561 27.4347C164.651 26.8898 165.166 26.5211 165.71 26.6111L165.808 26.6272C166.352 26.7177 166.721 27.2328 166.63 27.7776C166.54 28.3224 166.025 28.6907 165.48 28.6002L165.384 28.5844C164.839 28.4943 164.471 27.9796 164.561 27.4347ZM127.439 27.4347C127.529 27.9796 127.16 28.4943 126.615 28.5844L126.52 28.6002C125.975 28.6907 125.46 28.3224 125.369 27.7776C125.279 27.2328 125.647 26.7177 126.192 26.6272L126.289 26.6111C126.834 26.5211 127.349 26.8898 127.439 27.4347ZM174.205 29.3582C174.34 28.8227 174.884 28.498 175.419 28.6329L175.514 28.6569C176.05 28.7923 176.374 29.3362 176.239 29.8716C176.103 30.407 175.559 30.7313 175.024 30.5959L174.931 30.5723C174.395 30.4373 174.07 29.8938 174.205 29.3582ZM117.794 29.3582C117.929 29.8938 117.604 30.4373 117.069 30.5723L116.975 30.5959C116.44 30.7313 115.896 30.407 115.761 29.8716C115.625 29.3362 115.95 28.7923 116.485 28.6569L116.58 28.6329C117.116 28.498 117.659 28.8227 117.794 29.3582ZM183.661 32.0782C183.84 31.5557 184.409 31.2774 184.931 31.4565L185.024 31.4884C185.546 31.6679 185.824 32.2368 185.645 32.7591C185.465 33.2814 184.896 33.5593 184.374 33.3798L184.283 33.3484C183.76 33.1693 183.482 32.6006 183.661 32.0782ZM108.339 32.0782C108.518 32.6006 108.239 33.1693 107.717 33.3484L107.626 33.3798C107.103 33.5593 106.534 33.2814 106.355 32.7591C106.175 32.2368 106.453 31.6679 106.975 31.4884L107.068 31.4565C107.591 31.2774 108.159 31.5557 108.339 32.0782ZM192.854 35.5744C193.076 35.0687 193.666 34.8386 194.172 35.0605L194.262 35.1001C194.767 35.3224 194.997 35.9125 194.774 36.418C194.552 36.9236 193.962 37.1532 193.456 36.9309L193.368 36.892C192.862 36.6701 192.632 36.0802 192.854 35.5744ZM99.1456 35.5745C99.3676 36.0802 99.1375 36.6701 98.6317 36.892L98.5432 36.9309C98.0377 37.1532 97.4476 36.9236 97.2253 36.418C97.0029 35.9125 97.2325 35.3224 97.7381 35.1001L97.8281 35.0605C98.3339 34.8386 98.9237 35.0687 99.1456 35.5745ZM201.725 39.822C201.988 39.3364 202.595 39.156 203.08 39.4191L203.166 39.4659C203.652 39.7294 203.832 40.3364 203.568 40.8218C203.305 41.3072 202.698 41.4871 202.212 41.2236L202.127 41.1776C201.642 40.9146 201.461 40.3076 201.725 39.822ZM90.2751 39.8221C90.5382 40.3077 90.3578 40.9146 89.8722 41.1777L89.7874 41.2236C89.3021 41.4871 88.695 41.3072 88.4315 40.8218C88.168 40.3365 88.3479 39.7294 88.8333 39.4659L88.9195 39.4191C89.4051 39.1561 90.0121 39.3365 90.2751 39.8221ZM210.215 44.7911C210.518 44.3289 211.137 44.1993 211.6 44.5016L211.682 44.5554C212.144 44.8581 212.273 45.4779 211.97 45.9399C211.668 46.4018 211.048 46.5309 210.586 46.2283L210.505 46.1754C210.043 45.8731 209.913 45.2533 210.215 44.7911ZM81.7842 44.7911C82.0865 45.2533 81.9569 45.8731 81.4947 46.1754L81.4139 46.2283C80.952 46.531 80.3321 46.4019 80.0294 45.9399C79.7267 45.478 79.8558 44.8581 80.3178 44.5554L80.3999 44.5016C80.8621 44.1993 81.4819 44.3289 81.7842 44.7911ZM218.266 50.443C218.605 50.0072 219.234 49.9291 219.67 50.2684L219.747 50.3288C220.183 50.6685 220.26 51.2969 219.92 51.7324C219.581 52.1678 218.952 52.2455 218.517 51.9058L218.441 51.8464C218.005 51.507 217.927 50.8787 218.266 50.443ZM73.7335 50.443C74.0728 50.8787 73.9947 51.5071 73.5589 51.8464L73.4827 51.9058C73.0473 52.2455 72.4189 52.1679 72.0792 51.7324C71.7395 51.297 71.8171 50.6686 72.2526 50.3289L72.3301 50.2685C72.7658 49.9291 73.3941 50.0073 73.7335 50.443ZM225.825 56.7378C226.199 56.3314 226.831 56.3052 227.238 56.6791L227.31 56.7457C227.716 57.12 227.742 57.7527 227.367 58.1587C226.993 58.5648 226.36 58.5906 225.954 58.2163L225.883 58.1508C225.477 57.7768 225.451 57.1442 225.825 56.7378ZM66.1751 56.7378C66.5491 57.1442 66.5228 57.7768 66.1164 58.1508L66.0454 58.2163C65.6393 58.5906 65.0066 58.5649 64.6323 58.1588C64.258 57.7527 64.2837 57.1201 64.6898 56.7457L64.7621 56.6792C65.1685 56.3052 65.8011 56.3315 66.1751 56.7378ZM232.841 63.6323C233.247 63.258 233.88 63.2838 234.254 63.6898L234.321 63.7621C234.695 64.1685 234.668 64.8011 234.262 65.1751C233.855 65.5491 233.223 65.5228 232.849 65.1164L232.783 65.0454C232.409 64.6393 232.435 64.0067 232.841 63.6323ZM59.1587 63.6324C59.5648 64.0067 59.5906 64.6393 59.2162 65.0454L59.1508 65.1165C58.7768 65.5229 58.1442 65.5491 57.7378 65.1751C57.3314 64.8012 57.3051 64.1685 57.6791 63.7621L57.7457 63.6899C58.12 63.2838 58.7526 63.2581 59.1587 63.6324ZM239.267 71.0792C239.703 70.7395 240.331 70.8172 240.671 71.2526L240.731 71.3301C241.071 71.7658 240.992 72.3942 240.557 72.7335C240.121 73.0728 239.493 72.9947 239.153 72.559L239.094 72.4828C238.754 72.0473 238.832 71.4189 239.267 71.0792ZM52.7324 71.0793C53.1678 71.419 53.2454 72.0474 52.9058 72.4828L52.8464 72.559C52.507 72.9948 51.8787 73.0729 51.443 72.7336C51.0072 72.3942 50.9291 71.7659 51.2684 71.3301L51.3288 71.2527C51.6685 70.8172 52.2969 70.7396 52.7324 71.0793ZM245.06 79.0294C245.522 78.7268 246.142 78.8559 246.444 79.3178L246.498 79.4C246.8 79.8622 246.671 80.4819 246.209 80.7842C245.746 81.0865 245.127 80.9569 244.824 80.4947L244.771 80.4139C244.469 79.952 244.598 79.3321 245.06 79.0294ZM46.9399 79.0295C47.4018 79.3322 47.5309 79.952 47.2282 80.414L47.1753 80.4948C46.873 80.957 46.2533 81.0866 45.7911 80.7843C45.3289 80.482 45.1993 79.8622 45.5016 79.4L45.5554 79.3179C45.858 78.8559 46.4779 78.7268 46.9399 79.0295ZM250.178 87.4315C250.663 87.168 251.27 87.3479 251.534 87.8333L251.581 87.9196C251.844 88.4052 251.663 89.0121 251.178 89.2752C250.692 89.5382 250.085 89.3579 249.822 88.8723L249.776 88.7875C249.513 88.3021 249.692 87.695 250.178 87.4315ZM41.8218 87.4316C42.3072 87.6951 42.4871 88.3021 42.2236 88.7875L42.1776 88.8723C41.9145 89.3579 41.3076 89.5383 40.822 89.2752C40.3364 89.0121 40.156 88.4052 40.4191 87.9196L40.4659 87.8334C40.7293 87.348 41.3364 87.1681 41.8218 87.4316ZM254.582 96.2253C255.087 96.003 255.677 96.2326 255.9 96.7381L255.939 96.8281C256.161 97.3339 255.931 97.9238 255.425 98.1457C254.92 98.3676 254.33 98.1375 254.108 97.6318L254.069 97.5432C253.847 97.0377 254.076 96.4476 254.582 96.2253ZM37.418 96.2253C37.9236 96.4476 38.1532 97.0377 37.9308 97.5433L37.892 97.6318C37.67 98.1375 37.0802 98.3676 36.5744 98.1457C36.0687 97.9238 35.8386 97.3339 36.0605 96.8282L36.1 96.7382C36.3224 96.2326 36.9124 96.003 37.418 96.2253ZM258.241 105.355C258.763 105.176 259.332 105.453 259.511 105.976L259.543 106.069C259.722 106.591 259.444 107.16 258.922 107.339C258.399 107.518 257.83 107.24 257.651 106.717L257.62 106.626C257.44 106.104 257.718 105.535 258.241 105.355ZM33.7591 105.355C34.2814 105.535 34.5593 106.104 34.3797 106.626L34.3484 106.717C34.1693 107.24 33.6006 107.518 33.0782 107.339C32.5557 107.16 32.2774 106.591 32.4565 106.069L32.4883 105.976C32.6679 105.454 33.2368 105.176 33.7591 105.355ZM261.128 114.761C261.664 114.626 262.207 114.95 262.343 115.485L262.367 115.58C262.502 116.116 262.177 116.659 261.642 116.794C261.106 116.929 260.562 116.605 260.427 116.069L260.404 115.976C260.268 115.44 260.593 114.897 261.128 114.761ZM30.8716 114.761C31.407 114.897 31.7313 115.44 31.5958 115.976L31.5723 116.069C31.4373 116.605 30.8937 116.929 30.3582 116.794C29.8227 116.659 29.4979 116.116 29.6329 115.58L29.6569 115.485C29.7923 114.95 30.3361 114.626 30.8716 114.761ZM263.222 124.37C263.767 124.279 264.282 124.647 264.372 125.192L264.389 125.289C264.479 125.834 264.11 126.349 263.565 126.439C263.02 126.529 262.505 126.16 262.415 125.615L262.4 125.52C262.309 124.975 262.677 124.46 263.222 124.37ZM28.7775 124.37C29.3224 124.46 29.6907 124.975 29.6002 125.52L29.5843 125.615C29.4943 126.16 28.9796 126.529 28.4347 126.439C27.8898 126.349 27.5211 125.834 27.6111 125.289L27.6272 125.192C27.7177 124.647 28.2327 124.279 28.7775 124.37ZM264.513 134.119C265.064 134.074 265.546 134.483 265.592 135.034L265.6 135.132C265.645 135.682 265.235 136.165 264.684 136.209C264.134 136.254 263.651 135.844 263.606 135.294L263.598 135.198C263.553 134.647 263.963 134.164 264.513 134.119ZM27.4866 134.119C28.037 134.164 28.4465 134.647 28.4012 135.198L28.3934 135.294C28.3486 135.844 27.866 136.254 27.3155 136.209C26.7651 136.165 26.3552 135.682 26.4 135.132L26.408 135.034C26.4532 134.483 26.9361 134.074 27.4866 134.119ZM27.0004 143.951C27.5527 143.951 28.0002 144.399 28 144.951V145.049C28.0002 145.601 27.5527 146.049 27.0004 146.049C26.4481 146.049 26.0002 145.602 26 145.049V144.951C26.0002 144.398 26.4481 143.951 27.0004 143.951ZM264.999 143.951C265.552 143.951 266 144.398 266 144.951V145.049C266 145.602 265.552 146.049 264.999 146.049C264.447 146.049 264 145.601 264 145.049V144.951C264 144.399 264.447 143.951 264.999 143.951ZM27.3155 153.791C27.866 153.746 28.3486 154.156 28.3934 154.706L28.4012 154.803C28.4465 155.353 28.037 155.836 27.4866 155.881C26.9361 155.926 26.4532 155.517 26.408 154.966L26.4 154.869C26.3552 154.318 26.7651 153.836 27.3155 153.791ZM264.684 153.791C265.235 153.836 265.645 154.318 265.6 154.869L265.592 154.966C265.546 155.517 265.064 155.926 264.513 155.881C263.963 155.836 263.553 155.353 263.598 154.803L263.606 154.706C263.651 154.156 264.134 153.746 264.684 153.791ZM28.4347 163.561C28.9796 163.471 29.4943 163.84 29.5844 164.385L29.6002 164.48C29.6907 165.025 29.3224 165.54 28.7775 165.631C28.2327 165.721 27.7177 165.353 27.6272 164.808L27.6111 164.711C27.5211 164.166 27.8898 163.651 28.4347 163.561ZM263.565 163.561C264.11 163.651 264.479 164.166 264.389 164.711L264.372 164.808C264.282 165.353 263.767 165.721 263.222 165.631C262.677 165.54 262.309 165.025 262.4 164.48L262.415 164.385C262.505 163.84 263.02 163.471 263.565 163.561ZM261.642 173.206C262.177 173.341 262.502 173.884 262.367 174.42L262.343 174.515C262.207 175.05 261.664 175.374 261.128 175.239C260.593 175.104 260.268 174.56 260.404 174.024L260.427 173.931C260.562 173.395 261.106 173.071 261.642 173.206ZM30.3582 173.206C30.8937 173.071 31.4373 173.395 31.5723 173.931L31.5959 174.024C31.7313 174.56 31.407 175.104 30.8716 175.239C30.3361 175.374 29.7923 175.05 29.6569 174.515L29.6329 174.42C29.4979 173.884 29.8227 173.341 30.3582 173.206ZM258.922 182.661C259.444 182.84 259.722 183.409 259.543 183.931L259.511 184.024C259.332 184.547 258.763 184.824 258.241 184.645C257.718 184.465 257.44 183.897 257.62 183.374L257.651 183.283C257.83 182.76 258.399 182.482 258.922 182.661ZM33.0782 182.661C33.6006 182.482 34.1693 182.76 34.3484 183.283L34.3798 183.374C34.5593 183.897 34.2814 184.465 33.7591 184.645C33.2368 184.825 32.6679 184.547 32.4884 184.024L32.4565 183.931C32.2774 183.409 32.5557 182.84 33.0782 182.661ZM255.425 191.854C255.931 192.076 256.161 192.666 255.939 193.172L255.9 193.262C255.677 193.767 255.087 193.997 254.582 193.775C254.076 193.552 253.847 192.962 254.069 192.457L254.108 192.368C254.33 191.863 254.92 191.632 255.425 191.854ZM36.5744 191.854C37.0802 191.632 37.6701 191.863 37.892 192.368L37.9308 192.457C38.1532 192.962 37.9236 193.552 37.418 193.775C36.9125 193.997 36.3224 193.768 36.1001 193.262L36.0605 193.172C35.8386 192.666 36.0687 192.076 36.5744 191.854ZM251.178 200.725C251.663 200.988 251.844 201.595 251.581 202.08L251.534 202.167C251.27 202.652 250.663 202.832 250.178 202.568C249.693 202.305 249.513 201.698 249.776 201.213L249.822 201.128C250.085 200.642 250.692 200.462 251.178 200.725ZM40.822 200.725C41.3076 200.462 41.9146 200.642 42.1776 201.128L42.2236 201.213C42.4871 201.698 42.3072 202.305 41.8218 202.569C41.3364 202.832 40.7294 202.652 40.4659 202.167L40.4191 202.08C40.156 201.595 40.3364 200.988 40.822 200.725ZM246.209 209.216C246.671 209.518 246.8 210.138 246.498 210.6L246.444 210.682C246.142 211.144 245.522 211.273 245.06 210.971C244.598 210.668 244.469 210.048 244.771 209.586L244.824 209.505C245.127 209.043 245.746 208.913 246.209 209.216ZM45.7911 209.216C46.2533 208.914 46.8731 209.043 47.1754 209.505L47.2283 209.586C47.5309 210.048 47.4018 210.668 46.9399 210.971C46.4779 211.273 45.8581 211.144 45.5554 210.682L45.5016 210.6C45.1993 210.138 45.3289 209.518 45.7911 209.216ZM240.557 217.266C240.992 217.606 241.071 218.234 240.731 218.67L240.671 218.747C240.331 219.183 239.703 219.26 239.267 218.921C238.832 218.581 238.754 217.953 239.094 217.517L239.153 217.441C239.493 217.005 240.121 216.927 240.557 217.266ZM51.443 217.267C51.8787 216.927 52.507 217.005 52.8464 217.441L52.9058 217.517C53.2455 217.953 53.1678 218.581 52.7324 218.921C52.2969 219.261 51.6685 219.183 51.3288 218.747L51.2684 218.67C50.9291 218.234 51.0073 217.606 51.443 217.267ZM234.262 224.825C234.668 225.199 234.695 225.832 234.321 226.238L234.254 226.31C233.88 226.716 233.247 226.742 232.841 226.368C232.435 225.993 232.409 225.361 232.783 224.955L232.849 224.884C233.223 224.477 233.856 224.451 234.262 224.825ZM57.7378 224.825C58.1442 224.451 58.7768 224.477 59.1508 224.884L59.2163 224.955C59.5906 225.361 59.5648 225.993 59.1588 226.368C58.7527 226.742 58.12 226.716 57.7457 226.31L57.6792 226.238C57.3052 225.832 57.3314 225.199 57.7378 224.825ZM227.367 231.841C227.742 232.247 227.716 232.88 227.31 233.254L227.238 233.321C226.831 233.695 226.199 233.669 225.825 233.262C225.451 232.856 225.477 232.223 225.883 231.849L225.954 231.784C226.36 231.409 226.993 231.435 227.367 231.841ZM64.6323 231.841C65.0067 231.435 65.6393 231.409 66.0454 231.784L66.1165 231.849C66.5228 232.223 66.5491 232.856 66.1751 233.262C65.8011 233.669 65.1685 233.695 64.7621 233.321L64.6899 233.254C64.2838 232.88 64.258 232.247 64.6323 231.841ZM219.92 238.268C220.26 238.703 220.183 239.331 219.747 239.671L219.67 239.732C219.234 240.071 218.606 239.993 218.266 239.557C217.927 239.121 218.005 238.493 218.441 238.154L218.517 238.094C218.952 237.755 219.581 237.832 219.92 238.268ZM72.0792 238.268C72.4189 237.832 73.0473 237.755 73.4828 238.094L73.559 238.154C73.9947 238.493 74.0729 239.121 73.7335 239.557C73.3942 239.993 72.7659 240.071 72.3301 239.732L72.2526 239.671C71.8172 239.332 71.7395 238.703 72.0792 238.268ZM211.97 244.06C212.273 244.522 212.144 245.142 211.682 245.445L211.6 245.498C211.138 245.801 210.518 245.671 210.215 245.209C209.913 244.747 210.043 244.127 210.505 243.825L210.586 243.772C211.048 243.469 211.668 243.598 211.97 244.06ZM80.0295 244.06C80.3321 243.598 80.952 243.469 81.414 243.772L81.4948 243.825C81.9569 244.127 82.0866 244.747 81.7843 245.209C81.482 245.671 80.8622 245.801 80.4 245.498L80.3178 245.445C79.8559 245.142 79.7268 244.522 80.0295 244.06ZM203.568 249.178C203.832 249.664 203.652 250.271 203.166 250.534L203.08 250.581C202.595 250.844 201.988 250.664 201.725 250.178C201.461 249.692 201.642 249.085 202.127 248.822L202.212 248.776C202.698 248.513 203.305 248.693 203.568 249.178ZM88.4316 249.178C88.695 248.693 89.3021 248.513 89.7875 248.776L89.8723 248.822C90.3579 249.085 90.5383 249.692 90.2752 250.178C90.0121 250.664 89.4052 250.844 88.9196 250.581L88.8333 250.534C88.348 250.271 88.1681 249.664 88.4316 249.178ZM194.774 253.582C194.997 254.088 194.767 254.678 194.262 254.9L194.172 254.94C193.666 255.161 193.076 254.931 192.854 254.426C192.632 253.92 192.862 253.33 193.368 253.108L193.456 253.069C193.962 252.847 194.552 253.076 194.774 253.582ZM97.2253 253.582C97.4476 253.076 98.0377 252.847 98.5433 253.069L98.6318 253.108C99.1375 253.33 99.3676 253.92 99.1457 254.426C98.9238 254.931 98.3339 255.161 97.8281 254.94L97.7381 254.9C97.2326 254.678 97.003 254.088 97.2253 253.582ZM106.355 257.241C106.534 256.719 107.103 256.441 107.626 256.62L107.717 256.652C108.239 256.831 108.518 257.399 108.339 257.922C108.16 258.444 107.591 258.723 107.068 258.544L106.976 258.512C106.453 258.332 106.175 257.763 106.355 257.241ZM185.645 257.241C185.824 257.763 185.546 258.332 185.024 258.512L184.931 258.544C184.409 258.723 183.84 258.444 183.661 257.922C183.482 257.399 183.76 256.831 184.283 256.652L184.374 256.62C184.896 256.441 185.465 256.719 185.645 257.241ZM176.239 260.128C176.374 260.664 176.05 261.208 175.514 261.343L175.419 261.367C174.884 261.502 174.34 261.177 174.205 260.642C174.07 260.106 174.395 259.563 174.931 259.428L175.024 259.404C175.559 259.269 176.103 259.593 176.239 260.128ZM115.761 260.128C115.896 259.593 116.44 259.269 116.975 259.404L117.069 259.428C117.604 259.563 117.929 260.106 117.794 260.642C117.659 261.177 117.116 261.502 116.58 261.367L116.485 261.343C115.95 261.208 115.625 260.664 115.761 260.128ZM125.369 262.222C125.46 261.678 125.975 261.309 126.52 261.4L126.615 261.416C127.16 261.506 127.529 262.02 127.439 262.565C127.349 263.11 126.834 263.479 126.289 263.389L126.192 263.373C125.647 263.282 125.279 262.767 125.369 262.222ZM166.63 262.222C166.721 262.767 166.352 263.282 165.808 263.373L165.71 263.389C165.166 263.479 164.651 263.11 164.561 262.565C164.471 262.02 164.839 261.506 165.384 261.416L165.48 261.4C166.025 261.309 166.54 261.678 166.63 262.222ZM135.119 263.513C135.164 262.963 135.647 262.554 136.197 262.599L136.293 262.607C136.844 262.651 137.254 263.134 137.209 263.684C137.164 264.235 136.682 264.645 136.131 264.6L136.033 264.592C135.483 264.547 135.073 264.064 135.119 263.513ZM156.881 263.513C156.926 264.064 156.517 264.547 155.966 264.592L155.868 264.6C155.318 264.645 154.835 264.235 154.79 263.684C154.746 263.134 155.156 262.651 155.706 262.607L155.802 262.599C156.353 262.554 156.836 262.963 156.881 263.513ZM144.951 264C144.951 263.447 145.399 263 145.951 263H146.048C146.601 263 147.049 263.447 147.049 264C147.049 264.552 146.601 265 146.049 265H145.95C145.398 265 144.951 264.552 144.951 264Z" fill="white"></path></g></g><defs><linearGradient id="paint0_linear_2013_182" x1="145.777" y1="-3.83054" x2="145.777" y2="293.384" gradientUnits="userSpaceOnUse"><stop stop-color="#27BC70"></stop><stop offset="1" stop-color="#3CB960"></stop></linearGradient><clipPath id="clip0_2013_182"><rect width="292" height="289" fill="white"></rect></clipPath></defs></svg>